<svg xmlns="http://www.w3.org/2000/svg" xmlns:xlink="http://www.w3.org/1999/xlink" viewBox="0 0 978 159"><defs><style>.cls-1,.cls-13{fill:none;}.cls-2{fill:#ddd9c4;}.cls-14,.cls-2,.cls-3{fill-rule:evenodd;}.cls-3{fill:#ebf1de;}.cls-4{clip-path:url(#clip-path);}.cls-5,.cls-7{font-size:13.8px;stroke-miterlimit:10;stroke-width:0.39px;}.cls-13,.cls-5,.cls-7{stroke:#000;}.cls-11,.cls-5,.cls-7{font-family:SimSun;}.cls-5,.cls-8{letter-spacing:0.04em;}.cls-6{letter-spacing:0em;}.cls-10,.cls-11,.cls-12,.cls-9{font-size:12px;}.cls-12,.cls-9{font-family:Consolas;}.cls-10{font-family:NSimSun;}.cls-12{fill:red;}.cls-13{stroke-linejoin:bevel;stroke-width:0.6px;}.cls-14{fill:green;}</style><clipPath id="clip-path"><rect class="cls-1" x="0.6" y="0.6" width="977.4" height="158.4"/></clipPath></defs><title>Coord</title><g id="图层_2" data-name="图层 2"><g id="图层_1-2" data-name="图层 1"><polygon class="cls-2" points="0 0 142.8 0 142.8 29.4 0 29.4 0 0 0 0"/><polygon class="cls-2" points="142.2 0 329.4 0 329.4 29.4 142.2 29.4 142.2 0 142.2 0"/><polygon class="cls-2" points="328.8 0 568.8 0 568.8 29.4 328.8 29.4 328.8 0 328.8 0"/><polygon class="cls-2" points="568.2 0 978 0 978 29.4 568.2 29.4 568.2 0 568.2 0"/><polygon class="cls-3" points="0 28.8 142.8 28.8 142.8 51 0 51 0 28.8 0 28.8"/><polygon class="cls-3" points="142.2 28.8 329.4 28.8 329.4 51 142.2 51 142.2 28.8 142.2 28.8"/><polygon class="cls-3" points="328.8 28.8 568.8 28.8 568.8 51 328.8 51 328.8 28.8 328.8 28.8"/><polygon class="cls-3" points="568.2 28.8 978 28.8 978 159 568.2 159 568.2 28.8 568.2 28.8"/><polygon class="cls-3" points="0 50.4 142.8 50.4 142.8 72.6 0 72.6 0 50.4 0 50.4"/><polygon class="cls-3" points="142.2 50.4 329.4 50.4 329.4 94.2 142.2 94.2 142.2 50.4 142.2 50.4"/><polygon class="cls-3" points="328.8 50.4 568.8 50.4 568.8 94.2 328.8 94.2 328.8 50.4 328.8 50.4"/><polygon class="cls-3" points="0 72 142.8 72 142.8 94.2 0 94.2 0 72 0 72"/><polygon class="cls-3" points="0 93.6 142.8 93.6 142.8 115.8 0 115.8 0 93.6 0 93.6"/><polygon class="cls-3" points="142.2 93.6 329.4 93.6 329.4 115.8 142.2 115.8 142.2 93.6 142.2 93.6"/><polygon class="cls-3" points="328.8 93.6 568.8 93.6 568.8 115.8 328.8 115.8 328.8 93.6 328.8 93.6"/><polygon class="cls-3" points="0 115.2 142.8 115.2 142.8 137.4 0 137.4 0 115.2 0 115.2"/><polygon class="cls-3" points="142.2 115.2 329.4 115.2 329.4 137.4 142.2 137.4 142.2 115.2 142.2 115.2"/><polygon class="cls-3" points="328.8 115.2 568.8 115.2 568.8 137.4 328.8 137.4 328.8 115.2 328.8 115.2"/><polygon class="cls-3" points="0 136.8 142.8 136.8 142.8 159 0 159 0 136.8 0 136.8"/><polygon class="cls-3" points="142.2 136.8 329.4 136.8 329.4 159 142.2 159 142.2 136.8 142.2 136.8"/><polygon class="cls-3" points="328.8 136.8 568.8 136.8 568.8 159 328.8 159 328.8 136.8 328.8 136.8"/><g class="cls-4"><text class="cls-5" transform="translate(15 21)">坐标变换函<tspan class="cls-6" x="71.97" y="0">数</tspan></text></g><g class="cls-4"><text class="cls-7" transform="translate(157.21 21)"><tspan class="cls-8">描</tspan><tspan x="14.39" y="0">述</tspan></text></g><g class="cls-4"><text class="cls-7" transform="translate(343.8 21)"><tspan class="cls-8">参</tspan><tspan x="14.39" y="0">数</tspan></text></g><g class="cls-4"><text class="cls-7" transform="translate(583.21 21)"><tspan class="cls-8">参数描</tspan><tspan x="43.18" y="0">述</tspan></text></g><g class="cls-4"><text class="cls-9" transform="translate(14.4 44.4)">coord</text></g><g class="cls-4"><text class="cls-9" transform="translate(47.39 44.4)">_</text></g><g class="cls-4"><text class="cls-9" transform="translate(54 44.4)">cartesian</text></g><g class="cls-4"><text class="cls-9" transform="translate(113.4 44.4)">()</text></g><g class="cls-4"><text class="cls-9" transform="translate(228.6 44.4)">(</text></g><g class="cls-4"><text class="cls-9" transform="translate(259.2 44.4)">)</text></g><g class="cls-4"><text class="cls-9" transform="translate(343.2 44.4)">xlim</text></g><g class="cls-4"><text class="cls-9" transform="translate(369.6 44.4)">,</text></g><g class="cls-4"><text class="cls-9" transform="translate(376.2 44.4)"> </text></g><g class="cls-4"><text class="cls-9" transform="translate(382.8 44.4)">ylim</text></g><g class="cls-4"><text class="cls-9" transform="translate(409.2 44.4)">,</text></g><g class="cls-4"><text class="cls-9" transform="translate(415.8 44.4)"> </text></g><g class="cls-4"><text class="cls-9" transform="translate(422.39 44.4)">expand</text></g><g class="cls-4"><text class="cls-9" transform="translate(461.99 44.4)">,</text></g><g class="cls-4"><text class="cls-9" transform="translate(468.6 44.4)"> </text></g><g class="cls-4"><text class="cls-9" transform="translate(475.2 44.4)">clip</text></g><g class="cls-4"><text class="cls-9" transform="translate(14.4 66)">coord</text></g><g class="cls-4"><text class="cls-9" transform="translate(47.39 66)">_</text></g><g class="cls-4"><text class="cls-9" transform="translate(54 66)">fixed</text></g><g class="cls-4"><text class="cls-9" transform="translate(86.99 66)">()</text></g><g class="cls-4"><text class="cls-9" transform="translate(343.2 76.8)">ratio</text></g><g class="cls-4"><text class="cls-9" transform="translate(376.2 76.8)">,</text></g><g class="cls-4"><text class="cls-9" transform="translate(382.8 76.8)"> </text></g><g class="cls-4"><text class="cls-9" transform="translate(389.4 76.8)">xlim</text></g><g class="cls-4"><text class="cls-9" transform="translate(415.8 76.8)">,</text></g><g class="cls-4"><text class="cls-9" transform="translate(422.39 76.8)"> </text></g><g class="cls-4"><text class="cls-9" transform="translate(429 76.8)">ylim</text></g><g class="cls-4"><text class="cls-9" transform="translate(455.39 76.8)">,</text></g><g class="cls-4"><text class="cls-9" transform="translate(461.99 76.8)"> </text></g><g class="cls-4"><text class="cls-9" transform="translate(468.6 76.8)">expand</text></g><g class="cls-4"><text class="cls-9" transform="translate(508.2 76.8)">,</text></g><g class="cls-4"><text class="cls-9" transform="translate(514.8 76.8)"> </text></g><g class="cls-4"><text class="cls-9" transform="translate(521.39 76.8)">clip</text></g><g class="cls-4"><text class="cls-9" transform="translate(14.4 87.6)">coord</text></g><g class="cls-4"><text class="cls-9" transform="translate(47.39 87.6)">_</text></g><g class="cls-4"><text class="cls-9" transform="translate(54 87.6)">equal</text></g><g class="cls-4"><text class="cls-9" transform="translate(86.99 87.6)">()</text></g><g class="cls-4"><text class="cls-9" transform="translate(14.4 109.19)">coord</text></g><g class="cls-4"><text class="cls-9" transform="translate(47.39 109.19)">_</text></g><g class="cls-4"><text class="cls-9" transform="translate(54 109.19)">flip</text></g><g class="cls-4"><text class="cls-9" transform="translate(80.39 109.19)">()</text></g><g class="cls-4"><text class="cls-9" transform="translate(343.2 109.19)">xlim</text></g><g class="cls-4"><text class="cls-9" transform="translate(369.6 109.19)">,</text></g><g class="cls-4"><text class="cls-9" transform="translate(376.2 109.19)"> </text></g><g class="cls-4"><text class="cls-9" transform="translate(382.8 109.19)">ylim</text></g><g class="cls-4"><text class="cls-9" transform="translate(409.2 109.19)">,</text></g><g class="cls-4"><text class="cls-9" transform="translate(415.8 109.19)"> </text></g><g class="cls-4"><text class="cls-9" transform="translate(422.39 109.19)">expand</text></g><g class="cls-4"><text class="cls-9" transform="translate(461.99 109.19)">,</text></g><g class="cls-4"><text class="cls-9" transform="translate(468.6 109.19)"> </text></g><g class="cls-4"><text class="cls-9" transform="translate(475.2 109.19)">clip</text></g><g class="cls-4"><text class="cls-9" transform="translate(14.4 130.8)">coord</text></g><g class="cls-4"><text class="cls-9" transform="translate(47.39 130.8)">_</text></g><g class="cls-4"><text class="cls-9" transform="translate(54 130.8)">trans</text></g><g class="cls-4"><text class="cls-9" transform="translate(86.99 130.8)">()</text></g><g class="cls-4"><text class="cls-9" transform="translate(343.2 130.8)">x</text></g><g class="cls-4"><text class="cls-9" transform="translate(349.8 130.8)">,</text></g><g class="cls-4"><text class="cls-9" transform="translate(356.39 130.8)"> </text></g><g class="cls-4"><text class="cls-9" transform="translate(362.99 130.8)">y</text></g><g class="cls-4"><text class="cls-9" transform="translate(369.6 130.8)">,</text></g><g class="cls-4"><text class="cls-9" transform="translate(376.2 130.8)"> </text></g><g class="cls-4"><text class="cls-9" transform="translate(382.8 130.8)">xlim</text></g><g class="cls-4"><text class="cls-9" transform="translate(409.2 130.8)">,</text></g><g class="cls-4"><text class="cls-9" transform="translate(415.8 130.8)"> </text></g><g class="cls-4"><text class="cls-9" transform="translate(422.39 130.8)">ylim</text></g><g class="cls-4"><text class="cls-9" transform="translate(448.8 130.8)">,</text></g><g class="cls-4"><text class="cls-9" transform="translate(455.39 130.8)"> </text></g><g class="cls-4"><text class="cls-9" transform="translate(461.99 130.8)">expand</text></g><g class="cls-4"><text class="cls-9" transform="translate(501.6 130.8)">,</text></g><g class="cls-4"><text class="cls-9" transform="translate(508.2 130.8)"> </text></g><g class="cls-4"><text class="cls-9" transform="translate(514.8 130.8)">clip</text></g><g class="cls-4"><text class="cls-9" transform="translate(14.4 152.4)">coord</text></g><g class="cls-4"><text class="cls-9" transform="translate(47.39 152.4)">_</text></g><g class="cls-4"><text class="cls-9" transform="translate(54 152.4)">polar</text></g><g class="cls-4"><text class="cls-9" transform="translate(86.99 152.4)">()</text></g><g class="cls-4"><text class="cls-9" transform="translate(343.2 152.4)">theta</text></g><g class="cls-4"><text class="cls-9" transform="translate(376.2 152.4)">,</text></g><g class="cls-4"><text class="cls-9" transform="translate(382.8 152.4)"> </text></g><g class="cls-4"><text class="cls-9" transform="translate(389.4 152.4)">start</text></g><g class="cls-4"><text class="cls-9" transform="translate(422.39 152.4)">,</text></g><g class="cls-4"><text class="cls-9" transform="translate(429 152.4)"> </text></g><g class="cls-4"><text class="cls-9" transform="translate(435.6 152.4)">direction</text></g><g class="cls-4"><text class="cls-9" transform="translate(494.99 152.4)">,</text></g><g class="cls-4"><text class="cls-9" transform="translate(501.6 152.4)"> </text></g><g class="cls-4"><text class="cls-9" transform="translate(508.2 152.4)">clip</text></g><g class="cls-4"><text class="cls-10" transform="translate(156.6 44.99)">笛卡尔坐标系</text></g><g class="cls-4"><text class="cls-10" transform="translate(156.6 77.4)">固定纵横比笛卡尔坐标系</text></g><g class="cls-4"><text class="cls-10" transform="translate(156.6 109.8)">横纵坐标翻转笛卡尔坐标系</text></g><g class="cls-4"><text class="cls-10" transform="translate(156.6 131.4)">数据转化笛卡尔坐标系</text></g><g class="cls-4"><text class="cls-10" transform="translate(156.6 152.99)">笛卡尔坐标系转换为极坐标系</text></g><g class="cls-4"><text class="cls-11" transform="translate(235.2 44.99)">默认</text></g><g class="cls-4"><text class="cls-12" transform="translate(582.6 41.4)">clip</text></g><g class="cls-4"><text class="cls-12" transform="translate(609 41.4)">:</text></g><g class="cls-4"><text class="cls-12" transform="translate(615.6 41.4)"> </text></g><g class="cls-4"><text class="cls-12" transform="translate(582.6 72.6)">direction</text></g><g class="cls-4"><text class="cls-12" transform="translate(641.99 72.6)">:</text></g><g class="cls-4"><text class="cls-12" transform="translate(648.6 72.6)"> </text></g><g class="cls-4"><text class="cls-12" transform="translate(582.6 88.19)">expand</text></g><g class="cls-4"><text class="cls-12" transform="translate(622.2 88.19)">:</text></g><g class="cls-4"><text class="cls-12" transform="translate(628.8 88.19)"> </text></g><g class="cls-4"><text class="cls-12" transform="translate(582.6 103.8)">start</text></g><g class="cls-4"><text class="cls-12" transform="translate(615.6 103.8)">:</text></g><g class="cls-4"><text class="cls-12" transform="translate(622.2 103.8)"> </text></g><g class="cls-4"><text class="cls-12" transform="translate(582.6 119.4)">theta</text></g><g class="cls-4"><text class="cls-12" transform="translate(615.6 119.4)">:</text></g><g class="cls-4"><text class="cls-12" transform="translate(622.2 119.4)"> </text></g><g class="cls-4"><text class="cls-12" transform="translate(582.6 134.99)">x</text></g><g class="cls-4"><text class="cls-12" transform="translate(589.2 134.99)">,</text></g><g class="cls-4"><text class="cls-12" transform="translate(595.8 134.99)"> </text></g><g class="cls-4"><text class="cls-12" transform="translate(602.39 134.99)">y</text></g><g class="cls-4"><text class="cls-12" transform="translate(609 134.99)">:</text></g><g class="cls-4"><text class="cls-12" transform="translate(615.6 134.99)"> </text></g><g class="cls-4"><text class="cls-12" transform="translate(582.6 150.6)">xlim</text></g><g class="cls-4"><text class="cls-12" transform="translate(609 150.6)">,</text></g><g class="cls-4"><text class="cls-12" transform="translate(615.6 150.6)"> </text></g><g class="cls-4"><text class="cls-12" transform="translate(622.2 150.6)">ylim</text></g><g class="cls-4"><text class="cls-12" transform="translate(648.6 150.6)">:</text></g><g class="cls-4"><text class="cls-12" transform="translate(655.2 150.6)"> </text></g><g class="cls-4"><text class="cls-11" transform="translate(622.2 41.4)">是否应将绘图剪裁到绘图面板的范围</text></g><g class="cls-4"><text class="cls-11" transform="translate(853.8 41.4)">开启裁剪功能</text></g><g class="cls-4"><text class="cls-11" transform="translate(582.6 57.6)">关闭该功能</text></g><g class="cls-4"><text class="cls-11" transform="translate(655.2 72.6)">指定绘图方向</text></g><g class="cls-4"><text class="cls-11" transform="translate(746.99 72.6)">表示顺时针</text></g><g class="cls-4"><text class="cls-11" transform="translate(833.4 72.6)">表示逆时针</text></g><g class="cls-4"><text class="cls-11" transform="translate(635.39 88.19)">指定是否对轴进行扩展</text></g><g class="cls-4"><text class="cls-11" transform="translate(755.39 88.19)">，</text></g><g class="cls-4"><text class="cls-11" transform="translate(767.39 88.19)">以确保数据和轴不重叠</text></g><g class="cls-4"><text class="cls-11" transform="translate(628.8 103.8)">指定绘图的起始角度</text></g><g class="cls-4"><text class="cls-11" transform="translate(749.99 103.8)">一个弧度制角度</text></g><g class="cls-4"><text class="cls-11" transform="translate(628.8 119.4)">指定极坐标要映射的轴</text></g><g class="cls-4"><text class="cls-11" transform="translate(794.99 119.4)">映射后的半径比例尺将作为</text></g><g class="cls-4"><text class="cls-11" transform="translate(945.6 119.4)">轴</text></g><g class="cls-4"><text class="cls-11" transform="translate(622.2 134.99)">指定要对横纵坐标轴使用的转换器名称</text></g><g class="cls-4"><text class="cls-11" transform="translate(661.8 150.6)">指定横纵坐标轴要显示的范围</text></g><g class="cls-4"><text class="cls-9" transform="translate(814.2 41.4)">,</text></g><g class="cls-4"><text class="cls-9" transform="translate(820.8 41.4)"> </text></g><g class="cls-4"><text class="cls-9" transform="translate(827.39 41.4)">&quot;</text></g><g class="cls-4"><text class="cls-9" transform="translate(834 41.4)">on</text></g><g class="cls-4"><text class="cls-9" transform="translate(847.2 41.4)">&quot;</text></g><g class="cls-4"><text class="cls-9" transform="translate(925.8 41.4)">,</text></g><g class="cls-4"><text class="cls-9" transform="translate(932.39 41.4)"> </text></g><g class="cls-4"><text class="cls-9" transform="translate(939 41.4)">&quot;</text></g><g class="cls-4"><text class="cls-9" transform="translate(945.6 41.4)">off</text></g><g class="cls-4"><text class="cls-9" transform="translate(965.39 41.4)">&quot;</text></g><g class="cls-4"><text class="cls-9" transform="translate(727.2 72.6)">,</text></g><g class="cls-4"><text class="cls-9" transform="translate(733.8 72.6)"> </text></g><g class="cls-4"><text class="cls-9" transform="translate(740.39 72.6)">1</text></g><g class="cls-4"><text class="cls-9" transform="translate(806.99 72.6)">,</text></g><g class="cls-4"><text class="cls-9" transform="translate(813.6 72.6)"> </text></g><g class="cls-4"><text class="cls-9" transform="translate(820.2 72.6)">-</text></g><g class="cls-4"><text class="cls-9" transform="translate(826.8 72.6)">1</text></g><g class="cls-4"><text class="cls-9" transform="translate(736.8 103.8)">,</text></g><g class="cls-4"><text class="cls-9" transform="translate(743.4 103.8)"> </text></g><g class="cls-4"><text class="cls-9" transform="translate(748.8 119.4)">(</text></g><g class="cls-4"><text class="cls-9" transform="translate(755.39 119.4)">x</text></g><g class="cls-4"><text class="cls-9" transform="translate(761.99 119.4)">/</text></g><g class="cls-4"><text class="cls-9" transform="translate(768.6 119.4)">y</text></g><g class="cls-4"><text class="cls-9" transform="translate(775.2 119.4)">),</text></g><g class="cls-4"><text class="cls-9" transform="translate(788.4 119.4)"> </text></g><g class="cls-4"><text class="cls-9" transform="translate(939 119.4)">y</text></g><line class="cls-13" x1="0.3" y1="0.3" x2="978" y2="0.3"/><line class="cls-13" x1="0.3" y1="29.1" x2="978" y2="29.1"/><line class="cls-13" x1="0.3" y1="50.7" x2="568.8" y2="50.7"/><line class="cls-13" x1="0.3" y1="72.3" x2="142.8" y2="72.3"/><line class="cls-13" x1="0.3" y1="93.9" x2="568.8" y2="93.9"/><line class="cls-13" x1="0.3" y1="115.5" x2="568.8" y2="115.5"/><line class="cls-13" x1="0.3" y1="137.1" x2="568.8" y2="137.1"/><line class="cls-13" x1="0.3" y1="158.4" x2="978" y2="158.4"/><line class="cls-13" x1="0.3" y1="0.3" x2="0.3" y2="159"/><line class="cls-13" x1="142.5" y1="0.3" x2="142.5" y2="159"/><line class="cls-13" x1="329.1" y1="0.3" x2="329.1" y2="159"/><line class="cls-13" x1="568.5" y1="0.3" x2="568.5" y2="159"/><line class="cls-13" x1="977.4" y1="0.3" x2="977.4" y2="159"/><polygon class="cls-14" points="568.2 29.4 571.2 29.4 571.2 30 568.2 30 568.2 29.4 568.2 29.4"/><polygon class="cls-14" points="568.2 30 570.6 30 570.6 30.6 568.2 30.6 568.2 30 568.2 30"/><polygon class="cls-14" points="568.2 30.6 570 30.6 570 31.2 568.2 31.2 568.2 30.6 568.2 30.6"/><polygon class="cls-14" points="568.2 31.2 569.4 31.2 569.4 31.8 568.2 31.8 568.2 31.2 568.2 31.2"/><polygon class="cls-14" points="568.2 31.8 568.8 31.8 568.8 32.4 568.2 32.4 568.2 31.8 568.2 31.8"/></g></g></svg>