<svg xmlns="http://www.w3.org/2000/svg" xmlns:xlink="http://www.w3.org/1999/xlink" viewBox="0 0 636.6 530.4"><defs><style>.cls-1,.cls-27{fill:none;}.cls-2{fill:#ebf1de;}.cls-2,.cls-3,.cls-4,.cls-5,.cls-6,.cls-7,.cls-8{fill-rule:evenodd;}.cls-4{fill:#ddd9c4;}.cls-5{fill:#e4dfec;}.cls-6{fill:#f2f2f2;}.cls-7{fill:url(#Unnamed_Pattern_18);}.cls-8{fill:#d8e4bc;}.cls-9{clip-path:url(#clip-path);}.cls-10,.cls-12,.cls-14{font-size:16.2px;}.cls-10,.cls-12,.cls-15,.cls-17,.cls-20,.cls-22{font-family:Consolas;}.cls-11,.cls-12{letter-spacing:0.01em;}.cls-13{letter-spacing:0em;}.cls-14,.cls-19{font-family:SimSun;}.cls-15,.cls-17,.cls-19,.cls-20,.cls-22{font-size:10.8px;}.cls-15,.cls-17{fill:red;}.cls-16,.cls-17{letter-spacing:0em;}.cls-18{letter-spacing:0em;}.cls-21,.cls-22{letter-spacing:0.01em;}.cls-23{letter-spacing:0em;}.cls-24{clip-path:url(#clip-path-222);}.cls-25{clip-path:url(#clip-path-223);}.cls-26{clip-path:url(#clip-path-224);}.cls-27{stroke:#000;stroke-linejoin:bevel;stroke-width:0.6px;}</style><pattern id="Unnamed_Pattern_18" data-name="Unnamed Pattern 18" width="144" height="144" patternTransform="translate(642.38 -4.71)" patternUnits="userSpaceOnUse" viewBox="0 0 144 144"><rect class="cls-1" width="144" height="144"/><polygon class="cls-2" points="0 0 144 0 144 144 0 144 0 0 0 0"/><path class="cls-3" d="M0,0H9V9H0V0ZM18,18h9v9H18V18Z"/></pattern><clipPath id="clip-path"><rect class="cls-1" x="0.6" y="0.6" width="636" height="529.8"/></clipPath><clipPath id="clip-path-222"><rect class="cls-1" x="15" y="328.8" width="56.4" height="13.2"/></clipPath><clipPath id="clip-path-223"><rect class="cls-1" x="75" y="328.8" width="56.4" height="13.2"/></clipPath><clipPath id="clip-path-224"><rect class="cls-1" x="135" y="328.8" width="56.4" height="13.2"/></clipPath></defs><title>Facet</title><g id="图层_2" data-name="图层 2"><g id="图层_1-2" data-name="图层 1"><polygon class="cls-4" points="0 0 636.6 0 636.6 25.2 0 25.2 0 0 0 0"/><polygon class="cls-4" points="0 265.2 636.6 265.2 636.6 290.4 0 290.4 0 265.2 0 265.2"/><polygon class="cls-5" points="0 24.6 206.4 24.6 206.4 49.8 0 49.8 0 24.6 0 24.6"/><polygon class="cls-5" points="205.8 24.6 636.6 24.6 636.6 49.8 205.8 49.8 205.8 24.6 205.8 24.6"/><polygon class="cls-5" points="0 289.8 220.8 289.8 220.8 315 0 315 0 289.8 0 289.8"/><polygon class="cls-5" points="220.2 289.8 636.6 289.8 636.6 315 220.2 315 220.2 289.8 220.2 289.8"/><polygon class="cls-6" points="0 49.2 15 49.2 15 63.6 0 63.6 0 49.2 0 49.2"/><polygon class="cls-6" points="14.4 49.2 72 49.2 72 63.6 14.4 63.6 14.4 49.2 14.4 49.2"/><polygon class="cls-6" points="71.4 49.2 75 49.2 75 63.6 71.4 63.6 71.4 49.2 71.4 49.2"/><polygon class="cls-6" points="74.4 49.2 132 49.2 132 63.6 74.4 63.6 74.4 49.2 74.4 49.2"/><polygon class="cls-6" points="131.4 49.2 135 49.2 135 63.6 131.4 63.6 131.4 49.2 131.4 49.2"/><polygon class="cls-6" points="134.4 49.2 192 49.2 192 63.6 134.4 63.6 134.4 49.2 134.4 49.2"/><polygon class="cls-6" points="191.4 49.2 206.4 49.2 206.4 63.6 191.4 63.6 191.4 49.2 191.4 49.2"/><polygon class="cls-6" points="0 63 15 63 15 120 0 120 0 63 0 63"/><polygon class="cls-6" points="71.4 63 75 63 75 120 71.4 120 71.4 63 71.4 63"/><polygon class="cls-6" points="131.4 63 135 63 135 120 131.4 120 131.4 63 131.4 63"/><polygon class="cls-6" points="191.4 63 206.4 63 206.4 120 191.4 120 191.4 63 191.4 63"/><polygon class="cls-6" points="0 119.4 15 119.4 15 122.4 0 122.4 0 119.4 0 119.4"/><polygon class="cls-6" points="14.4 119.4 72 119.4 72 122.4 14.4 122.4 14.4 119.4 14.4 119.4"/><polygon class="cls-6" points="71.4 119.4 75 119.4 75 122.4 71.4 122.4 71.4 119.4 71.4 119.4"/><polygon class="cls-6" points="74.4 119.4 132 119.4 132 122.4 74.4 122.4 74.4 119.4 74.4 119.4"/><polygon class="cls-6" points="131.4 119.4 135 119.4 135 122.4 131.4 122.4 131.4 119.4 131.4 119.4"/><polygon class="cls-6" points="134.4 119.4 192 119.4 192 122.4 134.4 122.4 134.4 119.4 134.4 119.4"/><polygon class="cls-6" points="191.4 119.4 206.4 119.4 206.4 122.4 191.4 122.4 191.4 119.4 191.4 119.4"/><polygon class="cls-6" points="0 121.8 15 121.8 15 178.8 0 178.8 0 121.8 0 121.8"/><polygon class="cls-6" points="71.4 121.8 75 121.8 75 178.8 71.4 178.8 71.4 121.8 71.4 121.8"/><polygon class="cls-6" points="131.4 121.8 135 121.8 135 178.8 131.4 178.8 131.4 121.8 131.4 121.8"/><polygon class="cls-6" points="191.4 121.8 206.4 121.8 206.4 178.8 191.4 178.8 191.4 121.8 191.4 121.8"/><polygon class="cls-6" points="0 178.2 15 178.2 15 181.2 0 181.2 0 178.2 0 178.2"/><polygon class="cls-6" points="14.4 178.2 72 178.2 72 181.2 14.4 181.2 14.4 178.2 14.4 178.2"/><polygon class="cls-6" points="71.4 178.2 75 178.2 75 181.2 71.4 181.2 71.4 178.2 71.4 178.2"/><polygon class="cls-6" points="74.4 178.2 132 178.2 132 181.2 74.4 181.2 74.4 178.2 74.4 178.2"/><polygon class="cls-6" points="131.4 178.2 135 178.2 135 181.2 131.4 181.2 131.4 178.2 131.4 178.2"/><polygon class="cls-6" points="134.4 178.2 192 178.2 192 181.2 134.4 181.2 134.4 178.2 134.4 178.2"/><polygon class="cls-6" points="191.4 178.2 206.4 178.2 206.4 181.2 191.4 181.2 191.4 178.2 191.4 178.2"/><polygon class="cls-6" points="0 180.6 15 180.6 15 237.6 0 237.6 0 180.6 0 180.6"/><polygon class="cls-6" points="71.4 180.6 75 180.6 75 237.6 71.4 237.6 71.4 180.6 71.4 180.6"/><polygon class="cls-6" points="131.4 180.6 135 180.6 135 237.6 131.4 237.6 131.4 180.6 131.4 180.6"/><polygon class="cls-6" points="191.4 180.6 206.4 180.6 206.4 237.6 191.4 237.6 191.4 180.6 191.4 180.6"/><polygon class="cls-6" points="0 237 15 237 15 251.4 0 251.4 0 237 0 237"/><polygon class="cls-6" points="14.4 237 72 237 72 251.4 14.4 251.4 14.4 237 14.4 237"/><polygon class="cls-6" points="71.4 237 75 237 75 251.4 71.4 251.4 71.4 237 71.4 237"/><polygon class="cls-6" points="74.4 237 132 237 132 251.4 74.4 251.4 74.4 237 74.4 237"/><polygon class="cls-6" points="131.4 237 135 237 135 251.4 131.4 251.4 131.4 237 131.4 237"/><polygon class="cls-6" points="134.4 237 192 237 192 251.4 134.4 251.4 134.4 237 134.4 237"/><polygon class="cls-6" points="191.4 237 206.4 237 206.4 251.4 191.4 251.4 191.4 237 191.4 237"/><polygon class="cls-6" points="0 250.8 636.6 250.8 636.6 265.8 0 265.8 0 250.8 0 250.8"/><polygon class="cls-6" points="0 314.4 15 314.4 15 328.8 0 328.8 0 314.4 0 314.4"/><polygon class="cls-6" points="14.4 314.4 72 314.4 72 328.8 14.4 328.8 14.4 314.4 14.4 314.4"/><polygon class="cls-6" points="71.4 314.4 75 314.4 75 328.8 71.4 328.8 71.4 314.4 71.4 314.4"/><polygon class="cls-6" points="74.4 314.4 132 314.4 132 328.8 74.4 328.8 74.4 314.4 74.4 314.4"/><polygon class="cls-6" points="131.4 314.4 135 314.4 135 328.8 131.4 328.8 131.4 314.4 131.4 314.4"/><polygon class="cls-6" points="134.4 314.4 192 314.4 192 328.8 134.4 328.8 134.4 314.4 134.4 314.4"/><polygon class="cls-6" points="191.4 314.4 206.4 314.4 206.4 328.8 191.4 328.8 191.4 314.4 191.4 314.4"/><polygon class="cls-6" points="205.8 314.4 220.8 314.4 220.8 328.8 205.8 328.8 205.8 314.4 205.8 314.4"/><polygon class="cls-6" points="0 328.2 15 328.2 15 342.6 0 342.6 0 328.2 0 328.2"/><polygon class="cls-6" points="71.4 328.2 75 328.2 75 342.6 71.4 342.6 71.4 328.2 71.4 328.2"/><polygon class="cls-6" points="131.4 328.2 135 328.2 135 342.6 131.4 342.6 131.4 328.2 131.4 328.2"/><polygon class="cls-6" points="191.4 328.2 206.4 328.2 206.4 342.6 191.4 342.6 191.4 328.2 191.4 328.2"/><polygon class="cls-6" points="205.8 328.2 220.8 328.2 220.8 342.6 205.8 342.6 205.8 328.2 205.8 328.2"/><polygon class="cls-6" points="0 342 15 342 15 399 0 399 0 342 0 342"/><polygon class="cls-6" points="71.4 342 75 342 75 399 71.4 399 71.4 342 71.4 342"/><polygon class="cls-6" points="131.4 342 135 342 135 399 131.4 399 131.4 342 131.4 342"/><polygon class="cls-6" points="205.8 342 220.8 342 220.8 399 205.8 399 205.8 342 205.8 342"/><polygon class="cls-6" points="0 398.4 15 398.4 15 401.4 0 401.4 0 398.4 0 398.4"/><polygon class="cls-6" points="14.4 398.4 72 398.4 72 401.4 14.4 401.4 14.4 398.4 14.4 398.4"/><polygon class="cls-6" points="71.4 398.4 75 398.4 75 401.4 71.4 401.4 71.4 398.4 71.4 398.4"/><polygon class="cls-6" points="74.4 398.4 132 398.4 132 401.4 74.4 401.4 74.4 398.4 74.4 398.4"/><polygon class="cls-6" points="131.4 398.4 135 398.4 135 401.4 131.4 401.4 131.4 398.4 131.4 398.4"/><polygon class="cls-6" points="134.4 398.4 192 398.4 192 401.4 134.4 401.4 134.4 398.4 134.4 398.4"/><polygon class="cls-6" points="191.4 398.4 206.4 398.4 206.4 401.4 191.4 401.4 191.4 398.4 191.4 398.4"/><polygon class="cls-6" points="205.8 398.4 220.8 398.4 220.8 401.4 205.8 401.4 205.8 398.4 205.8 398.4"/><polygon class="cls-6" points="0 400.8 15 400.8 15 457.8 0 457.8 0 400.8 0 400.8"/><polygon class="cls-6" points="71.4 400.8 75 400.8 75 457.8 71.4 457.8 71.4 400.8 71.4 400.8"/><polygon class="cls-6" points="131.4 400.8 135 400.8 135 457.8 131.4 457.8 131.4 400.8 131.4 400.8"/><polygon class="cls-6" points="205.8 400.8 220.8 400.8 220.8 457.8 205.8 457.8 205.8 400.8 205.8 400.8"/><polygon class="cls-6" points="0 457.2 15 457.2 15 460.2 0 460.2 0 457.2 0 457.2"/><polygon class="cls-6" points="14.4 457.2 72 457.2 72 460.2 14.4 460.2 14.4 457.2 14.4 457.2"/><polygon class="cls-6" points="71.4 457.2 75 457.2 75 460.2 71.4 460.2 71.4 457.2 71.4 457.2"/><polygon class="cls-6" points="74.4 457.2 132 457.2 132 460.2 74.4 460.2 74.4 457.2 74.4 457.2"/><polygon class="cls-6" points="131.4 457.2 135 457.2 135 460.2 131.4 460.2 131.4 457.2 131.4 457.2"/><polygon class="cls-6" points="134.4 457.2 192 457.2 192 460.2 134.4 460.2 134.4 457.2 134.4 457.2"/><polygon class="cls-6" points="191.4 457.2 206.4 457.2 206.4 460.2 191.4 460.2 191.4 457.2 191.4 457.2"/><polygon class="cls-6" points="205.8 457.2 220.8 457.2 220.8 460.2 205.8 460.2 205.8 457.2 205.8 457.2"/><polygon class="cls-6" points="0 459.6 15 459.6 15 516.6 0 516.6 0 459.6 0 459.6"/><polygon class="cls-6" points="71.4 459.6 75 459.6 75 516.6 71.4 516.6 71.4 459.6 71.4 459.6"/><polygon class="cls-6" points="131.4 459.6 135 459.6 135 516.6 131.4 516.6 131.4 459.6 131.4 459.6"/><polygon class="cls-6" points="205.8 459.6 220.8 459.6 220.8 516.6 205.8 516.6 205.8 459.6 205.8 459.6"/><polygon class="cls-6" points="0 516 15 516 15 530.4 0 530.4 0 516 0 516"/><polygon class="cls-6" points="14.4 516 72 516 72 530.4 14.4 530.4 14.4 516 14.4 516"/><polygon class="cls-6" points="71.4 516 75 516 75 530.4 71.4 530.4 71.4 516 71.4 516"/><polygon class="cls-6" points="74.4 516 132 516 132 530.4 74.4 530.4 74.4 516 74.4 516"/><polygon class="cls-6" points="131.4 516 135 516 135 530.4 131.4 530.4 131.4 516 131.4 516"/><polygon class="cls-6" points="134.4 516 192 516 192 530.4 134.4 530.4 134.4 516 134.4 516"/><polygon class="cls-6" points="191.4 516 206.4 516 206.4 530.4 191.4 530.4 191.4 516 191.4 516"/><polygon class="cls-6" points="205.8 516 220.8 516 220.8 530.4 205.8 530.4 205.8 516 205.8 516"/><polygon class="cls-2" points="205.8 49.2 636.6 49.2 636.6 251.4 205.8 251.4 205.8 49.2 205.8 49.2"/><polygon class="cls-2" points="220.2 314.4 636.6 314.4 636.6 530.4 220.2 530.4 220.2 314.4 220.2 314.4"/><polygon class="cls-7" points="14.4 63 72 63 72 120 14.4 120 14.4 63 14.4 63"/><polygon class="cls-7" points="74.4 63 132 63 132 120 74.4 120 74.4 63 74.4 63"/><polygon class="cls-7" points="134.4 63 192 63 192 120 134.4 120 134.4 63 134.4 63"/><polygon class="cls-7" points="14.4 121.8 72 121.8 72 178.8 14.4 178.8 14.4 121.8 14.4 121.8"/><polygon class="cls-7" points="74.4 121.8 132 121.8 132 178.8 74.4 178.8 74.4 121.8 74.4 121.8"/><polygon class="cls-7" points="134.4 121.8 192 121.8 192 178.8 134.4 178.8 134.4 121.8 134.4 121.8"/><polygon class="cls-7" points="14.4 180.6 72 180.6 72 237.6 14.4 237.6 14.4 180.6 14.4 180.6"/><polygon class="cls-7" points="74.4 180.6 132 180.6 132 237.6 74.4 237.6 74.4 180.6 74.4 180.6"/><polygon class="cls-7" points="134.4 180.6 192 180.6 192 237.6 134.4 237.6 134.4 180.6 134.4 180.6"/><polygon class="cls-7" points="14.4 342 72 342 72 399 14.4 399 14.4 342 14.4 342"/><polygon class="cls-7" points="74.4 342 132 342 132 399 74.4 399 74.4 342 74.4 342"/><polygon class="cls-7" points="134.4 342 192 342 192 399 134.4 399 134.4 342 134.4 342"/><polygon class="cls-7" points="14.4 400.8 72 400.8 72 457.8 14.4 457.8 14.4 400.8 14.4 400.8"/><polygon class="cls-7" points="74.4 400.8 132 400.8 132 457.8 74.4 457.8 74.4 400.8 74.4 400.8"/><polygon class="cls-7" points="134.4 400.8 192 400.8 192 457.8 134.4 457.8 134.4 400.8 134.4 400.8"/><polygon class="cls-7" points="14.4 459.6 72 459.6 72 516.6 14.4 516.6 14.4 459.6 14.4 459.6"/><polygon class="cls-7" points="74.4 459.6 132 459.6 132 516.6 74.4 516.6 74.4 459.6 74.4 459.6"/><polygon class="cls-7" points="134.4 459.6 192 459.6 192 516.6 134.4 516.6 134.4 459.6 134.4 459.6"/><polygon class="cls-8" points="14.4 328.2 72 328.2 72 342.6 14.4 342.6 14.4 328.2 14.4 328.2"/><polygon class="cls-8" points="74.4 328.2 132 328.2 132 342.6 74.4 342.6 74.4 328.2 74.4 328.2"/><polygon class="cls-8" points="134.4 328.2 192 328.2 192 342.6 134.4 342.6 134.4 328.2 134.4 328.2"/><polygon class="cls-8" points="191.4 342 206.4 342 206.4 399 191.4 399 191.4 342 191.4 342"/><polygon class="cls-8" points="191.4 400.8 206.4 400.8 206.4 457.8 191.4 457.8 191.4 400.8 191.4 400.8"/><polygon class="cls-8" points="191.4 459.6 206.4 459.6 206.4 516.6 191.4 516.6 191.4 459.6 191.4 459.6"/><g class="cls-9"><text class="cls-10" transform="translate(242.41 18.6)"><tspan class="cls-11">face</tspan><tspan x="35.95" y="0">t</tspan></text></g><g class="cls-9"><text class="cls-10" transform="translate(287.41 18.6)">_</text></g><g class="cls-9"><text class="cls-12" transform="translate(296.41 18.6)">wra<tspan class="cls-13" x="26.96" y="0">p</tspan></text></g><g class="cls-9"><text class="cls-10" transform="translate(332.41 18.6)">(</text></g><g class="cls-9"><text class="cls-10" transform="translate(341.41 18.6)"> </text></g><g class="cls-9"><text class="cls-10" transform="translate(350.41 18.6)"><tspan class="cls-11">..</tspan><tspan x="17.98" y="0">.</tspan></text></g><g class="cls-9"><text class="cls-10" transform="translate(377.41 18.6)"> </text></g><g class="cls-9"><text class="cls-10" transform="translate(386.41 18.6)">)</text></g><g class="cls-9"><text class="cls-10" transform="translate(242.41 283.79)"><tspan class="cls-11">face</tspan><tspan x="35.95" y="0">t</tspan></text></g><g class="cls-9"><text class="cls-10" transform="translate(287.41 283.79)">_</text></g><g class="cls-9"><text class="cls-12" transform="translate(296.41 283.79)">gri<tspan class="cls-13" x="26.96" y="0">d</tspan></text></g><g class="cls-9"><text class="cls-10" transform="translate(332.41 283.79)">(</text></g><g class="cls-9"><text class="cls-10" transform="translate(341.41 283.79)"> </text></g><g class="cls-9"><text class="cls-10" transform="translate(350.41 283.79)"><tspan class="cls-11">..</tspan><tspan x="17.98" y="0">.</tspan></text></g><g class="cls-9"><text class="cls-10" transform="translate(377.41 283.79)"> </text></g><g class="cls-9"><text class="cls-10" transform="translate(386.41 283.79)">)</text></g><g class="cls-9"><text class="cls-14" transform="translate(87.6 44.4)">形式</text></g><g class="cls-9"><text class="cls-14" transform="translate(389.41 44.4)">常用参数</text></g><g class="cls-9"><text class="cls-14" transform="translate(396.6 309.59)">常用参数</text></g><g class="cls-9"><text class="cls-15" transform="translate(220.2 96.61)"><tspan class="cls-16">facet</tspan><tspan x="29.96" y="0">s</tspan></text></g><g class="cls-9"><text class="cls-15" transform="translate(256.2 96.61)">:</text></g><g class="cls-9"><text class="cls-15" transform="translate(262.2 96.61)"> </text></g><g class="cls-9"><text class="cls-15" transform="translate(220.2 125.4)"><tspan class="cls-16">nro</tspan><tspan x="17.98" y="0">w</tspan></text></g><g class="cls-9"><text class="cls-15" transform="translate(244.2 125.4)">,</text></g><g class="cls-9"><text class="cls-15" transform="translate(250.2 125.4)"> </text></g><g class="cls-9"><text class="cls-15" transform="translate(256.2 125.4)"><tspan class="cls-16">nco</tspan><tspan x="17.98" y="0">l</tspan></text></g><g class="cls-9"><text class="cls-15" transform="translate(280.2 125.4)">:</text></g><g class="cls-9"><text class="cls-15" transform="translate(286.2 125.4)"> </text></g><g class="cls-9"><text class="cls-15" transform="translate(220.2 139.81)"><tspan class="cls-16">scale</tspan><tspan x="29.96" y="0">s</tspan></text></g><g class="cls-9"><text class="cls-15" transform="translate(256.2 139.81)">:</text></g><g class="cls-9"><text class="cls-15" transform="translate(262.2 139.81)"> </text></g><g class="cls-9"><text class="cls-15" transform="translate(220.2 168.61)"><tspan class="cls-16">dro</tspan><tspan x="17.98" y="0">p</tspan></text></g><g class="cls-9"><text class="cls-15" transform="translate(244.2 168.61)">:</text></g><g class="cls-9"><text class="cls-15" transform="translate(250.2 168.61)"> </text></g><g class="cls-9"><text class="cls-15" transform="translate(220.2 183.01)"><tspan class="cls-16">di</tspan><tspan x="11.98" y="0">r</tspan></text></g><g class="cls-9"><text class="cls-15" transform="translate(238.2 183.01)">:</text></g><g class="cls-9"><text class="cls-15" transform="translate(244.2 183.01)"> </text></g><g class="cls-9"><text class="cls-15" transform="translate(220.2 197.4)"><tspan class="cls-16">stri</tspan><tspan x="23.97" y="0">p</tspan></text></g><g class="cls-9"><text class="cls-15" transform="translate(250.2 197.4)">.</text></g><g class="cls-9"><text class="cls-17" transform="translate(256.2 197.4)">positio<tspan class="cls-18" x="41.94" y="0">n</tspan></text></g><g class="cls-9"><text class="cls-15" transform="translate(304.2 197.4)">:</text></g><g class="cls-9"><text class="cls-15" transform="translate(310.2 197.4)"> </text></g><g class="cls-9"><text class="cls-15" transform="translate(234.6 361.8)"><tspan class="cls-16">row</tspan><tspan x="17.98" y="0">s</tspan></text></g><g class="cls-9"><text class="cls-15" transform="translate(258.6 361.8)">,</text></g><g class="cls-9"><text class="cls-15" transform="translate(264.6 361.8)"> </text></g><g class="cls-9"><text class="cls-15" transform="translate(270.6 361.8)"><tspan class="cls-16">col</tspan><tspan x="17.98" y="0">s</tspan></text></g><g class="cls-9"><text class="cls-15" transform="translate(294.6 361.8)">:</text></g><g class="cls-9"><text class="cls-15" transform="translate(300.6 361.8)"> </text></g><g class="cls-9"><text class="cls-15" transform="translate(234.6 390.6)"><tspan class="cls-16">scale</tspan><tspan x="29.96" y="0">s</tspan></text></g><g class="cls-9"><text class="cls-15" transform="translate(270.6 390.6)">:</text></g><g class="cls-9"><text class="cls-15" transform="translate(276.6 390.6)"> </text></g><g class="cls-9"><text class="cls-15" transform="translate(234.6 419.41)"><tspan class="cls-16">spac</tspan><tspan x="23.97" y="0">e</tspan></text></g><g class="cls-9"><text class="cls-15" transform="translate(264.6 419.41)">:</text></g><g class="cls-9"><text class="cls-15" transform="translate(270.6 419.41)"> </text></g><g class="cls-9"><text class="cls-15" transform="translate(234.6 448.21)"><tspan class="cls-16">dro</tspan><tspan x="17.98" y="0">p</tspan></text></g><g class="cls-9"><text class="cls-15" transform="translate(258.6 448.21)">:</text></g><g class="cls-9"><text class="cls-15" transform="translate(264.6 448.21)"> </text></g><g class="cls-9"><text class="cls-15" transform="translate(234.6 462.61)"><tspan class="cls-16">switc</tspan><tspan x="29.96" y="0">h</tspan></text></g><g class="cls-9"><text class="cls-15" transform="translate(270.6 462.61)">:</text></g><g class="cls-9"><text class="cls-15" transform="translate(276.6 462.61)"> </text></g><g class="cls-9"><text class="cls-15" transform="translate(234.6 491.4)"><tspan class="cls-16">margin</tspan><tspan x="35.95" y="0">s</tspan></text></g><g class="cls-9"><text class="cls-15" transform="translate(276.6 491.4)">:</text></g><g class="cls-9"><text class="cls-15" transform="translate(282.6 491.4)"> </text></g><g class="cls-9"><text class="cls-19" transform="translate(268.2 96.61)">指定分面参考数据</text></g><g class="cls-9"><text class="cls-19" transform="translate(366.6 96.61)">可通过</text></g><g class="cls-9"><text class="cls-19" transform="translate(453 96.61)">进行设置</text></g><g class="cls-9"><text class="cls-19" transform="translate(508.2 96.61)">亦可通过单侧</text></g><g class="cls-9"><text class="cls-19" transform="translate(615.01 96.61)">形</text></g><g class="cls-9"><text class="cls-19" transform="translate(220.2 111.61)">式</text></g><g class="cls-9"><text class="cls-19" transform="translate(267.01 111.61)">指定</text></g><g class="cls-9"><text class="cls-19" transform="translate(292.2 125.4)">指定分面行数或列数</text></g><g class="cls-9"><text class="cls-19" transform="translate(268.2 139.81)">指定各分面的坐标轴标度</text></g><g class="cls-9"><text class="cls-19" transform="translate(441.01 139.81)">所有面板统一</text></g><g class="cls-9"><text class="cls-19" transform="translate(553.8 139.81)">横纵皆可自由变</text></g><g class="cls-9"><text class="cls-19" transform="translate(220.2 154.81)">换</text></g><g class="cls-9"><text class="cls-19" transform="translate(303 154.81)">仅横或纵轴可变</text></g><g class="cls-9"><text class="cls-19" transform="translate(256.2 168.61)">指定是否删除未在数据中使用的所有默认因子水平</text></g><g class="cls-9"><text class="cls-19" transform="translate(250.2 183.01)">指定各分面的排列方向</text></g><g class="cls-9"><text class="cls-19" transform="translate(388.2 183.01)">水平排列</text></g><g class="cls-9"><text class="cls-19" transform="translate(461.41 183.01)">竖直排列</text></g><g class="cls-9"><text class="cls-19" transform="translate(316.2 197.4)">指定分面标签的位置</text></g><g class="cls-9"><text class="cls-19" transform="translate(425.41 197.4)">可选</text></g><g class="cls-9"><text class="cls-20" transform="translate(354.6 96.61)">,</text></g><g class="cls-9"><text class="cls-20" transform="translate(360.6 96.61)"> </text></g><g class="cls-9"><text class="cls-20" transform="translate(399 96.61)"><tspan class="cls-21">var</tspan><tspan x="17.98" y="0">s</tspan></text></g><g class="cls-9"><text class="cls-20" transform="translate(423 96.61)"><tspan class="cls-21">(...</tspan><tspan x="23.97" y="0">)</tspan></text></g><g class="cls-9"><text class="cls-20" transform="translate(496.2 96.61)">,</text></g><g class="cls-9"><text class="cls-20" transform="translate(502.2 96.61)"> </text></g><g class="cls-9"><text class="cls-22" transform="translate(573 96.61)">formul<tspan class="cls-23" x="35.95" y="0">a</tspan></text></g><g class="cls-9"><text class="cls-20" transform="translate(231.01 111)"><tspan class="cls-16">(</tspan><tspan x="5.99" y="0">~</tspan></text></g><g class="cls-9"><text class="cls-20" transform="translate(243 111)"><tspan class="cls-16">xx</tspan><tspan x="11.98" y="0">x</tspan></text></g><g class="cls-9"><text class="cls-20" transform="translate(261.01 111)">)</text></g><g class="cls-9"><text class="cls-20" transform="translate(387.01 139.81)">,</text></g><g class="cls-9"><text class="cls-20" transform="translate(393 139.81)"> </text></g><g class="cls-9"><text class="cls-20" transform="translate(399 139.81)">&quot;</text></g><g class="cls-9"><text class="cls-20" transform="translate(405.01 139.81)"><tspan class="cls-21">fixe</tspan><tspan x="23.97" y="0">d</tspan></text></g><g class="cls-9"><text class="cls-20" transform="translate(435.01 139.81)">&quot;</text></g><g class="cls-9"><text class="cls-20" transform="translate(505.8 139.81)">,</text></g><g class="cls-9"><text class="cls-20" transform="translate(511.8 139.81)"> </text></g><g class="cls-9"><text class="cls-20" transform="translate(517.8 139.81)">&quot;</text></g><g class="cls-9"><text class="cls-20" transform="translate(523.8 139.81)"><tspan class="cls-21">fre</tspan><tspan x="17.98" y="0">e</tspan></text></g><g class="cls-9"><text class="cls-20" transform="translate(547.8 139.81)">&quot;</text></g><g class="cls-9"><text class="cls-20" transform="translate(231.01 154.2)">,</text></g><g class="cls-9"><text class="cls-20" transform="translate(237.01 154.2)"> </text></g><g class="cls-9"><text class="cls-20" transform="translate(243 154.2)">&quot;</text></g><g class="cls-9"><text class="cls-20" transform="translate(249 154.2)"><tspan class="cls-16">fre</tspan><tspan x="17.98" y="0">e</tspan></text></g><g class="cls-9"><text class="cls-20" transform="translate(273 154.2)">_</text></g><g class="cls-9"><text class="cls-20" transform="translate(279 154.2)">x</text></g><g class="cls-9"><text class="cls-20" transform="translate(285.01 154.2)">/</text></g><g class="cls-9"><text class="cls-20" transform="translate(291.01 154.2)">y</text></g><g class="cls-9"><text class="cls-20" transform="translate(297.01 154.2)">&quot;</text></g><g class="cls-9"><text class="cls-20" transform="translate(358.2 183.01)">,</text></g><g class="cls-9"><text class="cls-20" transform="translate(364.2 183.01)"> </text></g><g class="cls-9"><text class="cls-20" transform="translate(370.2 183.01)">&quot;</text></g><g class="cls-9"><text class="cls-20" transform="translate(376.2 183.01)">h</text></g><g class="cls-9"><text class="cls-20" transform="translate(382.2 183.01)">&quot;</text></g><g class="cls-9"><text class="cls-20" transform="translate(431.41 183.01)">,</text></g><g class="cls-9"><text class="cls-20" transform="translate(437.4 183.01)"> </text></g><g class="cls-9"><text class="cls-20" transform="translate(443.4 183.01)">&quot;</text></g><g class="cls-9"><text class="cls-20" transform="translate(449.41 183.01)">v</text></g><g class="cls-9"><text class="cls-20" transform="translate(455.41 183.01)">&quot;</text></g><g class="cls-9"><text class="cls-20" transform="translate(413.4 197.4)">,</text></g><g class="cls-9"><text class="cls-20" transform="translate(419.41 197.4)"> </text></g><g class="cls-9"><text class="cls-20" transform="translate(447.01 197.4)"><tspan class="cls-21">(</tspan><tspan x="5.99" y="0">&quot;</tspan></text></g><g class="cls-9"><text class="cls-22" transform="translate(459 197.4)">to<tspan class="cls-23" x="11.98" y="0">p</tspan></text></g><g class="cls-9"><text class="cls-20" transform="translate(477.01 197.4)"><tspan class="cls-21">&quot;</tspan><tspan x="5.99" y="0">,</tspan></text></g><g class="cls-9"><text class="cls-20" transform="translate(489 197.4)"> </text></g><g class="cls-9"><text class="cls-20" transform="translate(495.01 197.4)">&quot;</text></g><g class="cls-9"><text class="cls-22" transform="translate(501.01 197.4)">botto<tspan class="cls-23" x="29.96" y="0">m</tspan></text></g><g class="cls-9"><text class="cls-20" transform="translate(537.01 197.4)"><tspan class="cls-21">&quot;</tspan><tspan x="5.99" y="0">,</tspan></text></g><g class="cls-9"><text class="cls-20" transform="translate(549 197.4)"> </text></g><g class="cls-9"><text class="cls-20" transform="translate(555.01 197.4)">&quot;</text></g><g class="cls-9"><text class="cls-20" transform="translate(561.01 197.4)"><tspan class="cls-21">lef</tspan><tspan x="17.98" y="0">t</tspan></text></g><g class="cls-9"><text class="cls-20" transform="translate(585.01 197.4)"><tspan class="cls-21">&quot;</tspan><tspan x="5.99" y="0">,</tspan></text></g><g class="cls-9"><text class="cls-20" transform="translate(597.01 197.4)"> </text></g><g class="cls-9"><text class="cls-20" transform="translate(220.2 211.8)">&quot;</text></g><g class="cls-9"><text class="cls-20" transform="translate(226.2 211.8)"><tspan class="cls-16">righ</tspan><tspan x="23.97" y="0">t</tspan></text></g><g class="cls-9"><text class="cls-20" transform="translate(256.2 211.8)"><tspan class="cls-16">&quot;</tspan><tspan x="5.99" y="0">)</tspan></text></g><g class="cls-9"><text class="cls-20" transform="translate(40.8 95.4)">A</text></g><g class="cls-9"><text class="cls-20" transform="translate(100.8 95.4)">B</text></g><g class="cls-9"><text class="cls-20" transform="translate(160.8 95.4)">C</text></g><g class="cls-9"><text class="cls-20" transform="translate(40.8 154.2)">D</text></g><g class="cls-9"><text class="cls-20" transform="translate(100.8 154.2)">E</text></g><g class="cls-9"><text class="cls-20" transform="translate(160.8 154.2)">F</text></g><g class="cls-9"><text class="cls-20" transform="translate(40.8 213.01)">G</text></g><g class="cls-9"><text class="cls-20" transform="translate(100.8 213.01)">H</text></g><g class="cls-9"><text class="cls-20" transform="translate(154.8 213.01)"><tspan class="cls-16">..</tspan><tspan x="11.98" y="0">.</tspan></text></g><g class="cls-9"><text class="cls-20" transform="translate(414.6 361.8)">,</text></g><g class="cls-9"><text class="cls-20" transform="translate(420.6 361.8)"> </text></g><g class="cls-9"><text class="cls-20" transform="translate(459 361.8)"><tspan class="cls-21">var</tspan><tspan x="17.98" y="0">s</tspan></text></g><g class="cls-9"><text class="cls-20" transform="translate(483 361.8)"><tspan class="cls-21">(...</tspan><tspan x="23.97" y="0">)</tspan></text></g><g class="cls-9"><text class="cls-20" transform="translate(556.2 361.8)">,</text></g><g class="cls-9"><text class="cls-20" transform="translate(562.2 361.8)"> </text></g><g class="cls-9"><text class="cls-20" transform="translate(234.6 376.21)"><tspan class="cls-16">formul</tspan><tspan x="35.95" y="0">a</tspan></text></g><g class="cls-9"><text class="cls-20" transform="translate(298.2 376.21)">(</text></g><g class="cls-9"><text class="cls-22" transform="translate(325.8 376.21)">[.<tspan class="cls-23" x="11.98" y="0">~</tspan></text></g><g class="cls-9"><text class="cls-22" transform="translate(343.8 376.21)">xx<tspan class="cls-23" x="11.98" y="0">x</tspan></text></g><g class="cls-9"><text class="cls-20" transform="translate(361.8 376.21)">]</text></g><g class="cls-9"><text class="cls-20" transform="translate(411.01 376.21)">[</text></g><g class="cls-9"><text class="cls-22" transform="translate(417.01 376.21)">xx<tspan class="cls-23" x="11.98" y="0">x</tspan></text></g><g class="cls-9"><text class="cls-22" transform="translate(435.01 376.21)">~.<tspan class="cls-23" x="11.98" y="0">]</tspan></text></g><g class="cls-9"><text class="cls-20" transform="translate(485.41 376.21)">[</text></g><g class="cls-9"><text class="cls-22" transform="translate(491.41 376.21)">xx<tspan class="cls-23" x="11.98" y="0">x</tspan></text></g><g class="cls-9"><text class="cls-20" transform="translate(509.41 376.21)">~</text></g><g class="cls-9"><text class="cls-22" transform="translate(515.41 376.21)">xx<tspan class="cls-23" x="11.98" y="0">x</tspan></text></g><g class="cls-9"><text class="cls-20" transform="translate(533.4 376.21)"><tspan class="cls-21">]</tspan><tspan x="5.99" y="0">)</tspan></text></g><g class="cls-9"><text class="cls-20" transform="translate(401.41 390.6)">,</text></g><g class="cls-9"><text class="cls-20" transform="translate(407.4 390.6)"> </text></g><g class="cls-9"><text class="cls-20" transform="translate(413.4 390.6)">&quot;</text></g><g class="cls-9"><text class="cls-20" transform="translate(419.41 390.6)"><tspan class="cls-21">fixe</tspan><tspan x="23.97" y="0">d</tspan></text></g><g class="cls-9"><text class="cls-20" transform="translate(449.41 390.6)">&quot;</text></g><g class="cls-9"><text class="cls-20" transform="translate(520.2 390.6)">,</text></g><g class="cls-9"><text class="cls-20" transform="translate(526.2 390.6)"> </text></g><g class="cls-9"><text class="cls-20" transform="translate(532.2 390.6)">&quot;</text></g><g class="cls-9"><text class="cls-20" transform="translate(538.2 390.6)"><tspan class="cls-21">fre</tspan><tspan x="17.98" y="0">e</tspan></text></g><g class="cls-9"><text class="cls-20" transform="translate(562.2 390.6)">&quot;</text></g><g class="cls-9"><text class="cls-20" transform="translate(256.2 405.01)">,</text></g><g class="cls-9"><text class="cls-20" transform="translate(262.2 405.01)"> </text></g><g class="cls-9"><text class="cls-20" transform="translate(268.2 405.01)">&quot;</text></g><g class="cls-9"><text class="cls-20" transform="translate(274.2 405.01)"><tspan class="cls-16">fre</tspan><tspan x="17.98" y="0">e</tspan></text></g><g class="cls-9"><text class="cls-20" transform="translate(298.2 405.01)">_</text></g><g class="cls-9"><text class="cls-20" transform="translate(304.2 405.01)">x</text></g><g class="cls-9"><text class="cls-20" transform="translate(310.2 405.01)">/</text></g><g class="cls-9"><text class="cls-20" transform="translate(316.2 405.01)">y</text></g><g class="cls-9"><text class="cls-20" transform="translate(322.2 405.01)">&quot;</text></g><g class="cls-9"><text class="cls-20" transform="translate(384.6 419.41)">,</text></g><g class="cls-9"><text class="cls-20" transform="translate(390.6 419.41)"> </text></g><g class="cls-9"><text class="cls-20" transform="translate(396.6 419.41)">&quot;</text></g><g class="cls-9"><text class="cls-20" transform="translate(402.6 419.41)"><tspan class="cls-21">fixe</tspan><tspan x="23.97" y="0">d</tspan></text></g><g class="cls-9"><text class="cls-20" transform="translate(432.6 419.41)">&quot;</text></g><g class="cls-9"><text class="cls-20" transform="translate(503.4 419.41)">,</text></g><g class="cls-9"><text class="cls-20" transform="translate(509.41 419.41)"> </text></g><g class="cls-9"><text class="cls-20" transform="translate(515.41 419.41)">&quot;</text></g><g class="cls-9"><text class="cls-20" transform="translate(521.41 419.41)"><tspan class="cls-21">fre</tspan><tspan x="17.98" y="0">e</tspan></text></g><g class="cls-9"><text class="cls-20" transform="translate(545.41 419.41)">&quot;</text></g><g class="cls-9"><text class="cls-20" transform="translate(616.2 419.41)">,</text></g><g class="cls-9"><text class="cls-20" transform="translate(622.2 419.41)"> </text></g><g class="cls-9"><text class="cls-20" transform="translate(234.6 433.8)">&quot;</text></g><g class="cls-9"><text class="cls-20" transform="translate(240.6 433.8)"><tspan class="cls-16">fre</tspan><tspan x="17.98" y="0">e</tspan></text></g><g class="cls-9"><text class="cls-20" transform="translate(264.6 433.8)">_</text></g><g class="cls-9"><text class="cls-20" transform="translate(270.6 433.8)">x</text></g><g class="cls-9"><text class="cls-20" transform="translate(276.6 433.8)">/</text></g><g class="cls-9"><text class="cls-20" transform="translate(282.6 433.8)">y</text></g><g class="cls-9"><text class="cls-20" transform="translate(288.6 433.8)">&quot;</text></g><g class="cls-9"><text class="cls-20" transform="translate(498.6 462.61)">,</text></g><g class="cls-9"><text class="cls-20" transform="translate(504.6 462.61)"> </text></g><g class="cls-9"><text class="cls-20" transform="translate(510.6 462.61)">&quot;</text></g><g class="cls-9"><text class="cls-20" transform="translate(516.6 462.61)">x</text></g><g class="cls-9"><text class="cls-20" transform="translate(522.6 462.61)">&quot;</text></g><g class="cls-9"><text class="cls-20" transform="translate(256.2 477.01)">,</text></g><g class="cls-9"><text class="cls-20" transform="translate(262.2 477.01)"> </text></g><g class="cls-9"><text class="cls-20" transform="translate(268.2 477.01)">&quot;</text></g><g class="cls-9"><text class="cls-20" transform="translate(274.2 477.01)">y</text></g><g class="cls-9"><text class="cls-20" transform="translate(280.2 477.01)">&quot;</text></g><g class="cls-9"><text class="cls-20" transform="translate(405.01 477.01)">,</text></g><g class="cls-9"><text class="cls-20" transform="translate(411.01 477.01)"> </text></g><g class="cls-9"><text class="cls-20" transform="translate(417.01 477.01)">&quot;</text></g><g class="cls-9"><text class="cls-20" transform="translate(423 477.01)"><tspan class="cls-21">bot</tspan><tspan x="17.98" y="0">h</tspan></text></g><g class="cls-9"><text class="cls-20" transform="translate(447.01 477.01)">&quot;</text></g><g class="cls-9"><text class="cls-20" transform="translate(385.8 491.4)">,</text></g><g class="cls-9"><text class="cls-20" transform="translate(391.8 491.4)"> </text></g><g class="cls-24"><text class="cls-20" transform="translate(40.8 339.61)">A</text></g><g class="cls-25"><text class="cls-20" transform="translate(100.8 339.61)">B</text></g><g class="cls-26"><text class="cls-20" transform="translate(160.8 339.61)">C</text></g><g class="cls-9"><text class="cls-20" transform="translate(37.8 374.41)"><tspan class="cls-16">A</tspan><tspan x="5.99" y="0">X</tspan></text></g><g class="cls-9"><text class="cls-20" transform="translate(97.8 374.41)"><tspan class="cls-16">B</tspan><tspan x="5.99" y="0">X</tspan></text></g><g class="cls-9"><text class="cls-20" transform="translate(157.8 374.41)"><tspan class="cls-16">C</tspan><tspan x="5.99" y="0">X</tspan></text></g><g class="cls-9"><text class="cls-20" transform="translate(196.2 374.41)">X</text></g><g class="cls-9"><text class="cls-20" transform="translate(37.8 433.21)"><tspan class="cls-16">A</tspan><tspan x="5.99" y="0">Y</tspan></text></g><g class="cls-9"><text class="cls-20" transform="translate(97.8 433.21)"><tspan class="cls-16">B</tspan><tspan x="5.99" y="0">Y</tspan></text></g><g class="cls-9"><text class="cls-20" transform="translate(157.8 433.21)"><tspan class="cls-16">C</tspan><tspan x="5.99" y="0">Y</tspan></text></g><g class="cls-9"><text class="cls-20" transform="translate(196.2 433.21)">Y</text></g><g class="cls-9"><text class="cls-20" transform="translate(37.8 492.01)"><tspan class="cls-16">A</tspan><tspan x="5.99" y="0">Z</tspan></text></g><g class="cls-9"><text class="cls-20" transform="translate(97.8 492.01)"><tspan class="cls-16">B</tspan><tspan x="5.99" y="0">Z</tspan></text></g><g class="cls-9"><text class="cls-20" transform="translate(157.8 492.01)"><tspan class="cls-16">C</tspan><tspan x="5.99" y="0">Z</tspan></text></g><g class="cls-9"><text class="cls-20" transform="translate(196.2 492.01)">Z</text></g><g class="cls-9"><text class="cls-14" transform="translate(94.8 309.59)">形式</text></g><g class="cls-9"><text class="cls-19" transform="translate(306.6 361.8)">指定横纵分面参考数据</text></g><g class="cls-9"><text class="cls-19" transform="translate(426.6 361.8)">可通过</text></g><g class="cls-9"><text class="cls-19" transform="translate(513 361.8)">进行设置</text></g><g class="cls-9"><text class="cls-19" transform="translate(568.2 361.8)">亦可通过双侧</text></g><g class="cls-9"><text class="cls-19" transform="translate(276.6 376.21)">形式</text></g><g class="cls-9"><text class="cls-19" transform="translate(304.2 376.21)">纵向</text></g><g class="cls-9"><text class="cls-19" transform="translate(367.8 376.21)">、</text></g><g class="cls-9"><text class="cls-19" transform="translate(378.6 376.21)">横向向</text></g><g class="cls-9"><text class="cls-19" transform="translate(453 376.21)">、</text></g><g class="cls-9"><text class="cls-19" transform="translate(463.8 376.21)">横纵</text></g><g class="cls-9"><text class="cls-19" transform="translate(545.41 376.21)">指定</text></g><g class="cls-9"><text class="cls-19" transform="translate(282.6 390.6)">指定各分面的坐标轴标度</text></g><g class="cls-9"><text class="cls-19" transform="translate(455.41 390.6)">所有面板统一</text></g><g class="cls-9"><text class="cls-19" transform="translate(568.2 390.6)">横纵皆可自由</text></g><g class="cls-9"><text class="cls-19" transform="translate(234.6 405.6)">变换</text></g><g class="cls-9"><text class="cls-19" transform="translate(328.2 405.6)">仅横或纵轴可变</text></g><g class="cls-9"><text class="cls-19" transform="translate(276.6 419.41)">指定各分面的尺寸标度</text></g><g class="cls-9"><text class="cls-19" transform="translate(438.6 419.41)">所有面板统一</text></g><g class="cls-9"><text class="cls-19" transform="translate(551.41 419.41)">横纵皆成比例</text></g><g class="cls-9"><text class="cls-19" transform="translate(294.6 433.8)">仅横或纵成比例</text></g><g class="cls-9"><text class="cls-19" transform="translate(270.6 448.21)">指定是否删除未在数据中使用的所有默认因子水平</text></g><g class="cls-9"><text class="cls-19" transform="translate(282.6 462.61)">指定分面标签的位置</text></g><g class="cls-9"><text class="cls-19" transform="translate(379.8 462.61)">，</text></g><g class="cls-9"><text class="cls-19" transform="translate(390.6 462.61)">默认显示在顶部和右侧</text></g><g class="cls-9"><text class="cls-19" transform="translate(528.6 462.61)">纵向分面标签显示在</text></g><g class="cls-9"><text class="cls-19" transform="translate(234.6 477.61)">底部</text></g><g class="cls-9"><text class="cls-19" transform="translate(286.2 477.61)">横向分面标签显示在左侧</text></g><g class="cls-9"><text class="cls-19" transform="translate(453 477.61)">显示在底部和左侧</text></g><g class="cls-9"><text class="cls-19" transform="translate(288.6 491.4)">指定是否创建边际图</text></g><g class="cls-9"><text class="cls-19" transform="translate(397.8 491.4)">或要创建边际图的变量的名称</text></g><line class="cls-27" x1="0.3" y1="0.3" x2="636.6" y2="0.3"/><line class="cls-27" x1="0.3" y1="24.9" x2="636.6" y2="24.9"/><line class="cls-27" x1="0.3" y1="49.5" x2="636.6" y2="49.5"/><line class="cls-27" x1="14.7" y1="63.3" x2="72" y2="63.3"/><line class="cls-27" x1="74.7" y1="63.3" x2="132" y2="63.3"/><line class="cls-27" x1="134.7" y1="63.3" x2="192" y2="63.3"/><line class="cls-27" x1="14.7" y1="119.7" x2="72" y2="119.7"/><line class="cls-27" x1="74.7" y1="119.7" x2="132" y2="119.7"/><line class="cls-27" x1="134.7" y1="119.7" x2="192" y2="119.7"/><line class="cls-27" x1="14.7" y1="122.1" x2="72" y2="122.1"/><line class="cls-27" x1="74.7" y1="122.1" x2="132" y2="122.1"/><line class="cls-27" x1="134.7" y1="122.1" x2="192" y2="122.1"/><line class="cls-27" x1="14.7" y1="178.5" x2="72" y2="178.5"/><line class="cls-27" x1="74.7" y1="178.5" x2="132" y2="178.5"/><line class="cls-27" x1="134.7" y1="178.5" x2="192" y2="178.5"/><line class="cls-27" x1="14.7" y1="180.9" x2="72" y2="180.9"/><line class="cls-27" x1="74.7" y1="180.9" x2="132" y2="180.9"/><line class="cls-27" x1="134.7" y1="180.9" x2="192" y2="180.9"/><line class="cls-27" x1="14.7" y1="237.3" x2="72" y2="237.3"/><line class="cls-27" x1="74.7" y1="237.3" x2="132" y2="237.3"/><line class="cls-27" x1="134.7" y1="237.3" x2="192" y2="237.3"/><line class="cls-27" x1="0.3" y1="251.1" x2="636.6" y2="251.1"/><line class="cls-27" x1="0.3" y1="265.5" x2="636.6" y2="265.5"/><line class="cls-27" x1="0.3" y1="290.1" x2="636.6" y2="290.1"/><line class="cls-27" x1="0.3" y1="314.7" x2="636.6" y2="314.7"/><line class="cls-27" x1="14.7" y1="328.5" x2="72" y2="328.5"/><line class="cls-27" x1="74.7" y1="328.5" x2="132" y2="328.5"/><line class="cls-27" x1="134.7" y1="328.5" x2="192" y2="328.5"/><line class="cls-27" x1="14.7" y1="342.3" x2="206.4" y2="342.3"/><line class="cls-27" x1="14.7" y1="398.7" x2="206.4" y2="398.7"/><line class="cls-27" x1="14.7" y1="401.1" x2="206.4" y2="401.1"/><line class="cls-27" x1="14.7" y1="457.5" x2="206.4" y2="457.5"/><line class="cls-27" x1="14.7" y1="459.9" x2="206.4" y2="459.9"/><line class="cls-27" x1="14.7" y1="516.3" x2="206.4" y2="516.3"/><line class="cls-27" x1="0.3" y1="529.8" x2="636.6" y2="529.8"/><line class="cls-27" x1="0.3" y1="0.3" x2="0.3" y2="530.4"/><line class="cls-27" x1="14.7" y1="63.3" x2="14.7" y2="120"/><line class="cls-27" x1="14.7" y1="122.1" x2="14.7" y2="178.8"/><line class="cls-27" x1="14.7" y1="180.9" x2="14.7" y2="237.6"/><line class="cls-27" x1="14.7" y1="328.5" x2="14.7" y2="516.6"/><line class="cls-27" x1="71.7" y1="63.3" x2="71.7" y2="120"/><line class="cls-27" x1="71.7" y1="122.1" x2="71.7" y2="178.8"/><line class="cls-27" x1="71.7" y1="180.9" x2="71.7" y2="237.6"/><line class="cls-27" x1="71.7" y1="328.5" x2="71.7" y2="516.6"/><line class="cls-27" x1="74.7" y1="63.3" x2="74.7" y2="120"/><line class="cls-27" x1="74.7" y1="122.1" x2="74.7" y2="178.8"/><line class="cls-27" x1="74.7" y1="180.9" x2="74.7" y2="237.6"/><line class="cls-27" x1="74.7" y1="328.5" x2="74.7" y2="516.6"/><line class="cls-27" x1="131.7" y1="63.3" x2="131.7" y2="120"/><line class="cls-27" x1="131.7" y1="122.1" x2="131.7" y2="178.8"/><line class="cls-27" x1="131.7" y1="180.9" x2="131.7" y2="237.6"/><line class="cls-27" x1="131.7" y1="328.5" x2="131.7" y2="516.6"/><line class="cls-27" x1="134.7" y1="63.3" x2="134.7" y2="120"/><line class="cls-27" x1="134.7" y1="122.1" x2="134.7" y2="178.8"/><line class="cls-27" x1="134.7" y1="180.9" x2="134.7" y2="237.6"/><line class="cls-27" x1="134.7" y1="328.5" x2="134.7" y2="516.6"/><line class="cls-27" x1="191.7" y1="63.3" x2="191.7" y2="120"/><line class="cls-27" x1="191.7" y1="122.1" x2="191.7" y2="178.8"/><line class="cls-27" x1="191.7" y1="180.9" x2="191.7" y2="237.6"/><line class="cls-27" x1="191.7" y1="328.5" x2="191.7" y2="516.6"/><line class="cls-27" x1="206.1" y1="24.9" x2="206.1" y2="251.4"/><line class="cls-27" x1="206.1" y1="342.3" x2="206.1" y2="399"/><line class="cls-27" x1="206.1" y1="401.1" x2="206.1" y2="457.8"/><line class="cls-27" x1="206.1" y1="459.9" x2="206.1" y2="516.6"/><line class="cls-27" x1="220.5" y1="290.1" x2="220.5" y2="530.4"/><line class="cls-27" x1="636" y1="0.3" x2="636" y2="265.8"/><line class="cls-27" x1="636" y1="290.1" x2="636" y2="530.4"/></g></g></svg>