<svg xmlns="http://www.w3.org/2000/svg" xmlns:xlink="http://www.w3.org/1999/xlink" viewBox="0 0 1043.4 523.2"><defs><style>.cls-1,.cls-11{fill:none;}.cls-2{fill:#ddd9c4;}.cls-2,.cls-3{fill-rule:evenodd;}.cls-3{fill:#ebf1de;}.cls-4{clip-path:url(#clip-path);}.cls-10,.cls-5,.cls-8,.cls-9{font-size:12px;}.cls-11,.cls-5{stroke:#000;}.cls-5{stroke-miterlimit:10;stroke-width:0.34px;}.cls-5,.cls-9{font-family:KaiTi;}.cls-6{letter-spacing:0.05em;}.cls-7{letter-spacing:0.05em;}.cls-8{font-family:Consolas;}.cls-10{font-family:SimSun;}.cls-11{stroke-linejoin:bevel;stroke-width:0.6px;}</style><clipPath id="clip-path"><rect class="cls-1" x="0.6" y="0.6" width="1042.8" height="522.6"/></clipPath></defs><title>Geom</title><g id="图层_2" data-name="图层 2"><g id="图层_1-2" data-name="图层 1"><polygon class="cls-2" points="0 0 139.8 0 139.8 26.4 0 26.4 0 0 0 0"/><polygon class="cls-2" points="139.2 0 522 0 522 26.4 139.2 26.4 139.2 0 139.2 0"/><polygon class="cls-2" points="521.4 0 661.2 0 661.2 26.4 521.4 26.4 521.4 0 521.4 0"/><polygon class="cls-2" points="660.6 0 1043.4 0 1043.4 26.4 660.6 26.4 660.6 0 660.6 0"/><polygon class="cls-3" points="0 25.8 139.8 25.8 139.8 48 0 48 0 25.8 0 25.8"/><polygon class="cls-3" points="139.2 25.8 522 25.8 522 48 139.2 48 139.2 25.8 139.2 25.8"/><polygon class="cls-3" points="521.4 25.8 661.2 25.8 661.2 48 521.4 48 521.4 25.8 521.4 25.8"/><polygon class="cls-3" points="660.6 25.8 1043.4 25.8 1043.4 48 660.6 48 660.6 25.8 660.6 25.8"/><polygon class="cls-3" points="0 47.4 139.8 47.4 139.8 69.6 0 69.6 0 47.4 0 47.4"/><polygon class="cls-3" points="139.2 47.4 522 47.4 522 69.6 139.2 69.6 139.2 47.4 139.2 47.4"/><polygon class="cls-3" points="521.4 47.4 661.2 47.4 661.2 69.6 521.4 69.6 521.4 47.4 521.4 47.4"/><polygon class="cls-3" points="660.6 47.4 1043.4 47.4 1043.4 69.6 660.6 69.6 660.6 47.4 660.6 47.4"/><polygon class="cls-3" points="0 69 139.8 69 139.8 91.2 0 91.2 0 69 0 69"/><polygon class="cls-3" points="139.2 69 522 69 522 91.2 139.2 91.2 139.2 69 139.2 69"/><polygon class="cls-3" points="521.4 69 661.2 69 661.2 91.2 521.4 91.2 521.4 69 521.4 69"/><polygon class="cls-3" points="660.6 69 1043.4 69 1043.4 91.2 660.6 91.2 660.6 69 660.6 69"/><polygon class="cls-3" points="0 90.6 139.8 90.6 139.8 112.8 0 112.8 0 90.6 0 90.6"/><polygon class="cls-3" points="139.2 90.6 522 90.6 522 112.8 139.2 112.8 139.2 90.6 139.2 90.6"/><polygon class="cls-3" points="521.4 90.6 661.2 90.6 661.2 112.8 521.4 112.8 521.4 90.6 521.4 90.6"/><polygon class="cls-3" points="660.6 90.6 1043.4 90.6 1043.4 112.8 660.6 112.8 660.6 90.6 660.6 90.6"/><polygon class="cls-3" points="0 112.2 139.8 112.2 139.8 134.4 0 134.4 0 112.2 0 112.2"/><polygon class="cls-3" points="139.2 112.2 522 112.2 522 134.4 139.2 134.4 139.2 112.2 139.2 112.2"/><polygon class="cls-3" points="521.4 112.2 661.2 112.2 661.2 134.4 521.4 134.4 521.4 112.2 521.4 112.2"/><polygon class="cls-3" points="660.6 112.2 1043.4 112.2 1043.4 134.4 660.6 134.4 660.6 112.2 660.6 112.2"/><polygon class="cls-3" points="0 133.8 139.8 133.8 139.8 156 0 156 0 133.8 0 133.8"/><polygon class="cls-3" points="139.2 133.8 522 133.8 522 156 139.2 156 139.2 133.8 139.2 133.8"/><polygon class="cls-3" points="521.4 133.8 661.2 133.8 661.2 156 521.4 156 521.4 133.8 521.4 133.8"/><polygon class="cls-3" points="660.6 133.8 1043.4 133.8 1043.4 156 660.6 156 660.6 133.8 660.6 133.8"/><polygon class="cls-3" points="0 155.4 139.8 155.4 139.8 177.6 0 177.6 0 155.4 0 155.4"/><polygon class="cls-3" points="139.2 155.4 522 155.4 522 177.6 139.2 177.6 139.2 155.4 139.2 155.4"/><polygon class="cls-3" points="521.4 155.4 661.2 155.4 661.2 177.6 521.4 177.6 521.4 155.4 521.4 155.4"/><polygon class="cls-3" points="660.6 155.4 1043.4 155.4 1043.4 177.6 660.6 177.6 660.6 155.4 660.6 155.4"/><polygon class="cls-3" points="0 177 139.8 177 139.8 199.2 0 199.2 0 177 0 177"/><polygon class="cls-3" points="139.2 177 522 177 522 199.2 139.2 199.2 139.2 177 139.2 177"/><polygon class="cls-3" points="521.4 177 661.2 177 661.2 199.2 521.4 199.2 521.4 177 521.4 177"/><polygon class="cls-3" points="660.6 177 1043.4 177 1043.4 199.2 660.6 199.2 660.6 177 660.6 177"/><polygon class="cls-3" points="0 198.6 139.8 198.6 139.8 220.8 0 220.8 0 198.6 0 198.6"/><polygon class="cls-3" points="139.2 198.6 522 198.6 522 220.8 139.2 220.8 139.2 198.6 139.2 198.6"/><polygon class="cls-3" points="521.4 198.6 661.2 198.6 661.2 220.8 521.4 220.8 521.4 198.6 521.4 198.6"/><polygon class="cls-3" points="660.6 198.6 1043.4 198.6 1043.4 220.8 660.6 220.8 660.6 198.6 660.6 198.6"/><polygon class="cls-3" points="0 220.2 139.8 220.2 139.8 242.4 0 242.4 0 220.2 0 220.2"/><polygon class="cls-3" points="139.2 220.2 522 220.2 522 242.4 139.2 242.4 139.2 220.2 139.2 220.2"/><polygon class="cls-3" points="521.4 220.2 661.2 220.2 661.2 242.4 521.4 242.4 521.4 220.2 521.4 220.2"/><polygon class="cls-3" points="660.6 220.2 1043.4 220.2 1043.4 242.4 660.6 242.4 660.6 220.2 660.6 220.2"/><polygon class="cls-3" points="0 241.8 139.8 241.8 139.8 264 0 264 0 241.8 0 241.8"/><polygon class="cls-3" points="139.2 241.8 522 241.8 522 264 139.2 264 139.2 241.8 139.2 241.8"/><polygon class="cls-3" points="521.4 241.8 661.2 241.8 661.2 264 521.4 264 521.4 241.8 521.4 241.8"/><polygon class="cls-3" points="660.6 241.8 1043.4 241.8 1043.4 264 660.6 264 660.6 241.8 660.6 241.8"/><polygon class="cls-3" points="0 263.4 139.8 263.4 139.8 285.6 0 285.6 0 263.4 0 263.4"/><polygon class="cls-3" points="139.2 263.4 522 263.4 522 285.6 139.2 285.6 139.2 263.4 139.2 263.4"/><polygon class="cls-3" points="521.4 263.4 661.2 263.4 661.2 285.6 521.4 285.6 521.4 263.4 521.4 263.4"/><polygon class="cls-3" points="660.6 263.4 1043.4 263.4 1043.4 285.6 660.6 285.6 660.6 263.4 660.6 263.4"/><polygon class="cls-3" points="0 285 139.8 285 139.8 307.2 0 307.2 0 285 0 285"/><polygon class="cls-3" points="139.2 285 522 285 522 307.2 139.2 307.2 139.2 285 139.2 285"/><polygon class="cls-3" points="521.4 285 661.2 285 661.2 307.2 521.4 307.2 521.4 285 521.4 285"/><polygon class="cls-3" points="660.6 285 1043.4 285 1043.4 307.2 660.6 307.2 660.6 285 660.6 285"/><polygon class="cls-3" points="0 306.6 139.8 306.6 139.8 328.8 0 328.8 0 306.6 0 306.6"/><polygon class="cls-3" points="139.2 306.6 522 306.6 522 328.8 139.2 328.8 139.2 306.6 139.2 306.6"/><polygon class="cls-3" points="521.4 306.6 661.2 306.6 661.2 328.8 521.4 328.8 521.4 306.6 521.4 306.6"/><polygon class="cls-3" points="660.6 306.6 1043.4 306.6 1043.4 328.8 660.6 328.8 660.6 306.6 660.6 306.6"/><polygon class="cls-3" points="0 328.2 139.8 328.2 139.8 350.4 0 350.4 0 328.2 0 328.2"/><polygon class="cls-3" points="139.2 328.2 522 328.2 522 350.4 139.2 350.4 139.2 328.2 139.2 328.2"/><polygon class="cls-3" points="521.4 328.2 661.2 328.2 661.2 350.4 521.4 350.4 521.4 328.2 521.4 328.2"/><polygon class="cls-3" points="660.6 328.2 1043.4 328.2 1043.4 350.4 660.6 350.4 660.6 328.2 660.6 328.2"/><polygon class="cls-3" points="0 349.8 139.8 349.8 139.8 372 0 372 0 349.8 0 349.8"/><polygon class="cls-3" points="139.2 349.8 522 349.8 522 372 139.2 372 139.2 349.8 139.2 349.8"/><polygon class="cls-3" points="521.4 349.8 661.2 349.8 661.2 372 521.4 372 521.4 349.8 521.4 349.8"/><polygon class="cls-3" points="660.6 349.8 1043.4 349.8 1043.4 372 660.6 372 660.6 349.8 660.6 349.8"/><polygon class="cls-3" points="0 371.4 139.8 371.4 139.8 393.6 0 393.6 0 371.4 0 371.4"/><polygon class="cls-3" points="139.2 371.4 522 371.4 522 393.6 139.2 393.6 139.2 371.4 139.2 371.4"/><polygon class="cls-3" points="521.4 371.4 661.2 371.4 661.2 393.6 521.4 393.6 521.4 371.4 521.4 371.4"/><polygon class="cls-3" points="660.6 371.4 1043.4 371.4 1043.4 393.6 660.6 393.6 660.6 371.4 660.6 371.4"/><polygon class="cls-3" points="0 393 139.8 393 139.8 415.2 0 415.2 0 393 0 393"/><polygon class="cls-3" points="139.2 393 522 393 522 415.2 139.2 415.2 139.2 393 139.2 393"/><polygon class="cls-3" points="521.4 393 661.2 393 661.2 415.2 521.4 415.2 521.4 393 521.4 393"/><polygon class="cls-3" points="660.6 393 1043.4 393 1043.4 415.2 660.6 415.2 660.6 393 660.6 393"/><polygon class="cls-3" points="0 414.6 139.8 414.6 139.8 436.8 0 436.8 0 414.6 0 414.6"/><polygon class="cls-3" points="139.2 414.6 522 414.6 522 436.8 139.2 436.8 139.2 414.6 139.2 414.6"/><polygon class="cls-3" points="521.4 414.6 661.2 414.6 661.2 436.8 521.4 436.8 521.4 414.6 521.4 414.6"/><polygon class="cls-3" points="660.6 414.6 1043.4 414.6 1043.4 436.8 660.6 436.8 660.6 414.6 660.6 414.6"/><polygon class="cls-3" points="0 436.2 139.8 436.2 139.8 458.4 0 458.4 0 436.2 0 436.2"/><polygon class="cls-3" points="139.2 436.2 522 436.2 522 458.4 139.2 458.4 139.2 436.2 139.2 436.2"/><polygon class="cls-3" points="521.4 436.2 661.2 436.2 661.2 458.4 521.4 458.4 521.4 436.2 521.4 436.2"/><polygon class="cls-3" points="660.6 436.2 1043.4 436.2 1043.4 458.4 660.6 458.4 660.6 436.2 660.6 436.2"/><polygon class="cls-3" points="0 457.8 139.8 457.8 139.8 480 0 480 0 457.8 0 457.8"/><polygon class="cls-3" points="139.2 457.8 522 457.8 522 480 139.2 480 139.2 457.8 139.2 457.8"/><polygon class="cls-3" points="521.4 457.8 661.2 457.8 661.2 480 521.4 480 521.4 457.8 521.4 457.8"/><polygon class="cls-3" points="660.6 457.8 1043.4 457.8 1043.4 480 660.6 480 660.6 457.8 660.6 457.8"/><polygon class="cls-3" points="0 479.4 139.8 479.4 139.8 501.6 0 501.6 0 479.4 0 479.4"/><polygon class="cls-3" points="139.2 479.4 522 479.4 522 501.6 139.2 501.6 139.2 479.4 139.2 479.4"/><polygon class="cls-3" points="521.4 479.4 661.2 479.4 661.2 501.6 521.4 501.6 521.4 479.4 521.4 479.4"/><polygon class="cls-3" points="660.6 479.4 1043.4 479.4 1043.4 501.6 660.6 501.6 660.6 479.4 660.6 479.4"/><polygon class="cls-3" points="0 501 139.8 501 139.8 523.2 0 523.2 0 501 0 501"/><polygon class="cls-3" points="139.2 501 522 501 522 523.2 139.2 523.2 139.2 501 139.2 501"/><polygon class="cls-3" points="521.4 501 661.2 501 661.2 523.2 521.4 523.2 521.4 501 521.4 501"/><polygon class="cls-3" points="660.6 501 1043.4 501 1043.4 523.2 660.6 523.2 660.6 501 660.6 501"/><g class="cls-4"><text class="cls-5" transform="translate(14.4 18.6)"><tspan class="cls-6">名</tspan><tspan x="12.6" y="0">称</tspan></text></g><g class="cls-4"><text class="cls-5" transform="translate(153.6 18.6)"><tspan class="cls-6">描</tspan><tspan x="12.6" y="0">述</tspan></text></g><g class="cls-4"><text class="cls-5" transform="translate(535.79 18.6)"><tspan class="cls-7">名</tspan><tspan x="12.6" y="0">称</tspan></text></g><g class="cls-4"><text class="cls-5" transform="translate(675 18.6)"><tspan class="cls-7">描</tspan><tspan x="12.6" y="0">述</tspan></text></g><g class="cls-4"><text class="cls-8" transform="translate(14.4 41.39)">abline</text></g><g class="cls-4"><text class="cls-8" transform="translate(535.79 41.39)">lable</text></g><g class="cls-4"><text class="cls-8" transform="translate(14.4 63)">area</text></g><g class="cls-4"><text class="cls-8" transform="translate(535.79 63)">line</text></g><g class="cls-4"><text class="cls-8" transform="translate(699 63)">x</text></g><g class="cls-4"><text class="cls-8" transform="translate(14.4 84.59)">bar</text></g><g class="cls-4"><text class="cls-8" transform="translate(535.79 84.59)">linerange</text></g><g class="cls-4"><text class="cls-8" transform="translate(14.4 106.2)">bin</text></g><g class="cls-4"><text class="cls-8" transform="translate(34.2 106.2)">2</text></g><g class="cls-4"><text class="cls-8" transform="translate(40.79 106.2)">d</text></g><g class="cls-4"><text class="cls-8" transform="translate(153.6 106.2)">2</text></g><g class="cls-4"><text class="cls-8" transform="translate(535.79 106.2)">path</text></g><g class="cls-4"><text class="cls-8" transform="translate(14.4 127.79)">blank</text></g><g class="cls-4"><text class="cls-8" transform="translate(535.79 127.79)">point</text></g><g class="cls-4"><text class="cls-8" transform="translate(14.4 149.4)">boxplot</text></g><g class="cls-4"><text class="cls-8" transform="translate(189.6 149.4)">(</text></g><g class="cls-4"><text class="cls-8" transform="translate(196.19 149.4)">notch</text></g><g class="cls-4"><text class="cls-8" transform="translate(301.19 149.4)">,</text></g><g class="cls-4"><text class="cls-8" transform="translate(307.79 149.4)">varwidth</text></g><g class="cls-4"><text class="cls-8" transform="translate(456.6 149.4)">)</text></g><g class="cls-4"><text class="cls-8" transform="translate(535.79 149.4)">pointrange</text></g><g class="cls-4"><text class="cls-8" transform="translate(14.4 170.99)">col</text></g><g class="cls-4"><text class="cls-8" transform="translate(535.79 170.99)">polygon</text></g><g class="cls-4"><text class="cls-8" transform="translate(14.4 192.59)">contour</text></g><g class="cls-4"><text class="cls-8" transform="translate(535.79 192.59)">qq</text></g><g class="cls-4"><text class="cls-8" transform="translate(735 192.59)">—</text></g><g class="cls-4"><text class="cls-8" transform="translate(789.6 192.59)">(</text></g><g class="cls-4"><text class="cls-8" transform="translate(796.19 192.59)">qq</text></g><g class="cls-4"><text class="cls-8" transform="translate(821.4 192.59)">)</text></g><g class="cls-4"><text class="cls-8" transform="translate(14.4 214.19)">contour</text></g><g class="cls-4"><text class="cls-8" transform="translate(60.59 214.19)">_</text></g><g class="cls-4"><text class="cls-8" transform="translate(67.2 214.19)">filled</text></g><g class="cls-4"><text class="cls-8" transform="translate(273.6 214.19)">(</text></g><g class="cls-4"><text class="cls-8" transform="translate(376.19 214.19)">)</text></g><g class="cls-4"><text class="cls-8" transform="translate(535.79 214.19)">qq</text></g><g class="cls-4"><text class="cls-8" transform="translate(549 214.19)">_</text></g><g class="cls-4"><text class="cls-8" transform="translate(555.59 214.19)">line</text></g><g class="cls-4"><text class="cls-8" transform="translate(723 214.19)">—</text></g><g class="cls-4"><text class="cls-8" transform="translate(777.6 214.19)">(</text></g><g class="cls-4"><text class="cls-8" transform="translate(784.2 214.19)">qq</text></g><g class="cls-4"><text class="cls-8" transform="translate(809.4 214.19)">)</text></g><g class="cls-4"><text class="cls-8" transform="translate(14.4 235.79)">count</text></g><g class="cls-4"><text class="cls-8" transform="translate(535.79 235.79)">quantile</text></g><g class="cls-4"><text class="cls-8" transform="translate(14.4 257.4)">crossbar</text></g><g class="cls-4"><text class="cls-8" transform="translate(535.79 257.4)">raster</text></g><g class="cls-4"><text class="cls-8" transform="translate(14.4 279)">curve</text></g><g class="cls-4"><text class="cls-8" transform="translate(273.6 279)">segment</text></g><g class="cls-4"><text class="cls-8" transform="translate(535.79 279)">rect</text></g><g class="cls-4"><text class="cls-8" transform="translate(14.4 300.59)">density</text></g><g class="cls-4"><text class="cls-8" transform="translate(535.79 300.59)">ribbon</text></g><g class="cls-4"><text class="cls-8" transform="translate(14.4 322.19)">density</text></g><g class="cls-4"><text class="cls-8" transform="translate(60.59 322.19)">_</text></g><g class="cls-4"><text class="cls-8" transform="translate(67.2 322.19)">2</text></g><g class="cls-4"><text class="cls-8" transform="translate(73.79 322.19)">d</text></g><g class="cls-4"><text class="cls-8" transform="translate(535.79 322.19)">rug</text></g><g class="cls-4"><text class="cls-8" transform="translate(14.4 343.79)">density</text></g><g class="cls-4"><text class="cls-8" transform="translate(60.59 343.79)">_</text></g><g class="cls-4"><text class="cls-8" transform="translate(67.2 343.79)">2</text></g><g class="cls-4"><text class="cls-8" transform="translate(73.79 343.79)">d</text></g><g class="cls-4"><text class="cls-8" transform="translate(80.4 343.79)">_</text></g><g class="cls-4"><text class="cls-8" transform="translate(87 343.79)">filled</text></g><g class="cls-4"><text class="cls-8" transform="translate(249.6 343.79)">(</text></g><g class="cls-4"><text class="cls-8" transform="translate(352.2 343.79)">)</text></g><g class="cls-4"><text class="cls-8" transform="translate(535.79 343.79)">segment</text></g><g class="cls-4"><text class="cls-8" transform="translate(795 343.79)">curve</text></g><g class="cls-4"><text class="cls-8" transform="translate(14.4 365.4)">dotplot</text></g><g class="cls-4"><text class="cls-8" transform="translate(535.79 365.4)">smooth</text></g><g class="cls-4"><text class="cls-8" transform="translate(14.4 387)">errorbar</text></g><g class="cls-4"><text class="cls-8" transform="translate(535.79 387)">spoke</text></g><g class="cls-4"><text class="cls-8" transform="translate(14.4 408.6)">errorbarh</text></g><g class="cls-4"><text class="cls-8" transform="translate(535.79 408.6)">step</text></g><g class="cls-4"><text class="cls-8" transform="translate(14.4 430.2)">freqpoly</text></g><g class="cls-4"><text class="cls-8" transform="translate(225.59 430.2)">(</text></g><g class="cls-4"><text class="cls-8" transform="translate(304.2 430.2)">)</text></g><g class="cls-4"><text class="cls-8" transform="translate(535.79 430.2)">text</text></g><g class="cls-4"><text class="cls-8" transform="translate(14.4 451.79)">hex</text></g><g class="cls-4"><text class="cls-8" transform="translate(535.79 451.79)">tile</text></g><g class="cls-4"><text class="cls-8" transform="translate(14.4 473.4)">histogram</text></g><g class="cls-4"><text class="cls-8" transform="translate(189.6 473.4)">(</text></g><g class="cls-4"><text class="cls-8" transform="translate(280.19 473.4)">)</text></g><g class="cls-4"><text class="cls-8" transform="translate(535.79 473.4)">violin</text></g><g class="cls-4"><text class="cls-8" transform="translate(723 473.4)">(</text></g><g class="cls-4"><text class="cls-8" transform="translate(729.6 473.4)">trim</text></g><g class="cls-4"><text class="cls-8" transform="translate(960 473.4)">)</text></g><g class="cls-4"><text class="cls-8" transform="translate(14.4 495)">hline</text></g><g class="cls-4"><text class="cls-8" transform="translate(535.79 495)">vline</text></g><g class="cls-4"><text class="cls-8" transform="translate(14.4 516.6)">jitter</text></g><g class="cls-4"><text class="cls-8" transform="translate(535.79 516.6)">xspline</text></g><g class="cls-4"><text class="cls-8" transform="translate(843 516.6)">ggalt</text></g><g class="cls-4"><text class="cls-9" transform="translate(153.6 42)">一条直线线</text></g><g class="cls-4"><text class="cls-9" transform="translate(213.6 42)">，</text></g><g class="cls-4"><text class="cls-9" transform="translate(225.59 42)">由斜率和截距决定</text></g><g class="cls-4"><text class="cls-9" transform="translate(675 42)">带矩形背景的文本注释</text></g><g class="cls-4"><text class="cls-9" transform="translate(153.6 63.6)">面积图</text></g><g class="cls-4"><text class="cls-9" transform="translate(675 63.6)">按照</text></g><g class="cls-4"><text class="cls-9" transform="translate(705.59 63.6)">坐标的大小顺序依次连接各个观测值</text></g><g class="cls-4"><text class="cls-9" transform="translate(153.6 85.2)">条形图</text></g><g class="cls-4"><text class="cls-9" transform="translate(189.6 85.2)">，</text></g><g class="cls-4"><text class="cls-9" transform="translate(201.6 85.2)">统计数量</text></g><g class="cls-4"><text class="cls-9" transform="translate(675 85.2)">一条代表一个区间的直线</text></g><g class="cls-4"><text class="cls-9" transform="translate(160.19 106.2)">维热图</text></g><g class="cls-4"><text class="cls-9" transform="translate(675 106.79)">按数据的原始顺序连接各个观测值</text></g><g class="cls-4"><text class="cls-9" transform="translate(153.6 128.4)">空白</text></g><g class="cls-4"><text class="cls-9" transform="translate(177.6 128.4)">，</text></g><g class="cls-4"><text class="cls-9" transform="translate(189.6 128.4)">什么也不画</text></g><g class="cls-4"><text class="cls-9" transform="translate(675 128.4)">散点图</text></g><g class="cls-4"><text class="cls-9" transform="translate(153.6 150)">箱线图</text></g><g class="cls-4"><text class="cls-9" transform="translate(229.2 150)">控制有无凹槽</text></g><g class="cls-4"><text class="cls-9" transform="translate(360.59 150)">控制有无宽度比例</text></g><g class="cls-4"><text class="cls-9" transform="translate(675 150)">用一条中间带点的直线代表一个区间</text></g><g class="cls-4"><text class="cls-9" transform="translate(153.6 171.6)">条形图</text></g><g class="cls-4"><text class="cls-9" transform="translate(189.6 171.6)">，</text></g><g class="cls-4"><text class="cls-9" transform="translate(201.6 171.6)">显示原数据值</text></g><g class="cls-4"><text class="cls-9" transform="translate(675 171.6)">多边形</text></g><g class="cls-4"><text class="cls-9" transform="translate(711 171.6)">，</text></g><g class="cls-4"><text class="cls-9" transform="translate(723 171.6)">相当于一个有填充的路径</text></g><g class="cls-4"><text class="cls-9" transform="translate(153.6 193.2)">三维曲面的二维轮廓图</text></g><g class="cls-4"><text class="cls-9" transform="translate(675 193.2)">绘制分位数</text></g><g class="cls-4"><text class="cls-9" transform="translate(741.6 193.2)">分位数图</text></g><g class="cls-4"><text class="cls-9" transform="translate(809.4 193.2)">图</text></g><g class="cls-4"><text class="cls-9" transform="translate(153.6 214.79)">三维曲面的二维轮廓图</text></g><g class="cls-4"><text class="cls-9" transform="translate(280.19 214.79)">包含填充的轮廓带</text></g><g class="cls-4"><text class="cls-9" transform="translate(675 214.79)">为分位数</text></g><g class="cls-4"><text class="cls-9" transform="translate(729.6 214.79)">分位数图</text></g><g class="cls-4"><text class="cls-9" transform="translate(797.4 214.79)">图</text></g><g class="cls-4"><text class="cls-9" transform="translate(816 214.79)">计算并绘制指定两点的直线</text></g><g class="cls-4"><text class="cls-9" transform="translate(153.6 236.39)">通过点的大小反应数据的数量或比例</text></g><g class="cls-4"><text class="cls-9" transform="translate(345.59 236.39)">，</text></g><g class="cls-4"><text class="cls-9" transform="translate(357.6 236.39)">横纵坐标相当于组别</text></g><g class="cls-4"><text class="cls-9" transform="translate(675 236.39)">添加分位数回归线</text></g><g class="cls-4"><text class="cls-9" transform="translate(153.6 258)">带有水平中心线的盒子图</text></g><g class="cls-4"><text class="cls-9" transform="translate(675 258)">高效的矩形瓦片图</text></g><g class="cls-4"><text class="cls-9" transform="translate(771 258)">(</text></g><g class="cls-4"><text class="cls-9" transform="translate(777 258)">所有图块大小相等</text></g><g class="cls-4"><text class="cls-9" transform="translate(873 258)">)</text></g><g class="cls-4"><text class="cls-9" transform="translate(153.6 279.59)">添加曲线或箭头</text></g><g class="cls-4"><text class="cls-9" transform="translate(237.6 279.59)">，</text></g><g class="cls-4"><text class="cls-9" transform="translate(249.6 279.59)">类比</text></g><g class="cls-4"><text class="cls-9" transform="translate(153.6 301.2)">光滑密度曲线图</text></g><g class="cls-4"><text class="cls-9" transform="translate(675 301.2)">色带图</text></g><g class="cls-4"><text class="cls-9" transform="translate(153.6 322.79)">二维密度等高线图</text></g><g class="cls-4"><text class="cls-9" transform="translate(675 322.79)">边际地毯图</text></g><g class="cls-4"><text class="cls-9" transform="translate(153.6 344.4)">二维密度等高线图</text></g><g class="cls-4"><text class="cls-9" transform="translate(256.19 344.4)">包含填充的轮廓带</text></g><g class="cls-4"><text class="cls-9" transform="translate(675 344.4)">添加线段或箭头</text></g><g class="cls-4"><text class="cls-9" transform="translate(759 344.4)">，</text></g><g class="cls-4"><text class="cls-9" transform="translate(771 344.4)">类比</text></g><g class="cls-4"><text class="cls-9" transform="translate(153.6 365.99)">点直方图</text></g><g class="cls-4"><text class="cls-9" transform="translate(201.6 365.99)">(</text></g><g class="cls-4"><text class="cls-9" transform="translate(207.6 365.99)">用条形显示计数比例</text></g><g class="cls-4"><text class="cls-9" transform="translate(315.59 365.99)">)</text></g><g class="cls-4"><text class="cls-9" transform="translate(675 365.99)">添加光滑的拟合线</text></g><g class="cls-4"><text class="cls-9" transform="translate(153.6 387.59)">误差棒</text></g><g class="cls-4"><text class="cls-9" transform="translate(675 387.59)">添加有方向和距离的线段</text></g><g class="cls-4"><text class="cls-9" transform="translate(153.6 409.19)">水平的误差棒</text></g><g class="cls-4"><text class="cls-9" transform="translate(675 409.19)">以阶梯形式连接各个点</text></g><g class="cls-4"><text class="cls-9" transform="translate(153.6 430.79)">频率多边形图</text></g><g class="cls-4"><text class="cls-9" transform="translate(232.2 430.79)">用线显示计数</text></g><g class="cls-4"><text class="cls-9" transform="translate(675 430.79)">文本注释</text></g><g class="cls-4"><text class="cls-9" transform="translate(153.6 452.4)">用六边形表示的二维热图</text></g><g class="cls-4"><text class="cls-9" transform="translate(675 452.4)">矩形瓦片图</text></g><g class="cls-4"><text class="cls-9" transform="translate(153.6 474)">直方图</text></g><g class="cls-4"><text class="cls-9" transform="translate(196.19 474)">用条形显示计数</text></g><g class="cls-4"><text class="cls-9" transform="translate(675 474)">小提琴图</text></g><g class="cls-4"><text class="cls-9" transform="translate(756 474)">控制是否将小提琴尾部修剪到数据范围</text></g><g class="cls-4"><text class="cls-9" transform="translate(153.6 495.59)">水平直线</text></g><g class="cls-4"><text class="cls-9" transform="translate(675 495.59)">竖直直线</text></g><g class="cls-4"><text class="cls-9" transform="translate(153.6 517.19)">扰动点图</text></g><g class="cls-4"><text class="cls-9" transform="translate(201.6 517.19)">，</text></g><g class="cls-4"><text class="cls-9" transform="translate(213.6 517.19)">减轻图形重叠问题</text></g><g class="cls-4"><text class="cls-9" transform="translate(675 517.19)">用光滑的曲线链接各点</text></g><g class="cls-4"><text class="cls-9" transform="translate(795 517.19)">（</text></g><g class="cls-4"><text class="cls-9" transform="translate(807 517.19)">存在于</text></g><g class="cls-4"><text class="cls-9" transform="translate(876 517.19)">包中</text></g><g class="cls-4"><text class="cls-9" transform="translate(900 517.19)">）</text></g><g class="cls-4"><text class="cls-10" transform="translate(675 279.59)">矩形瓦片图</text></g><line class="cls-11" x1="0.3" y1="0.3" x2="1043.4" y2="0.3"/><line class="cls-11" x1="0.3" y1="26.1" x2="1043.4" y2="26.1"/><line class="cls-11" x1="0.3" y1="47.7" x2="1043.4" y2="47.7"/><line class="cls-11" x1="0.3" y1="69.3" x2="1043.4" y2="69.3"/><line class="cls-11" x1="0.3" y1="90.9" x2="1043.4" y2="90.9"/><line class="cls-11" x1="0.3" y1="112.5" x2="1043.4" y2="112.5"/><line class="cls-11" x1="0.3" y1="134.1" x2="1043.4" y2="134.1"/><line class="cls-11" x1="0.3" y1="155.7" x2="1043.4" y2="155.7"/><line class="cls-11" x1="0.3" y1="177.3" x2="1043.4" y2="177.3"/><line class="cls-11" x1="0.3" y1="198.9" x2="1043.4" y2="198.9"/><line class="cls-11" x1="0.3" y1="220.5" x2="1043.4" y2="220.5"/><line class="cls-11" x1="0.3" y1="242.1" x2="1043.4" y2="242.1"/><line class="cls-11" x1="0.3" y1="263.7" x2="1043.4" y2="263.7"/><line class="cls-11" x1="0.3" y1="285.3" x2="1043.4" y2="285.3"/><line class="cls-11" x1="0.3" y1="306.9" x2="1043.4" y2="306.9"/><line class="cls-11" x1="0.3" y1="328.5" x2="1043.4" y2="328.5"/><line class="cls-11" x1="0.3" y1="350.1" x2="1043.4" y2="350.1"/><line class="cls-11" x1="0.3" y1="371.7" x2="1043.4" y2="371.7"/><line class="cls-11" x1="0.3" y1="393.3" x2="1043.4" y2="393.3"/><line class="cls-11" x1="0.3" y1="414.9" x2="1043.4" y2="414.9"/><line class="cls-11" x1="0.3" y1="436.5" x2="1043.4" y2="436.5"/><line class="cls-11" x1="0.3" y1="458.1" x2="1043.4" y2="458.1"/><line class="cls-11" x1="0.3" y1="479.7" x2="1043.4" y2="479.7"/><line class="cls-11" x1="0.3" y1="501.3" x2="1043.4" y2="501.3"/><line class="cls-11" x1="0.3" y1="522.6" x2="1043.4" y2="522.6"/><line class="cls-11" x1="0.3" y1="0.3" x2="0.3" y2="523.2"/><line class="cls-11" x1="139.5" y1="0.3" x2="139.5" y2="523.2"/><line class="cls-11" x1="521.7" y1="0.3" x2="521.7" y2="523.2"/><line class="cls-11" x1="660.9" y1="0.3" x2="660.9" y2="523.2"/><line class="cls-11" x1="1042.8" y1="0.3" x2="1042.8" y2="523.2"/></g></g></svg>