<svg xmlns="http://www.w3.org/2000/svg" xmlns:xlink="http://www.w3.org/1999/xlink" viewBox="0 0 862.2 599.4"><defs><style>.cls-1,.cls-24{fill:none;}.cls-2{fill:#ddd9c4;}.cls-2,.cls-3,.cls-4{fill-rule:evenodd;}.cls-3{fill:#ebf1de;}.cls-4{fill:#d8e4bc;}.cls-5{clip-path:url(#clip-path);}.cls-6,.cls-8{font-size:16.2px;stroke-miterlimit:10;stroke-width:0.46px;}.cls-24,.cls-6,.cls-8{stroke:#000;}.cls-20,.cls-6,.cls-8{font-family:SimSun;}.cls-7{letter-spacing:0.04em;}.cls-8{letter-spacing:0.04em;}.cls-9{letter-spacing:0em;}.cls-10,.cls-19,.cls-20{font-size:12px;}.cls-10,.cls-18{font-family:NSimSun;}.cls-11,.cls-13,.cls-16,.cls-18,.cls-21,.cls-22,.cls-23{font-size:10.8px;}.cls-11,.cls-13,.cls-16,.cls-18{fill:#4f4f4f;}.cls-11,.cls-13,.cls-16,.cls-19,.cls-21,.cls-22,.cls-23{font-family:Consolas;}.cls-12,.cls-16{letter-spacing:0em;}.cls-13,.cls-15,.cls-22{letter-spacing:0.01em;}.cls-14{letter-spacing:0em;}.cls-17{letter-spacing:0em;}.cls-21{fill:#c7254e;}.cls-22,.cls-23{fill:#c00000;}.cls-24{stroke-linejoin:bevel;stroke-width:0.6px;}</style><clipPath id="clip-path"><rect class="cls-1" x="0.6" y="0.6" width="861.6" height="598.8"/></clipPath></defs><title>Guides</title><g id="图层_2" data-name="图层 2"><g id="图层_1-2" data-name="图层 1"><polygon class="cls-2" points="0 0 117.6 0 117.6 25.2 0 25.2 0 0 0 0"/><polygon class="cls-2" points="117 0 219 0 219 25.2 117 25.2 117 0 117 0"/><polygon class="cls-2" points="218.4 0 331.2 0 331.2 25.2 218.4 25.2 218.4 0 218.4 0"/><polygon class="cls-2" points="330.6 0 862.2 0 862.2 25.2 330.6 25.2 330.6 0 330.6 0"/><polygon class="cls-3" points="0 24.6 117.6 24.6 117.6 262.8 0 262.8 0 24.6 0 24.6"/><polygon class="cls-3" points="117 24.6 219 24.6 219 84.6 117 84.6 117 24.6 117 24.6"/><polygon class="cls-3" points="218.4 24.6 331.2 24.6 331.2 45 218.4 45 218.4 24.6 218.4 24.6"/><polygon class="cls-3" points="330.6 24.6 862.2 24.6 862.2 45 330.6 45 330.6 24.6 330.6 24.6"/><polygon class="cls-3" points="218.4 44.4 331.2 44.4 331.2 64.8 218.4 64.8 218.4 44.4 218.4 44.4"/><polygon class="cls-3" points="330.6 44.4 862.2 44.4 862.2 64.8 330.6 64.8 330.6 44.4 330.6 44.4"/><polygon class="cls-3" points="218.4 64.2 331.2 64.2 331.2 84.6 218.4 84.6 218.4 64.2 218.4 64.2"/><polygon class="cls-3" points="330.6 64.2 862.2 64.2 862.2 84.6 330.6 84.6 330.6 64.2 330.6 64.2"/><polygon class="cls-3" points="117 84 219 84 219 163.8 117 163.8 117 84 117 84"/><polygon class="cls-3" points="218.4 84 331.2 84 331.2 104.4 218.4 104.4 218.4 84 218.4 84"/><polygon class="cls-3" points="330.6 84 862.2 84 862.2 104.4 330.6 104.4 330.6 84 330.6 84"/><polygon class="cls-3" points="218.4 103.8 331.2 103.8 331.2 124.2 218.4 124.2 218.4 103.8 218.4 103.8"/><polygon class="cls-3" points="330.6 103.8 862.2 103.8 862.2 124.2 330.6 124.2 330.6 103.8 330.6 103.8"/><polygon class="cls-3" points="218.4 123.6 331.2 123.6 331.2 144 218.4 144 218.4 123.6 218.4 123.6"/><polygon class="cls-3" points="330.6 123.6 862.2 123.6 862.2 144 330.6 144 330.6 123.6 330.6 123.6"/><polygon class="cls-3" points="218.4 143.4 331.2 143.4 331.2 163.8 218.4 163.8 218.4 143.4 218.4 143.4"/><polygon class="cls-3" points="330.6 143.4 862.2 143.4 862.2 163.8 330.6 163.8 330.6 143.4 330.6 143.4"/><polygon class="cls-3" points="117 163.2 219 163.2 219 262.8 117 262.8 117 163.2 117 163.2"/><polygon class="cls-3" points="218.4 163.2 331.2 163.2 331.2 183.6 218.4 183.6 218.4 163.2 218.4 163.2"/><polygon class="cls-3" points="330.6 163.2 862.2 163.2 862.2 183.6 330.6 183.6 330.6 163.2 330.6 163.2"/><polygon class="cls-3" points="218.4 183 331.2 183 331.2 203.4 218.4 203.4 218.4 183 218.4 183"/><polygon class="cls-3" points="330.6 183 862.2 183 862.2 203.4 330.6 203.4 330.6 183 330.6 183"/><polygon class="cls-3" points="218.4 202.8 331.2 202.8 331.2 223.2 218.4 223.2 218.4 202.8 218.4 202.8"/><polygon class="cls-3" points="330.6 202.8 862.2 202.8 862.2 223.2 330.6 223.2 330.6 202.8 330.6 202.8"/><polygon class="cls-3" points="218.4 222.6 331.2 222.6 331.2 243 218.4 243 218.4 222.6 218.4 222.6"/><polygon class="cls-3" points="330.6 222.6 862.2 222.6 862.2 243 330.6 243 330.6 222.6 330.6 222.6"/><polygon class="cls-3" points="218.4 242.4 331.2 242.4 331.2 262.8 218.4 262.8 218.4 242.4 218.4 242.4"/><polygon class="cls-3" points="330.6 242.4 862.2 242.4 862.2 262.8 330.6 262.8 330.6 242.4 330.6 242.4"/><polygon class="cls-3" points="0 499.8 117.6 499.8 117.6 599.4 0 599.4 0 499.8 0 499.8"/><polygon class="cls-3" points="117 499.8 219 499.8 219 540 117 540 117 499.8 117 499.8"/><polygon class="cls-3" points="218.4 499.8 331.2 499.8 331.2 520.2 218.4 520.2 218.4 499.8 218.4 499.8"/><polygon class="cls-3" points="330.6 499.8 862.2 499.8 862.2 520.2 330.6 520.2 330.6 499.8 330.6 499.8"/><polygon class="cls-3" points="218.4 519.6 331.2 519.6 331.2 540 218.4 540 218.4 519.6 218.4 519.6"/><polygon class="cls-3" points="330.6 519.6 862.2 519.6 862.2 540 330.6 540 330.6 519.6 330.6 519.6"/><polygon class="cls-3" points="117 539.4 219 539.4 219 599.4 117 599.4 117 539.4 117 539.4"/><polygon class="cls-3" points="218.4 539.4 331.2 539.4 331.2 559.8 218.4 559.8 218.4 539.4 218.4 539.4"/><polygon class="cls-3" points="330.6 539.4 862.2 539.4 862.2 559.8 330.6 559.8 330.6 539.4 330.6 539.4"/><polygon class="cls-3" points="218.4 559.2 331.2 559.2 331.2 579.6 218.4 579.6 218.4 559.2 218.4 559.2"/><polygon class="cls-3" points="330.6 559.2 862.2 559.2 862.2 579.6 330.6 579.6 330.6 559.2 330.6 559.2"/><polygon class="cls-3" points="218.4 579 331.2 579 331.2 599.4 218.4 599.4 218.4 579 218.4 579"/><polygon class="cls-3" points="330.6 579 862.2 579 862.2 599.4 330.6 599.4 330.6 579 330.6 579"/><polygon class="cls-4" points="0 262.2 117.6 262.2 117.6 500.4 0 500.4 0 262.2 0 262.2"/><polygon class="cls-4" points="117 262.2 219 262.2 219 342 117 342 117 262.2 117 262.2"/><polygon class="cls-4" points="218.4 262.2 331.2 262.2 331.2 282.6 218.4 282.6 218.4 262.2 218.4 262.2"/><polygon class="cls-4" points="330.6 262.2 862.2 262.2 862.2 282.6 330.6 282.6 330.6 262.2 330.6 262.2"/><polygon class="cls-4" points="218.4 282 331.2 282 331.2 302.4 218.4 302.4 218.4 282 218.4 282"/><polygon class="cls-4" points="330.6 282 862.2 282 862.2 302.4 330.6 302.4 330.6 282 330.6 282"/><polygon class="cls-4" points="218.4 301.8 331.2 301.8 331.2 322.2 218.4 322.2 218.4 301.8 218.4 301.8"/><polygon class="cls-4" points="330.6 301.8 862.2 301.8 862.2 322.2 330.6 322.2 330.6 301.8 330.6 301.8"/><polygon class="cls-4" points="218.4 321.6 331.2 321.6 331.2 342 218.4 342 218.4 321.6 218.4 321.6"/><polygon class="cls-4" points="330.6 321.6 862.2 321.6 862.2 342 330.6 342 330.6 321.6 330.6 321.6"/><polygon class="cls-4" points="117 341.4 219 341.4 219 401.4 117 401.4 117 341.4 117 341.4"/><polygon class="cls-4" points="218.4 341.4 331.2 341.4 331.2 361.8 218.4 361.8 218.4 341.4 218.4 341.4"/><polygon class="cls-4" points="330.6 341.4 862.2 341.4 862.2 361.8 330.6 361.8 330.6 341.4 330.6 341.4"/><polygon class="cls-4" points="218.4 361.2 331.2 361.2 331.2 381.6 218.4 381.6 218.4 361.2 218.4 361.2"/><polygon class="cls-4" points="330.6 361.2 862.2 361.2 862.2 381.6 330.6 381.6 330.6 361.2 330.6 361.2"/><polygon class="cls-4" points="218.4 381 331.2 381 331.2 401.4 218.4 401.4 218.4 381 218.4 381"/><polygon class="cls-4" points="330.6 381 862.2 381 862.2 401.4 330.6 401.4 330.6 381 330.6 381"/><polygon class="cls-4" points="117 400.8 219 400.8 219 500.4 117 500.4 117 400.8 117 400.8"/><polygon class="cls-4" points="218.4 400.8 331.2 400.8 331.2 421.2 218.4 421.2 218.4 400.8 218.4 400.8"/><polygon class="cls-4" points="330.6 400.8 862.2 400.8 862.2 421.2 330.6 421.2 330.6 400.8 330.6 400.8"/><polygon class="cls-4" points="218.4 420.6 331.2 420.6 331.2 441 218.4 441 218.4 420.6 218.4 420.6"/><polygon class="cls-4" points="330.6 420.6 862.2 420.6 862.2 441 330.6 441 330.6 420.6 330.6 420.6"/><polygon class="cls-4" points="218.4 440.4 331.2 440.4 331.2 460.8 218.4 460.8 218.4 440.4 218.4 440.4"/><polygon class="cls-4" points="330.6 440.4 862.2 440.4 862.2 460.8 330.6 460.8 330.6 440.4 330.6 440.4"/><polygon class="cls-4" points="218.4 460.2 331.2 460.2 331.2 480.6 218.4 480.6 218.4 460.2 218.4 460.2"/><polygon class="cls-4" points="330.6 460.2 862.2 460.2 862.2 480.6 330.6 480.6 330.6 460.2 330.6 460.2"/><polygon class="cls-4" points="218.4 480 331.2 480 331.2 500.4 218.4 500.4 218.4 480 218.4 480"/><polygon class="cls-4" points="330.6 480 862.2 480 862.2 500.4 330.6 500.4 330.6 480 330.6 480"/><g class="cls-5"><text class="cls-6" transform="translate(42.6 19.81)"><tspan class="cls-7">函</tspan><tspan x="16.8" y="0">数</tspan></text></g><g class="cls-5"><text class="cls-6" transform="translate(135 19.81)"><tspan class="cls-7">作用对</tspan><tspan x="50.4" y="0">象</tspan></text></g><g class="cls-5"><text class="cls-6" transform="translate(258.6 19.81)"><tspan class="cls-7">参</tspan><tspan x="16.8" y="0">数</tspan></text></g><g class="cls-5"><text class="cls-8" transform="translate(580.2 19.81)">描<tspan class="cls-9" x="16.8" y="0">述</tspan></text></g><g class="cls-5"><text class="cls-10" transform="translate(47.4 148.79)">共有</text></g><g class="cls-5"><text class="cls-10" transform="translate(144.59 60)">整个图例</text></g><g class="cls-5"><text class="cls-10" transform="translate(144.59 129)">图例标题</text></g><g class="cls-5"><text class="cls-10" transform="translate(132.59 218.39)">图例刻度标签</text></g><g class="cls-5"><text class="cls-10" transform="translate(144.59 307.19)">图例箱体</text></g><g class="cls-5"><text class="cls-10" transform="translate(144.59 376.8)">箱体边框</text></g><g class="cls-5"><text class="cls-10" transform="translate(150.59 456)">刻度线</text></g><g class="cls-5"><text class="cls-10" transform="translate(144.59 525)">箱体尺寸</text></g><g class="cls-5"><text class="cls-10" transform="translate(144.59 574.8)">分箱排列</text></g><g class="cls-5"><text class="cls-11" transform="translate(232.8 39.01)"><tspan class="cls-12">directio</tspan><tspan x="47.94" y="0">n</tspan></text></g><g class="cls-5"><text class="cls-11" transform="translate(463.81 39.01)">&quot;</text></g><g class="cls-5"><text class="cls-13" transform="translate(469.81 39.01)">horizonta<tspan class="cls-14" x="53.93" y="0">l</tspan></text></g><g class="cls-5"><text class="cls-11" transform="translate(529.81 39.01)">&quot;</text></g><g class="cls-5"><text class="cls-11" transform="translate(579 39.01)">,</text></g><g class="cls-5"><text class="cls-11" transform="translate(595.81 39.01)">&quot;</text></g><g class="cls-5"><text class="cls-11" transform="translate(601.8 39.01)"><tspan class="cls-15">vertica</tspan><tspan x="41.94" y="0">l</tspan></text></g><g class="cls-5"><text class="cls-11" transform="translate(649.81 39.01)">&quot;</text></g><g class="cls-5"><text class="cls-11" transform="translate(232.8 58.8)"><tspan class="cls-12">revers</tspan><tspan x="35.95" y="0">e</tspan></text></g><g class="cls-5"><text class="cls-11" transform="translate(474.6 58.8)">,</text></g><g class="cls-5"><text class="cls-11" transform="translate(232.8 78.61)"><tspan class="cls-12">orde</tspan><tspan x="23.97" y="0">r</tspan></text></g><g class="cls-5"><text class="cls-11" transform="translate(232.8 98.4)"><tspan class="cls-12">titl</tspan><tspan x="23.97" y="0">e</tspan></text></g><g class="cls-5"><text class="cls-11" transform="translate(232.8 118.21)"><tspan class="cls-12">titl</tspan><tspan x="23.97" y="0">e</tspan></text></g><g class="cls-5"><text class="cls-11" transform="translate(262.8 118.21)">.</text></g><g class="cls-5"><text class="cls-16" transform="translate(268.81 118.21)">positio<tspan class="cls-17" x="41.94" y="0">n</tspan></text></g><g class="cls-5"><text class="cls-11" transform="translate(474.6 118.21)"> </text></g><g class="cls-5"><text class="cls-11" transform="translate(480.6 118.21)">&quot;</text></g><g class="cls-5"><text class="cls-11" transform="translate(486.6 118.21)"><tspan class="cls-15">lef</tspan><tspan x="17.98" y="0">t</tspan></text></g><g class="cls-5"><text class="cls-11" transform="translate(510.6 118.21)">&quot;</text></g><g class="cls-5"><text class="cls-11" transform="translate(527.4 118.21)">&quot;</text></g><g class="cls-5"><text class="cls-11" transform="translate(533.4 118.21)"><tspan class="cls-15">righ</tspan><tspan x="23.97" y="0">t</tspan></text></g><g class="cls-5"><text class="cls-11" transform="translate(563.4 118.21)">&quot;</text></g><g class="cls-5"><text class="cls-11" transform="translate(580.2 118.21)">&quot;</text></g><g class="cls-5"><text class="cls-13" transform="translate(586.2 118.21)">to<tspan class="cls-14" x="11.98" y="0">p</tspan></text></g><g class="cls-5"><text class="cls-11" transform="translate(604.2 118.21)">&quot;</text></g><g class="cls-5"><text class="cls-11" transform="translate(621 118.21)">&quot;</text></g><g class="cls-5"><text class="cls-13" transform="translate(627 118.21)">botto<tspan class="cls-14" x="29.96" y="0">m</tspan></text></g><g class="cls-5"><text class="cls-11" transform="translate(663 118.21)">&quot;</text></g><g class="cls-5"><text class="cls-11" transform="translate(232.8 138)"><tspan class="cls-12">titl</tspan><tspan x="23.97" y="0">e</tspan></text></g><g class="cls-5"><text class="cls-11" transform="translate(262.8 138)">.</text></g><g class="cls-5"><text class="cls-11" transform="translate(268.81 138)"><tspan class="cls-12">hjus</tspan><tspan x="23.97" y="0">t</tspan></text></g><g class="cls-5"><text class="cls-11" transform="translate(517.8 138)">(</text></g><g class="cls-5"><text class="cls-11" transform="translate(523.81 138)">0</text></g><g class="cls-5"><text class="cls-11" transform="translate(529.81 138)">~</text></g><g class="cls-5"><text class="cls-11" transform="translate(535.81 138)">1</text></g><g class="cls-5"><text class="cls-11" transform="translate(541.8 138)">)</text></g><g class="cls-5"><text class="cls-11" transform="translate(232.8 157.81)"><tspan class="cls-12">titl</tspan><tspan x="23.97" y="0">e</tspan></text></g><g class="cls-5"><text class="cls-11" transform="translate(262.8 157.81)">.</text></g><g class="cls-5"><text class="cls-11" transform="translate(268.81 157.81)"><tspan class="cls-12">vjus</tspan><tspan x="23.97" y="0">t</tspan></text></g><g class="cls-5"><text class="cls-11" transform="translate(517.8 157.81)">(</text></g><g class="cls-5"><text class="cls-11" transform="translate(523.81 157.81)">0</text></g><g class="cls-5"><text class="cls-11" transform="translate(529.81 157.81)">~</text></g><g class="cls-5"><text class="cls-11" transform="translate(535.81 157.81)">1</text></g><g class="cls-5"><text class="cls-11" transform="translate(541.8 157.81)">)</text></g><g class="cls-5"><text class="cls-11" transform="translate(232.8 177.61)"><tspan class="cls-12">labe</tspan><tspan x="23.97" y="0">l</tspan></text></g><g class="cls-5"><text class="cls-11" transform="translate(232.8 197.4)"><tspan class="cls-12">labe</tspan><tspan x="23.97" y="0">l</tspan></text></g><g class="cls-5"><text class="cls-11" transform="translate(262.8 197.4)">.</text></g><g class="cls-5"><text class="cls-16" transform="translate(268.81 197.4)">positio<tspan class="cls-17" x="41.94" y="0">n</tspan></text></g><g class="cls-5"><text class="cls-11" transform="translate(496.2 197.4)">,</text></g><g class="cls-5"><text class="cls-11" transform="translate(502.2 197.4)"> </text></g><g class="cls-5"><text class="cls-11" transform="translate(508.2 197.4)">&quot;</text></g><g class="cls-5"><text class="cls-11" transform="translate(514.2 197.4)"><tspan class="cls-15">lef</tspan><tspan x="17.98" y="0">t</tspan></text></g><g class="cls-5"><text class="cls-11" transform="translate(538.2 197.4)">&quot;</text></g><g class="cls-5"><text class="cls-11" transform="translate(555 197.4)">&quot;</text></g><g class="cls-5"><text class="cls-11" transform="translate(561 197.4)"><tspan class="cls-15">righ</tspan><tspan x="23.97" y="0">t</tspan></text></g><g class="cls-5"><text class="cls-11" transform="translate(591 197.4)">&quot;</text></g><g class="cls-5"><text class="cls-11" transform="translate(607.8 197.4)">&quot;</text></g><g class="cls-5"><text class="cls-13" transform="translate(613.81 197.4)">to<tspan class="cls-14" x="11.98" y="0">p</tspan></text></g><g class="cls-5"><text class="cls-11" transform="translate(631.8 197.4)">&quot;</text></g><g class="cls-5"><text class="cls-11" transform="translate(648.6 197.4)">&quot;</text></g><g class="cls-5"><text class="cls-13" transform="translate(654.6 197.4)">botto<tspan class="cls-14" x="29.96" y="0">m</tspan></text></g><g class="cls-5"><text class="cls-11" transform="translate(690.6 197.4)">&quot;</text></g><g class="cls-5"><text class="cls-11" transform="translate(232.8 217.2)"><tspan class="cls-12">labe</tspan><tspan x="23.97" y="0">l</tspan></text></g><g class="cls-5"><text class="cls-11" transform="translate(262.8 217.2)">.</text></g><g class="cls-5"><text class="cls-11" transform="translate(268.81 217.2)"><tspan class="cls-12">hjus</tspan><tspan x="23.97" y="0">t</tspan></text></g><g class="cls-5"><text class="cls-11" transform="translate(539.41 217.2)">(</text></g><g class="cls-5"><text class="cls-11" transform="translate(545.41 217.2)">0</text></g><g class="cls-5"><text class="cls-11" transform="translate(551.4 217.2)">~</text></g><g class="cls-5"><text class="cls-11" transform="translate(557.4 217.2)">1</text></g><g class="cls-5"><text class="cls-11" transform="translate(563.4 217.2)">)</text></g><g class="cls-5"><text class="cls-11" transform="translate(232.8 237)"><tspan class="cls-12">labe</tspan><tspan x="23.97" y="0">l</tspan></text></g><g class="cls-5"><text class="cls-11" transform="translate(262.8 237)">.</text></g><g class="cls-5"><text class="cls-11" transform="translate(268.81 237)"><tspan class="cls-12">vjus</tspan><tspan x="23.97" y="0">t</tspan></text></g><g class="cls-5"><text class="cls-11" transform="translate(539.41 237)">(</text></g><g class="cls-5"><text class="cls-11" transform="translate(545.41 237)">0</text></g><g class="cls-5"><text class="cls-11" transform="translate(551.4 237)">~</text></g><g class="cls-5"><text class="cls-11" transform="translate(557.4 237)">1</text></g><g class="cls-5"><text class="cls-11" transform="translate(563.4 237)">)</text></g><g class="cls-5"><text class="cls-11" transform="translate(232.8 256.8)"><tspan class="cls-12">defaul</tspan><tspan x="35.95" y="0">t</tspan></text></g><g class="cls-5"><text class="cls-11" transform="translate(274.81 256.8)">.</text></g><g class="cls-5"><text class="cls-11" transform="translate(280.81 256.8)"><tspan class="cls-12">uni</tspan><tspan x="17.98" y="0">t</tspan></text></g><g class="cls-5"><text class="cls-11" transform="translate(507 256.8)"><tspan class="cls-15">gri</tspan><tspan x="17.98" y="0">d</tspan></text></g><g class="cls-5"><text class="cls-11" transform="translate(531 256.8)"><tspan class="cls-15">:</tspan><tspan x="5.99" y="0">:</tspan></text></g><g class="cls-5"><text class="cls-11" transform="translate(543 256.8)"><tspan class="cls-15">uni</tspan><tspan x="17.98" y="0">t</tspan></text></g><g class="cls-5"><text class="cls-11" transform="translate(567 256.8)"><tspan class="cls-15">(</tspan><tspan x="5.99" y="0">)</tspan></text></g><g class="cls-5"><text class="cls-11" transform="translate(589.81 256.8)"><tspan class="cls-15">unit</tspan><tspan x="23.97" y="0">s</tspan></text></g><g class="cls-5"><text class="cls-11" transform="translate(706.2 256.8)">&quot;</text></g><g class="cls-5"><text class="cls-11" transform="translate(712.2 256.8)"><tspan class="cls-15">lin</tspan><tspan x="17.98" y="0">e</tspan></text></g><g class="cls-5"><text class="cls-11" transform="translate(736.2 256.8)">&quot;</text></g><g class="cls-5"><text class="cls-16" transform="translate(232.8 276.61)">barwidt<tspan class="cls-17" x="41.94" y="0">h</tspan></text></g><g class="cls-5"><text class="cls-11" transform="translate(232.8 296.41)"><tspan class="cls-12">barheigh</tspan><tspan x="47.94" y="0">t</tspan></text></g><g class="cls-5"><text class="cls-11" transform="translate(232.8 316.21)"><tspan class="cls-12">nbi</tspan><tspan x="17.98" y="0">n</tspan></text></g><g class="cls-5"><text class="cls-11" transform="translate(232.8 336.01)"><tspan class="cls-12">raste</tspan><tspan x="29.96" y="0">r</tspan></text></g><g class="cls-5"><text class="cls-11" transform="translate(232.8 355.81)"><tspan class="cls-12">fram</tspan><tspan x="23.97" y="0">e</tspan></text></g><g class="cls-5"><text class="cls-11" transform="translate(262.8 355.81)">.</text></g><g class="cls-5"><text class="cls-11" transform="translate(268.81 355.81)"><tspan class="cls-12">colou</tspan><tspan x="29.96" y="0">r</tspan></text></g><g class="cls-5"><text class="cls-11" transform="translate(232.8 375.61)"><tspan class="cls-12">fram</tspan><tspan x="23.97" y="0">e</tspan></text></g><g class="cls-5"><text class="cls-11" transform="translate(262.8 375.61)">.</text></g><g class="cls-5"><text class="cls-16" transform="translate(268.81 375.61)">linetyp<tspan class="cls-17" x="41.94" y="0">e</tspan></text></g><g class="cls-5"><text class="cls-11" transform="translate(232.8 395.4)"><tspan class="cls-12">fram</tspan><tspan x="23.97" y="0">e</tspan></text></g><g class="cls-5"><text class="cls-11" transform="translate(262.8 395.4)">.</text></g><g class="cls-5"><text class="cls-11" transform="translate(268.81 395.4)"><tspan class="cls-12">linewidt</tspan><tspan x="47.94" y="0">h</tspan></text></g><g class="cls-5"><text class="cls-11" transform="translate(232.8 415.21)"><tspan class="cls-12">tick</tspan><tspan x="23.97" y="0">s</tspan></text></g><g class="cls-5"><text class="cls-11" transform="translate(232.8 435)"><tspan class="cls-12">tick</tspan><tspan x="23.97" y="0">s</tspan></text></g><g class="cls-5"><text class="cls-11" transform="translate(262.8 435)">.</text></g><g class="cls-5"><text class="cls-11" transform="translate(268.81 435)"><tspan class="cls-12">colou</tspan><tspan x="29.96" y="0">r</tspan></text></g><g class="cls-5"><text class="cls-11" transform="translate(232.8 454.81)"><tspan class="cls-12">tick</tspan><tspan x="23.97" y="0">s</tspan></text></g><g class="cls-5"><text class="cls-11" transform="translate(262.8 454.81)">.</text></g><g class="cls-5"><text class="cls-11" transform="translate(268.81 454.81)"><tspan class="cls-12">linewidt</tspan><tspan x="47.94" y="0">h</tspan></text></g><g class="cls-5"><text class="cls-11" transform="translate(232.8 474.61)"><tspan class="cls-12">dra</tspan><tspan x="17.98" y="0">w</tspan></text></g><g class="cls-5"><text class="cls-11" transform="translate(256.8 474.61)">.</text></g><g class="cls-5"><text class="cls-11" transform="translate(262.8 474.61)"><tspan class="cls-12">uli</tspan><tspan x="17.98" y="0">m</tspan></text></g><g class="cls-5"><text class="cls-11" transform="translate(485.41 474.61)">(</text></g><g class="cls-5"><text class="cls-11" transform="translate(491.4 474.61)"><tspan class="cls-15">uppe</tspan><tspan x="23.97" y="0">r</tspan></text></g><g class="cls-5"><text class="cls-11" transform="translate(521.4 474.61)">)</text></g><g class="cls-5"><text class="cls-11" transform="translate(232.8 494.41)"><tspan class="cls-12">dra</tspan><tspan x="17.98" y="0">w</tspan></text></g><g class="cls-5"><text class="cls-11" transform="translate(256.8 494.41)">.</text></g><g class="cls-5"><text class="cls-11" transform="translate(262.8 494.41)"><tspan class="cls-12">lli</tspan><tspan x="17.98" y="0">m</tspan></text></g><g class="cls-5"><text class="cls-11" transform="translate(485.41 494.41)">(</text></g><g class="cls-5"><text class="cls-13" transform="translate(491.4 494.41)">lo<tspan class="cls-14" x="11.98" y="0">w</tspan></text></g><g class="cls-5"><text class="cls-11" transform="translate(509.41 494.41)">)</text></g><g class="cls-5"><text class="cls-16" transform="translate(232.8 514.2)">keywidt<tspan class="cls-17" x="41.94" y="0">h</tspan></text></g><g class="cls-5"><text class="cls-11" transform="translate(431.4 514.2)">,</text></g><g class="cls-5"><text class="cls-11" transform="translate(437.4 514.2)"> </text></g><g class="cls-5"><text class="cls-11" transform="translate(580.2 514.2)">,</text></g><g class="cls-5"><text class="cls-11" transform="translate(586.2 514.2)"> </text></g><g class="cls-5"><text class="cls-11" transform="translate(232.8 534.01)"><tspan class="cls-12">keyheigh</tspan><tspan x="47.94" y="0">t</tspan></text></g><g class="cls-5"><text class="cls-11" transform="translate(431.4 534.01)">,</text></g><g class="cls-5"><text class="cls-11" transform="translate(437.4 534.01)"> </text></g><g class="cls-5"><text class="cls-11" transform="translate(580.2 534.01)">,</text></g><g class="cls-5"><text class="cls-11" transform="translate(586.2 534.01)"> </text></g><g class="cls-5"><text class="cls-11" transform="translate(232.8 553.8)"><tspan class="cls-12">nro</tspan><tspan x="17.98" y="0">w</tspan></text></g><g class="cls-5"><text class="cls-11" transform="translate(232.8 573.61)"><tspan class="cls-12">nco</tspan><tspan x="17.98" y="0">l</tspan></text></g><g class="cls-5"><text class="cls-11" transform="translate(232.8 593.4)"><tspan class="cls-12">byro</tspan><tspan x="23.97" y="0">w</tspan></text></g><g class="cls-5"><text class="cls-11" transform="translate(550.2 593.4)"><tspan class="cls-15">FALS</tspan><tspan x="23.97" y="0">E</tspan></text></g><g class="cls-5"><text class="cls-18" transform="translate(345 39.61)">指定图例箱体排列方向</text></g><g class="cls-5"><text class="cls-18" transform="translate(453 39.61)">，</text></g><g class="cls-5"><text class="cls-18" transform="translate(535.81 39.61)">水平排列</text></g><g class="cls-5"><text class="cls-18" transform="translate(585 39.61)">或</text></g><g class="cls-5"><text class="cls-18" transform="translate(655.81 39.61)">垂直排列</text></g><g class="cls-5"><text class="cls-18" transform="translate(345 59.41)">逻辑值</text></g><g class="cls-5"><text class="cls-18" transform="translate(377.4 59.41)">，</text></g><g class="cls-5"><text class="cls-18" transform="translate(388.2 59.41)">是否翻转图例顺序</text></g><g class="cls-5"><text class="cls-18" transform="translate(480.6 59.41)">默认从小到大自上而下</text></g><g class="cls-5"><text class="cls-18" transform="translate(588.6 59.41)">，</text></g><g class="cls-5"><text class="cls-18" transform="translate(599.41 59.41)">翻转后从小到大自下而上</text></g><g class="cls-5"><text class="cls-18" transform="translate(345 79.2)">为数字</text></g><g class="cls-5"><text class="cls-18" transform="translate(377.4 79.2)">，</text></g><g class="cls-5"><text class="cls-18" transform="translate(388.2 79.2)">表示给图例编号</text></g><g class="cls-5"><text class="cls-18" transform="translate(463.81 79.2)">，</text></g><g class="cls-5"><text class="cls-18" transform="translate(474.6 79.2)">方便多个图例排列</text></g><g class="cls-5"><text class="cls-18" transform="translate(345 99.01)">指定标题名称</text></g><g class="cls-5"><text class="cls-18" transform="translate(345 118.8)">标题相对图例箱体的位置</text></g><g class="cls-5"><text class="cls-18" transform="translate(463.81 118.8)">，</text></g><g class="cls-5"><text class="cls-18" transform="translate(516.6 118.8)">、</text></g><g class="cls-5"><text class="cls-18" transform="translate(569.41 118.8)">、</text></g><g class="cls-5"><text class="cls-18" transform="translate(610.2 118.8)">、</text></g><g class="cls-5"><text class="cls-18" transform="translate(345 138.61)">为数字</text></g><g class="cls-5"><text class="cls-18" transform="translate(377.4 138.61)">，</text></g><g class="cls-5"><text class="cls-18" transform="translate(388.2 138.61)">指定图例标题水平位置偏移</text></g><g class="cls-5"><text class="cls-18" transform="translate(345 158.4)">为数字</text></g><g class="cls-5"><text class="cls-18" transform="translate(377.4 158.4)">，</text></g><g class="cls-5"><text class="cls-18" transform="translate(388.2 158.4)">指定图例标题垂直位置偏移</text></g><g class="cls-5"><text class="cls-18" transform="translate(345 178.21)">为逻辑值</text></g><g class="cls-5"><text class="cls-18" transform="translate(388.2 178.21)">，</text></g><g class="cls-5"><text class="cls-18" transform="translate(399 178.21)">是否显示图的标签</text></g><g class="cls-5"><text class="cls-18" transform="translate(345 198)">指定图例刻度标签相对箱体位置</text></g><g class="cls-5"><text class="cls-18" transform="translate(544.2 198)">、</text></g><g class="cls-5"><text class="cls-18" transform="translate(597 198)">、</text></g><g class="cls-5"><text class="cls-18" transform="translate(637.8 198)">、</text></g><g class="cls-5"><text class="cls-18" transform="translate(345 217.81)">为数字</text></g><g class="cls-5"><text class="cls-18" transform="translate(377.4 217.81)">，</text></g><g class="cls-5"><text class="cls-18" transform="translate(388.2 217.81)">指定图例刻度标签水平位置偏移</text></g><g class="cls-5"><text class="cls-18" transform="translate(345 237.61)">为数字</text></g><g class="cls-5"><text class="cls-18" transform="translate(377.4 237.61)">，</text></g><g class="cls-5"><text class="cls-18" transform="translate(388.2 237.61)">指定图例刻度标签垂直位置偏移</text></g><g class="cls-5"><text class="cls-18" transform="translate(345 257.4)">表示指定箱体尺寸单位</text></g><g class="cls-5"><text class="cls-18" transform="translate(453 257.4)">，</text></g><g class="cls-5"><text class="cls-18" transform="translate(463.81 257.4)">可选值与</text></g><g class="cls-5"><text class="cls-18" transform="translate(579 257.4)">的</text></g><g class="cls-5"><text class="cls-18" transform="translate(619.81 257.4)">参数相同</text></g><g class="cls-5"><text class="cls-18" transform="translate(663 257.4)">，</text></g><g class="cls-5"><text class="cls-18" transform="translate(673.81 257.4)">默认为</text></g><g class="cls-5"><text class="cls-18" transform="translate(345 277.2)">指定箱体宽度</text></g><g class="cls-5"><text class="cls-18" transform="translate(409.81 277.2)">，</text></g><g class="cls-5"><text class="cls-18" transform="translate(420.6 277.2)">为数字或</text></g><g class="cls-5"><text class="cls-18" transform="translate(535.81 277.2)">指定</text></g><g class="cls-5"><text class="cls-18" transform="translate(557.4 277.2)">，</text></g><g class="cls-5"><text class="cls-18" transform="translate(568.2 277.2)">默认单位为</text></g><g class="cls-5"><text class="cls-18" transform="translate(694.2 277.2)">指定的单位</text></g><g class="cls-5"><text class="cls-18" transform="translate(345 297)">指定箱体高度</text></g><g class="cls-5"><text class="cls-18" transform="translate(409.81 297)">，</text></g><g class="cls-5"><text class="cls-18" transform="translate(420.6 297)">为数字或</text></g><g class="cls-5"><text class="cls-18" transform="translate(535.81 297)">指定</text></g><g class="cls-5"><text class="cls-18" transform="translate(557.4 297)">，</text></g><g class="cls-5"><text class="cls-18" transform="translate(568.2 297)">默认单位为</text></g><g class="cls-5"><text class="cls-18" transform="translate(694.2 297)">指定的单位</text></g><g class="cls-5"><text class="cls-18" transform="translate(345 316.8)">指定分箱数</text></g><g class="cls-5"><text class="cls-18" transform="translate(399 316.8)">，</text></g><g class="cls-5"><text class="cls-18" transform="translate(409.81 316.8)">数字越大则渐变约平缓</text></g><g class="cls-5"><text class="cls-18" transform="translate(345 336.61)">逻辑值</text></g><g class="cls-5"><text class="cls-18" transform="translate(377.4 336.61)">，</text></g><g class="cls-5"><text class="cls-18" transform="translate(388.2 336.61)">表示是否将图例以删格形式呈现</text></g><g class="cls-5"><text class="cls-18" transform="translate(539.41 336.61)">，</text></g><g class="cls-5"><text class="cls-18" transform="translate(550.2 336.61)">不常用</text></g><g class="cls-5"><text class="cls-18" transform="translate(345 356.41)">表示指定箱体边框颜色</text></g><g class="cls-5"><text class="cls-18" transform="translate(453 356.41)">，</text></g><g class="cls-5"><text class="cls-18" transform="translate(463.81 356.41)">默认无边框</text></g><g class="cls-5"><text class="cls-18" transform="translate(345 376.21)">表示指定箱体边框线型</text></g><g class="cls-5"><text class="cls-18" transform="translate(345 396.01)">表示指定箱体边框线宽</text></g><g class="cls-5"><text class="cls-18" transform="translate(345 415.81)">逻辑值</text></g><g class="cls-5"><text class="cls-18" transform="translate(377.4 415.81)">，</text></g><g class="cls-5"><text class="cls-18" transform="translate(388.2 415.81)">表示是否显示刻度线</text></g><g class="cls-5"><text class="cls-18" transform="translate(345 435.61)">指定刻度线颜色</text></g><g class="cls-5"><text class="cls-18" transform="translate(345 455.4)">指定刻度线线宽</text></g><g class="cls-5"><text class="cls-18" transform="translate(345 475.21)">逻辑值</text></g><g class="cls-5"><text class="cls-18" transform="translate(377.4 475.21)">，</text></g><g class="cls-5"><text class="cls-18" transform="translate(388.2 475.21)">表示是否显示最大值</text></g><g class="cls-5"><text class="cls-18" transform="translate(527.4 475.21)">刻度线</text></g><g class="cls-5"><text class="cls-18" transform="translate(345 495)">逻辑值</text></g><g class="cls-5"><text class="cls-18" transform="translate(377.4 495)">，</text></g><g class="cls-5"><text class="cls-18" transform="translate(388.2 495)">表示是否显示最小值</text></g><g class="cls-5"><text class="cls-18" transform="translate(515.41 495)">刻度线</text></g><g class="cls-5"><text class="cls-18" transform="translate(345 514.81)">指定单个箱体宽度</text></g><g class="cls-5"><text class="cls-18" transform="translate(443.4 514.81)">为数字或</text></g><g class="cls-5"><text class="cls-18" transform="translate(558.6 514.81)">指定</text></g><g class="cls-5"><text class="cls-18" transform="translate(592.2 514.81)">默认单位为</text></g><g class="cls-5"><text class="cls-18" transform="translate(718.2 514.81)">指定的单位</text></g><g class="cls-5"><text class="cls-18" transform="translate(345 534.61)">指定单个箱体高度</text></g><g class="cls-5"><text class="cls-18" transform="translate(443.4 534.61)">为数字或</text></g><g class="cls-5"><text class="cls-18" transform="translate(558.6 534.61)">指定</text></g><g class="cls-5"><text class="cls-18" transform="translate(592.2 534.61)">默认单位为</text></g><g class="cls-5"><text class="cls-18" transform="translate(718.2 534.61)">指定的单位</text></g><g class="cls-5"><text class="cls-18" transform="translate(345 554.41)">为数字</text></g><g class="cls-5"><text class="cls-18" transform="translate(377.4 554.41)">，</text></g><g class="cls-5"><text class="cls-18" transform="translate(388.2 554.41)">表示指定图例箱体排列行数</text></g><g class="cls-5"><text class="cls-18" transform="translate(345 574.2)">为数字</text></g><g class="cls-5"><text class="cls-18" transform="translate(377.4 574.2)">，</text></g><g class="cls-5"><text class="cls-18" transform="translate(388.2 574.2)">表示指定图例箱体排列列数</text></g><g class="cls-5"><text class="cls-18" transform="translate(345 594.01)">逻辑值</text></g><g class="cls-5"><text class="cls-18" transform="translate(377.4 594.01)">，</text></g><g class="cls-5"><text class="cls-18" transform="translate(388.2 594.01)">表示图例箱体是否按行排列</text></g><g class="cls-5"><text class="cls-18" transform="translate(517.8 594.01)">，</text></g><g class="cls-5"><text class="cls-18" transform="translate(528.6 594.01)">默认</text></g><g class="cls-5"><text class="cls-18" transform="translate(580.2 594.01)">按列排</text></g><g class="cls-5"><text class="cls-19" transform="translate(5.99 370.2)">guide</text></g><g class="cls-5"><text class="cls-19" transform="translate(39 370.2)">_</text></g><g class="cls-5"><text class="cls-19" transform="translate(45.59 370.2)">colorbar</text></g><g class="cls-5"><text class="cls-19" transform="translate(98.4 370.2)">()</text></g><g class="cls-5"><text class="cls-19" transform="translate(3 401.39)">guide</text></g><g class="cls-5"><text class="cls-19" transform="translate(35.99 401.39)">_</text></g><g class="cls-5"><text class="cls-19" transform="translate(42.59 401.39)">colourbar</text></g><g class="cls-5"><text class="cls-19" transform="translate(101.99 401.39)">()</text></g><g class="cls-5"><text class="cls-19" transform="translate(19.8 554.4)">guide</text></g><g class="cls-5"><text class="cls-19" transform="translate(52.8 554.4)">_</text></g><g class="cls-5"><text class="cls-19" transform="translate(59.4 554.4)">legend</text></g><g class="cls-5"><text class="cls-20" transform="translate(52.8 386.39)">或</text></g><g class="cls-5"><text class="cls-21" transform="translate(463.81 276.61)"><tspan class="cls-15">gri</tspan><tspan x="17.98" y="0">d</tspan></text></g><g class="cls-5"><text class="cls-21" transform="translate(487.8 276.61)"><tspan class="cls-15">:</tspan><tspan x="5.99" y="0">:</tspan></text></g><g class="cls-5"><text class="cls-21" transform="translate(499.81 276.61)"><tspan class="cls-15">uni</tspan><tspan x="17.98" y="0">t</tspan></text></g><g class="cls-5"><text class="cls-21" transform="translate(523.81 276.61)"><tspan class="cls-15">(</tspan><tspan x="5.99" y="0">)</tspan></text></g><g class="cls-5"><text class="cls-21" transform="translate(463.81 296.41)"><tspan class="cls-15">gri</tspan><tspan x="17.98" y="0">d</tspan></text></g><g class="cls-5"><text class="cls-21" transform="translate(487.8 296.41)"><tspan class="cls-15">:</tspan><tspan x="5.99" y="0">:</tspan></text></g><g class="cls-5"><text class="cls-21" transform="translate(499.81 296.41)"><tspan class="cls-15">uni</tspan><tspan x="17.98" y="0">t</tspan></text></g><g class="cls-5"><text class="cls-21" transform="translate(523.81 296.41)"><tspan class="cls-15">(</tspan><tspan x="5.99" y="0">)</tspan></text></g><g class="cls-5"><text class="cls-21" transform="translate(486.6 514.2)"><tspan class="cls-15">gri</tspan><tspan x="17.98" y="0">d</tspan></text></g><g class="cls-5"><text class="cls-21" transform="translate(510.6 514.2)"><tspan class="cls-15">:</tspan><tspan x="5.99" y="0">:</tspan></text></g><g class="cls-5"><text class="cls-21" transform="translate(522.6 514.2)"><tspan class="cls-15">uni</tspan><tspan x="17.98" y="0">t</tspan></text></g><g class="cls-5"><text class="cls-21" transform="translate(546.6 514.2)"><tspan class="cls-15">(</tspan><tspan x="5.99" y="0">)</tspan></text></g><g class="cls-5"><text class="cls-21" transform="translate(486.6 534.01)"><tspan class="cls-15">gri</tspan><tspan x="17.98" y="0">d</tspan></text></g><g class="cls-5"><text class="cls-21" transform="translate(510.6 534.01)"><tspan class="cls-15">:</tspan><tspan x="5.99" y="0">:</tspan></text></g><g class="cls-5"><text class="cls-21" transform="translate(522.6 534.01)"><tspan class="cls-15">uni</tspan><tspan x="17.98" y="0">t</tspan></text></g><g class="cls-5"><text class="cls-21" transform="translate(546.6 534.01)"><tspan class="cls-15">(</tspan><tspan x="5.99" y="0">)</tspan></text></g><g class="cls-5"><text class="cls-22" transform="translate(622.2 276.61)">defaul<tspan class="cls-14" x="35.95" y="0">t</tspan></text></g><g class="cls-5"><text class="cls-23" transform="translate(664.2 276.61)">.</text></g><g class="cls-5"><text class="cls-23" transform="translate(670.2 276.61)"><tspan class="cls-15">uni</tspan><tspan x="17.98" y="0">t</tspan></text></g><g class="cls-5"><text class="cls-22" transform="translate(622.2 296.41)">defaul<tspan class="cls-14" x="35.95" y="0">t</tspan></text></g><g class="cls-5"><text class="cls-23" transform="translate(664.2 296.41)">.</text></g><g class="cls-5"><text class="cls-23" transform="translate(670.2 296.41)"><tspan class="cls-15">uni</tspan><tspan x="17.98" y="0">t</tspan></text></g><g class="cls-5"><text class="cls-22" transform="translate(646.2 514.2)">defaul<tspan class="cls-14" x="35.95" y="0">t</tspan></text></g><g class="cls-5"><text class="cls-23" transform="translate(688.2 514.2)">.</text></g><g class="cls-5"><text class="cls-23" transform="translate(694.2 514.2)"><tspan class="cls-15">uni</tspan><tspan x="17.98" y="0">t</tspan></text></g><g class="cls-5"><text class="cls-22" transform="translate(646.2 534.01)">defaul<tspan class="cls-14" x="35.95" y="0">t</tspan></text></g><g class="cls-5"><text class="cls-23" transform="translate(688.2 534.01)">.</text></g><g class="cls-5"><text class="cls-23" transform="translate(694.2 534.01)"><tspan class="cls-15">uni</tspan><tspan x="17.98" y="0">t</tspan></text></g><line class="cls-24" x1="0.3" y1="0.3" x2="862.2" y2="0.3"/><line class="cls-24" x1="0.3" y1="24.9" x2="862.2" y2="24.9"/><line class="cls-24" x1="218.7" y1="44.7" x2="862.2" y2="44.7"/><line class="cls-24" x1="218.7" y1="64.5" x2="862.2" y2="64.5"/><line class="cls-24" x1="117.3" y1="84.3" x2="862.2" y2="84.3"/><line class="cls-24" x1="218.7" y1="104.1" x2="862.2" y2="104.1"/><line class="cls-24" x1="218.7" y1="123.9" x2="862.2" y2="123.9"/><line class="cls-24" x1="218.7" y1="143.7" x2="862.2" y2="143.7"/><line class="cls-24" x1="117.3" y1="163.5" x2="862.2" y2="163.5"/><line class="cls-24" x1="218.7" y1="183.3" x2="862.2" y2="183.3"/><line class="cls-24" x1="218.7" y1="203.1" x2="862.2" y2="203.1"/><line class="cls-24" x1="218.7" y1="222.9" x2="862.2" y2="222.9"/><line class="cls-24" x1="218.7" y1="242.7" x2="862.2" y2="242.7"/><line class="cls-24" x1="0.3" y1="262.5" x2="862.2" y2="262.5"/><line class="cls-24" x1="218.7" y1="282.3" x2="862.2" y2="282.3"/><line class="cls-24" x1="218.7" y1="302.1" x2="862.2" y2="302.1"/><line class="cls-24" x1="218.7" y1="321.9" x2="862.2" y2="321.9"/><line class="cls-24" x1="117.3" y1="341.7" x2="862.2" y2="341.7"/><line class="cls-24" x1="218.7" y1="361.5" x2="862.2" y2="361.5"/><line class="cls-24" x1="218.7" y1="381.3" x2="862.2" y2="381.3"/><line class="cls-24" x1="117.3" y1="401.1" x2="862.2" y2="401.1"/><line class="cls-24" x1="218.7" y1="420.9" x2="862.2" y2="420.9"/><line class="cls-24" x1="218.7" y1="440.7" x2="862.2" y2="440.7"/><line class="cls-24" x1="218.7" y1="460.5" x2="862.2" y2="460.5"/><line class="cls-24" x1="218.7" y1="480.3" x2="862.2" y2="480.3"/><line class="cls-24" x1="0.3" y1="500.1" x2="862.2" y2="500.1"/><line class="cls-24" x1="218.7" y1="519.9" x2="862.2" y2="519.9"/><line class="cls-24" x1="117.3" y1="539.7" x2="862.2" y2="539.7"/><line class="cls-24" x1="218.7" y1="559.5" x2="862.2" y2="559.5"/><line class="cls-24" x1="218.7" y1="579.3" x2="862.2" y2="579.3"/><line class="cls-24" x1="0.3" y1="598.8" x2="862.2" y2="598.8"/><line class="cls-24" x1="0.3" y1="0.3" x2="0.3" y2="599.4"/><line class="cls-24" x1="117.3" y1="0.3" x2="117.3" y2="599.4"/><line class="cls-24" x1="218.7" y1="0.3" x2="218.7" y2="599.4"/><line class="cls-24" x1="330.9" y1="0.3" x2="330.9" y2="599.4"/><line class="cls-24" x1="861.6" y1="0.3" x2="861.6" y2="599.4"/></g></g></svg>