<svg xmlns="http://www.w3.org/2000/svg" xmlns:xlink="http://www.w3.org/1999/xlink" viewBox="0 0 868.8 444"><defs><style>.cls-1,.cls-14{fill:none;}.cls-2{fill:#ddd9c4;}.cls-2,.cls-3{fill-rule:evenodd;}.cls-3{fill:#ebf1de;}.cls-4{clip-path:url(#clip-path);}.cls-5,.cls-7{font-size:10.8px;stroke-miterlimit:10;stroke-width:0.31px;}.cls-14,.cls-5,.cls-7{stroke:#000;}.cls-10,.cls-5,.cls-7{font-family:KaiTi;}.cls-6{letter-spacing:0.06em;}.cls-7{letter-spacing:0.05em;}.cls-8{letter-spacing:0em;}.cls-10,.cls-11,.cls-12,.cls-13,.cls-9{font-size:12px;}.cls-11,.cls-9{font-family:Consolas;}.cls-11,.cls-12{fill:red;}.cls-12,.cls-13{font-family:SimSun;}.cls-14{stroke-linejoin:bevel;stroke-width:0.6px;}</style><clipPath id="clip-path"><rect class="cls-1" x="0.6" y="0.6" width="868.2" height="443.4"/></clipPath></defs><title>Position</title><g id="图层_2" data-name="图层 2"><g id="图层_1-2" data-name="图层 1"><polygon class="cls-2" points="0 0 166.8 0 166.8 45.6 0 45.6 0 0 0 0"/><polygon class="cls-2" points="166.2 0 279 0 279 45.6 166.2 45.6 166.2 0 166.2 0"/><polygon class="cls-2" points="278.4 0 517.8 0 517.8 45.6 278.4 45.6 278.4 0 278.4 0"/><polygon class="cls-2" points="517.2 0 868.8 0 868.8 45.6 517.2 45.6 517.2 0 517.2 0"/><polygon class="cls-3" points="0 45 166.8 45 166.8 95.4 0 95.4 0 45 0 45"/><polygon class="cls-3" points="166.2 45 279 45 279 95.4 166.2 95.4 166.2 45 166.2 45"/><polygon class="cls-3" points="278.4 45 517.8 45 517.8 95.4 278.4 95.4 278.4 45 278.4 45"/><polygon class="cls-3" points="517.2 45 868.8 45 868.8 444 517.2 444 517.2 45 517.2 45"/><polygon class="cls-3" points="0 94.8 166.8 94.8 166.8 145.2 0 145.2 0 94.8 0 94.8"/><polygon class="cls-3" points="166.2 94.8 279 94.8 279 145.2 166.2 145.2 166.2 94.8 166.2 94.8"/><polygon class="cls-3" points="278.4 94.8 517.8 94.8 517.8 145.2 278.4 145.2 278.4 94.8 278.4 94.8"/><polygon class="cls-3" points="0 144.6 166.8 144.6 166.8 195 0 195 0 144.6 0 144.6"/><polygon class="cls-3" points="166.2 144.6 279 144.6 279 195 166.2 195 166.2 144.6 166.2 144.6"/><polygon class="cls-3" points="278.4 144.6 517.8 144.6 517.8 195 278.4 195 278.4 144.6 278.4 144.6"/><polygon class="cls-3" points="0 194.4 166.8 194.4 166.8 244.8 0 244.8 0 194.4 0 194.4"/><polygon class="cls-3" points="166.2 194.4 279 194.4 279 244.8 166.2 244.8 166.2 194.4 166.2 194.4"/><polygon class="cls-3" points="278.4 194.4 517.8 194.4 517.8 294.6 278.4 294.6 278.4 194.4 278.4 194.4"/><polygon class="cls-3" points="0 244.2 166.8 244.2 166.8 294.6 0 294.6 0 244.2 0 244.2"/><polygon class="cls-3" points="166.2 244.2 279 244.2 279 294.6 166.2 294.6 166.2 244.2 166.2 244.2"/><polygon class="cls-3" points="0 294 166.8 294 166.8 344.4 0 344.4 0 294 0 294"/><polygon class="cls-3" points="166.2 294 279 294 279 344.4 166.2 344.4 166.2 294 166.2 294"/><polygon class="cls-3" points="278.4 294 517.8 294 517.8 344.4 278.4 344.4 278.4 294 278.4 294"/><polygon class="cls-3" points="0 343.8 166.8 343.8 166.8 394.2 0 394.2 0 343.8 0 343.8"/><polygon class="cls-3" points="166.2 343.8 279 343.8 279 394.2 166.2 394.2 166.2 343.8 166.2 343.8"/><polygon class="cls-3" points="278.4 343.8 517.8 343.8 517.8 394.2 278.4 394.2 278.4 343.8 278.4 343.8"/><polygon class="cls-3" points="0 393.6 166.8 393.6 166.8 444 0 444 0 393.6 0 393.6"/><polygon class="cls-3" points="166.2 393.6 279 393.6 279 444 166.2 444 166.2 393.6 166.2 393.6"/><polygon class="cls-3" points="278.4 393.6 517.8 393.6 517.8 444 278.4 444 278.4 393.6 278.4 393.6"/><g class="cls-4"><text class="cls-5" transform="translate(72.6 27.61)"><tspan class="cls-6">函</tspan><tspan x="11.39" y="0">数</tspan></text></g><g class="cls-4"><text class="cls-5" transform="translate(211.8 27.61)"><tspan class="cls-6">功</tspan><tspan x="11.39" y="0">能</tspan></text></g><g class="cls-4"><text class="cls-5" transform="translate(387 27.61)"><tspan class="cls-6">参</tspan><tspan x="11.39" y="0">数</tspan></text></g><g class="cls-4"><text class="cls-7" transform="translate(670.8 27.61)">参数说<tspan class="cls-8" x="34.18" y="0">明</tspan></text></g><g class="cls-4"><text class="cls-9" transform="translate(18 75)">position</text></g><g class="cls-4"><text class="cls-9" transform="translate(70.8 75)">_</text></g><g class="cls-4"><text class="cls-9" transform="translate(77.39 75)">identity</text></g><g class="cls-4"><text class="cls-9" transform="translate(130.2 75)">(</text></g><g class="cls-4"><text class="cls-9" transform="translate(136.79 75)"> </text></g><g class="cls-4"><text class="cls-9" transform="translate(143.4 75)">)</text></g><g class="cls-4"><text class="cls-9" transform="translate(395.4 75)">_</text></g><g class="cls-4"><text class="cls-9" transform="translate(27.6 124.79)">position</text></g><g class="cls-4"><text class="cls-9" transform="translate(80.4 124.79)">_</text></g><g class="cls-4"><text class="cls-9" transform="translate(87 124.79)">dodge</text></g><g class="cls-4"><text class="cls-9" transform="translate(120 124.79)">(</text></g><g class="cls-4"><text class="cls-9" transform="translate(126.6 124.79)"> </text></g><g class="cls-4"><text class="cls-9" transform="translate(133.2 124.79)">)</text></g><g class="cls-4"><text class="cls-9" transform="translate(348.6 124.79)">width</text></g><g class="cls-4"><text class="cls-9" transform="translate(381.6 124.79)">,</text></g><g class="cls-4"><text class="cls-9" transform="translate(388.2 124.79)"> </text></g><g class="cls-4"><text class="cls-9" transform="translate(394.79 124.79)">preserve</text></g><g class="cls-4"><text class="cls-9" transform="translate(24.6 174.59)">position</text></g><g class="cls-4"><text class="cls-9" transform="translate(77.39 174.59)">_</text></g><g class="cls-4"><text class="cls-9" transform="translate(84 174.59)">dodge</text></g><g class="cls-4"><text class="cls-9" transform="translate(117 174.59)">2</text></g><g class="cls-4"><text class="cls-9" transform="translate(123.6 174.59)">(</text></g><g class="cls-4"><text class="cls-9" transform="translate(130.2 174.59)"> </text></g><g class="cls-4"><text class="cls-9" transform="translate(136.79 174.59)">)</text></g><g class="cls-4"><text class="cls-9" transform="translate(312.6 174.59)">preserve</text></g><g class="cls-4"><text class="cls-9" transform="translate(365.4 174.59)">,</text></g><g class="cls-4"><text class="cls-9" transform="translate(372 174.59)"> </text></g><g class="cls-4"><text class="cls-9" transform="translate(378.6 174.59)">padding</text></g><g class="cls-4"><text class="cls-9" transform="translate(424.79 174.59)">,</text></g><g class="cls-4"><text class="cls-9" transform="translate(431.39 174.59)"> </text></g><g class="cls-4"><text class="cls-9" transform="translate(438 174.59)">reverse</text></g><g class="cls-4"><text class="cls-9" transform="translate(27.6 224.4)">position</text></g><g class="cls-4"><text class="cls-9" transform="translate(80.4 224.4)">_</text></g><g class="cls-4"><text class="cls-9" transform="translate(87 224.4)">stack</text></g><g class="cls-4"><text class="cls-9" transform="translate(120 224.4)">(</text></g><g class="cls-4"><text class="cls-9" transform="translate(126.6 224.4)"> </text></g><g class="cls-4"><text class="cls-9" transform="translate(133.2 224.4)">)</text></g><g class="cls-4"><text class="cls-9" transform="translate(352.2 248.99)">vjust</text></g><g class="cls-4"><text class="cls-9" transform="translate(385.2 248.99)">,</text></g><g class="cls-4"><text class="cls-9" transform="translate(391.79 248.99)"> </text></g><g class="cls-4"><text class="cls-9" transform="translate(398.4 248.99)">reverse</text></g><g class="cls-4"><text class="cls-9" transform="translate(31.2 274.19)">position</text></g><g class="cls-4"><text class="cls-9" transform="translate(84 274.19)">_</text></g><g class="cls-4"><text class="cls-9" transform="translate(90.6 274.19)">fill</text></g><g class="cls-4"><text class="cls-9" transform="translate(117 274.19)">(</text></g><g class="cls-4"><text class="cls-9" transform="translate(123.6 274.19)"> </text></g><g class="cls-4"><text class="cls-9" transform="translate(130.2 274.19)">)</text></g><g class="cls-4"><text class="cls-9" transform="translate(24.6 323.99)">position</text></g><g class="cls-4"><text class="cls-9" transform="translate(77.39 323.99)">_</text></g><g class="cls-4"><text class="cls-9" transform="translate(84 323.99)">jitter</text></g><g class="cls-4"><text class="cls-9" transform="translate(123.6 323.99)">(</text></g><g class="cls-4"><text class="cls-9" transform="translate(130.2 323.99)"> </text></g><g class="cls-4"><text class="cls-9" transform="translate(136.79 323.99)">)</text></g><g class="cls-4"><text class="cls-9" transform="translate(335.4 323.99)">width</text></g><g class="cls-4"><text class="cls-9" transform="translate(368.4 323.99)">,</text></g><g class="cls-4"><text class="cls-9" transform="translate(375 323.99)"> </text></g><g class="cls-4"><text class="cls-9" transform="translate(381.6 323.99)">height</text></g><g class="cls-4"><text class="cls-9" transform="translate(421.2 323.99)">,</text></g><g class="cls-4"><text class="cls-9" transform="translate(427.8 323.99)"> </text></g><g class="cls-4"><text class="cls-9" transform="translate(434.4 323.99)">seed</text></g><g class="cls-4"><text class="cls-9" transform="translate(7.8 373.79)">position</text></g><g class="cls-4"><text class="cls-9" transform="translate(60.6 373.79)">_</text></g><g class="cls-4"><text class="cls-9" transform="translate(67.2 373.79)">jitterdodge</text></g><g class="cls-4"><text class="cls-9" transform="translate(139.79 373.79)">(</text></g><g class="cls-4"><text class="cls-9" transform="translate(146.39 373.79)"> </text></g><g class="cls-4"><text class="cls-9" transform="translate(153 373.79)">)</text></g><g class="cls-4"><text class="cls-9" transform="translate(306 365.99)">jitter</text></g><g class="cls-4"><text class="cls-9" transform="translate(345.6 365.99)">.</text></g><g class="cls-4"><text class="cls-9" transform="translate(352.2 365.99)">width</text></g><g class="cls-4"><text class="cls-9" transform="translate(385.2 365.99)">,</text></g><g class="cls-4"><text class="cls-9" transform="translate(391.79 365.99)"> </text></g><g class="cls-4"><text class="cls-9" transform="translate(398.4 365.99)">jitter</text></g><g class="cls-4"><text class="cls-9" transform="translate(438 365.99)">.</text></g><g class="cls-4"><text class="cls-9" transform="translate(444.6 365.99)">height</text></g><g class="cls-4"><text class="cls-9" transform="translate(484.2 365.99)">,</text></g><g class="cls-4"><text class="cls-9" transform="translate(490.8 365.99)"> </text></g><g class="cls-4"><text class="cls-9" transform="translate(342 381.6)">dodge</text></g><g class="cls-4"><text class="cls-9" transform="translate(375 381.6)">.</text></g><g class="cls-4"><text class="cls-9" transform="translate(381.6 381.6)">width</text></g><g class="cls-4"><text class="cls-9" transform="translate(414.6 381.6)">,</text></g><g class="cls-4"><text class="cls-9" transform="translate(421.2 381.6)"> </text></g><g class="cls-4"><text class="cls-9" transform="translate(427.8 381.6)">seed</text></g><g class="cls-4"><text class="cls-9" transform="translate(27.6 423.6)">position</text></g><g class="cls-4"><text class="cls-9" transform="translate(80.4 423.6)">_</text></g><g class="cls-4"><text class="cls-9" transform="translate(87 423.6)">nudge</text></g><g class="cls-4"><text class="cls-9" transform="translate(120 423.6)">(</text></g><g class="cls-4"><text class="cls-9" transform="translate(126.6 423.6)"> </text></g><g class="cls-4"><text class="cls-9" transform="translate(133.2 423.6)">)</text></g><g class="cls-4"><text class="cls-9" transform="translate(385.2 423.6)">x</text></g><g class="cls-4"><text class="cls-9" transform="translate(391.79 423.6)">,</text></g><g class="cls-4"><text class="cls-9" transform="translate(398.4 423.6)"> </text></g><g class="cls-4"><text class="cls-9" transform="translate(405 423.6)">y</text></g><g class="cls-4"><text class="cls-10" transform="translate(199.2 75.59)">位置不变</text></g><g class="cls-4"><text class="cls-10" transform="translate(187.2 125.4)">水平并列放置</text></g><g class="cls-4"><text class="cls-10" transform="translate(187.2 175.19)">水平并列放置</text></g><g class="cls-4"><text class="cls-10" transform="translate(199.2 225)">垂直堆叠</text></g><g class="cls-4"><text class="cls-10" transform="translate(193.2 274.79)">百分比填充</text></g><g class="cls-4"><text class="cls-10" transform="translate(199.2 324.59)">扰动处理</text></g><g class="cls-4"><text class="cls-10" transform="translate(199.2 374.4)">并列抖动</text></g><g class="cls-4"><text class="cls-10" transform="translate(187.2 424.19)">整体位置调整</text></g><g class="cls-4"><text class="cls-11" transform="translate(531.6 155.4)">dodge</text></g><g class="cls-4"><text class="cls-11" transform="translate(564.6 155.4)">.</text></g><g class="cls-4"><text class="cls-11" transform="translate(571.2 155.4)">width</text></g><g class="cls-4"><text class="cls-11" transform="translate(531.6 170.99)">height</text></g><g class="cls-4"><text class="cls-11" transform="translate(571.2 170.99)">:</text></g><g class="cls-4"><text class="cls-11" transform="translate(577.8 170.99)"> </text></g><g class="cls-4"><text class="cls-11" transform="translate(531.6 186.6)">jitter</text></g><g class="cls-4"><text class="cls-11" transform="translate(571.2 186.6)">.</text></g><g class="cls-4"><text class="cls-11" transform="translate(577.8 186.6)">height</text></g><g class="cls-4"><text class="cls-11" transform="translate(617.39 186.6)">:</text></g><g class="cls-4"><text class="cls-11" transform="translate(624 186.6)"> </text></g><g class="cls-4"><text class="cls-11" transform="translate(531.6 202.19)">jitter</text></g><g class="cls-4"><text class="cls-11" transform="translate(571.2 202.19)">.</text></g><g class="cls-4"><text class="cls-11" transform="translate(577.8 202.19)">width</text></g><g class="cls-4"><text class="cls-11" transform="translate(610.8 202.19)">:</text></g><g class="cls-4"><text class="cls-11" transform="translate(617.39 202.19)"> </text></g><g class="cls-4"><text class="cls-11" transform="translate(531.6 217.79)">padding</text></g><g class="cls-4"><text class="cls-11" transform="translate(577.8 217.79)">:</text></g><g class="cls-4"><text class="cls-11" transform="translate(584.4 217.79)"> </text></g><g class="cls-4"><text class="cls-11" transform="translate(531.6 233.4)">preserve</text></g><g class="cls-4"><text class="cls-11" transform="translate(584.4 233.4)">:</text></g><g class="cls-4"><text class="cls-11" transform="translate(591 233.4)"> </text></g><g class="cls-4"><text class="cls-11" transform="translate(531.6 264.59)">reverse</text></g><g class="cls-4"><text class="cls-11" transform="translate(577.8 264.59)">:</text></g><g class="cls-4"><text class="cls-11" transform="translate(584.4 264.59)"> </text></g><g class="cls-4"><text class="cls-11" transform="translate(531.6 280.19)">seed</text></g><g class="cls-4"><text class="cls-11" transform="translate(558 280.19)">:</text></g><g class="cls-4"><text class="cls-11" transform="translate(564.6 280.19)"> </text></g><g class="cls-4"><text class="cls-11" transform="translate(531.6 295.79)">vjust</text></g><g class="cls-4"><text class="cls-11" transform="translate(564.6 295.79)">:</text></g><g class="cls-4"><text class="cls-11" transform="translate(571.2 295.79)"> </text></g><g class="cls-4"><text class="cls-11" transform="translate(531.6 311.39)">width</text></g><g class="cls-4"><text class="cls-11" transform="translate(564.6 311.39)">:</text></g><g class="cls-4"><text class="cls-11" transform="translate(571.2 311.39)"> </text></g><g class="cls-4"><text class="cls-11" transform="translate(531.6 342.59)">x</text></g><g class="cls-4"><text class="cls-11" transform="translate(538.2 342.59)">,</text></g><g class="cls-4"><text class="cls-11" transform="translate(544.79 342.59)"> </text></g><g class="cls-4"><text class="cls-11" transform="translate(551.39 342.59)">y</text></g><g class="cls-4"><text class="cls-11" transform="translate(558 342.59)">:</text></g><g class="cls-4"><text class="cls-11" transform="translate(564.6 342.59)"> </text></g><g class="cls-4"><text class="cls-12" transform="translate(604.2 155.4)">：</text></g><g class="cls-4"><text class="cls-13" transform="translate(616.2 155.4)">同</text></g><g class="cls-4"><text class="cls-13" transform="translate(733.8 155.4)">参数</text></g><g class="cls-4"><text class="cls-13" transform="translate(584.4 170.99)">指定垂直方向的抖动量</text></g><g class="cls-4"><text class="cls-13" transform="translate(630.6 186.6)">同</text></g><g class="cls-4"><text class="cls-13" transform="translate(754.79 186.6)">参数</text></g><g class="cls-4"><text class="cls-13" transform="translate(624 202.19)">同</text></g><g class="cls-4"><text class="cls-13" transform="translate(748.2 202.19)">参数</text></g><g class="cls-4"><text class="cls-13" transform="translate(591 217.79)">指定不同组分之间填充比例</text></g><g class="cls-4"><text class="cls-13" transform="translate(597.6 233.4)">指定对于缺失组分的位置处理方式</text></g><g class="cls-4"><text class="cls-13" transform="translate(777.6 233.4)">，</text></g><g class="cls-4"><text class="cls-13" transform="translate(835.8 233.4)">保留</text></g><g class="cls-4"><text class="cls-13" transform="translate(531.6 249.59)">其所占的宽度</text></g><g class="cls-4"><text class="cls-13" transform="translate(669.6 249.59)">将其宽度分配给其他组分</text></g><g class="cls-4"><text class="cls-13" transform="translate(591 264.59)">指定是否颠倒不同组分的绘图顺序以及图例的顺序</text></g><g class="cls-4"><text class="cls-13" transform="translate(571.2 280.19)">指定随机种子</text></g><g class="cls-4"><text class="cls-13" transform="translate(656.39 280.19)">以便达到相同的抖动效果</text></g><g class="cls-4"><text class="cls-13" transform="translate(577.8 295.79)">指定垂直参照锚点位置</text></g><g class="cls-4"><text class="cls-13" transform="translate(711 295.79)">仅作用于</text></g><g class="cls-4"><text class="cls-13" transform="translate(765.6 295.79)">点</text></g><g class="cls-4"><text class="cls-13" transform="translate(777.6 295.79)">、</text></g><g class="cls-4"><text class="cls-13" transform="translate(789.6 295.79)">线</text></g><g class="cls-4"><text class="cls-13" transform="translate(801.6 295.79)">、</text></g><g class="cls-4"><text class="cls-13" transform="translate(813.6 295.79)">文字</text></g><g class="cls-4"><text class="cls-13" transform="translate(577.8 311.39)">对于</text></g><g class="cls-4"><text class="cls-13" transform="translate(707.39 311.39)">用于指定不同组分之间的填充</text></g><g class="cls-4"><text class="cls-13" transform="translate(531.6 327.59)">宽度</text></g><g class="cls-4"><text class="cls-13" transform="translate(568.8 327.59)">对于</text></g><g class="cls-4"><text class="cls-13" transform="translate(705 327.59)">用于指定水平方向的抖动量</text></g><g class="cls-4"><text class="cls-13" transform="translate(571.2 342.59)">指定水平或垂直方向上的位移量</text></g><g class="cls-4"><text class="cls-9" transform="translate(628.2 155.4)">position</text></g><g class="cls-4"><text class="cls-9" transform="translate(681 155.4)">_</text></g><g class="cls-4"><text class="cls-9" transform="translate(687.6 155.4)">dodge</text></g><g class="cls-4"><text class="cls-9" transform="translate(720.6 155.4)">()</text></g><g class="cls-4"><text class="cls-9" transform="translate(757.8 155.4)">&quot;</text></g><g class="cls-4"><text class="cls-9" transform="translate(764.4 155.4)">width</text></g><g class="cls-4"><text class="cls-9" transform="translate(797.39 155.4)">&quot;</text></g><g class="cls-4"><text class="cls-9" transform="translate(642.6 186.6)">position</text></g><g class="cls-4"><text class="cls-9" transform="translate(695.4 186.6)">_</text></g><g class="cls-4"><text class="cls-9" transform="translate(702 186.6)">jitter</text></g><g class="cls-4"><text class="cls-9" transform="translate(741.6 186.6)">()</text></g><g class="cls-4"><text class="cls-9" transform="translate(778.8 186.6)">&quot;</text></g><g class="cls-4"><text class="cls-9" transform="translate(785.4 186.6)">height</text></g><g class="cls-4"><text class="cls-9" transform="translate(825 186.6)">&quot;</text></g><g class="cls-4"><text class="cls-9" transform="translate(636 202.19)">position</text></g><g class="cls-4"><text class="cls-9" transform="translate(688.8 202.19)">_</text></g><g class="cls-4"><text class="cls-9" transform="translate(695.4 202.19)">jitter</text></g><g class="cls-4"><text class="cls-9" transform="translate(735 202.19)">()</text></g><g class="cls-4"><text class="cls-9" transform="translate(772.2 202.19)">&quot;</text></g><g class="cls-4"><text class="cls-9" transform="translate(778.8 202.19)">width</text></g><g class="cls-4"><text class="cls-9" transform="translate(811.79 202.19)">&quot;</text></g><g class="cls-4"><text class="cls-9" transform="translate(789.6 233.4)">&quot;</text></g><g class="cls-4"><text class="cls-9" transform="translate(796.2 233.4)">total</text></g><g class="cls-4"><text class="cls-9" transform="translate(829.2 233.4)">&quot;</text></g><g class="cls-4"><text class="cls-9" transform="translate(603.6 248.99)">,</text></g><g class="cls-4"><text class="cls-9" transform="translate(610.2 248.99)"> </text></g><g class="cls-4"><text class="cls-9" transform="translate(616.79 248.99)">&quot;</text></g><g class="cls-4"><text class="cls-9" transform="translate(623.4 248.99)">single</text></g><g class="cls-4"><text class="cls-9" transform="translate(663 248.99)">&quot;</text></g><g class="cls-4"><text class="cls-9" transform="translate(643.2 280.19)">,</text></g><g class="cls-4"><text class="cls-9" transform="translate(649.79 280.19)"> </text></g><g class="cls-4"><text class="cls-9" transform="translate(697.8 295.79)">,</text></g><g class="cls-4"><text class="cls-9" transform="translate(704.4 295.79)"> </text></g><g class="cls-4"><text class="cls-9" transform="translate(759 295.79)">&quot;</text></g><g class="cls-4"><text class="cls-9" transform="translate(837.6 295.79)">&quot;</text></g><g class="cls-4"><text class="cls-9" transform="translate(601.79 311.39)">position</text></g><g class="cls-4"><text class="cls-9" transform="translate(654.6 311.39)">_</text></g><g class="cls-4"><text class="cls-9" transform="translate(661.2 311.39)">dodge</text></g><g class="cls-4"><text class="cls-9" transform="translate(694.2 311.39)">()</text></g><g class="cls-4"><text class="cls-9" transform="translate(555.6 327)">;</text></g><g class="cls-4"><text class="cls-9" transform="translate(562.2 327)"> </text></g><g class="cls-4"><text class="cls-9" transform="translate(592.8 327)">position</text></g><g class="cls-4"><text class="cls-9" transform="translate(645.6 327)">_</text></g><g class="cls-4"><text class="cls-9" transform="translate(652.2 327)">jitter</text></g><g class="cls-4"><text class="cls-9" transform="translate(691.79 327)">()</text></g><line class="cls-14" x1="0.3" y1="0.3" x2="868.8" y2="0.3"/><line class="cls-14" x1="0.3" y1="45.3" x2="868.8" y2="45.3"/><line class="cls-14" x1="0.3" y1="95.1" x2="517.8" y2="95.1"/><line class="cls-14" x1="0.3" y1="144.9" x2="517.8" y2="144.9"/><line class="cls-14" x1="0.3" y1="194.7" x2="517.8" y2="194.7"/><line class="cls-14" x1="0.3" y1="244.5" x2="279" y2="244.5"/><line class="cls-14" x1="0.3" y1="294.3" x2="517.8" y2="294.3"/><line class="cls-14" x1="0.3" y1="344.1" x2="517.8" y2="344.1"/><line class="cls-14" x1="0.3" y1="393.9" x2="517.8" y2="393.9"/><line class="cls-14" x1="0.3" y1="443.4" x2="868.8" y2="443.4"/><line class="cls-14" x1="0.3" y1="0.3" x2="0.3" y2="444"/><line class="cls-14" x1="166.5" y1="0.3" x2="166.5" y2="444"/><line class="cls-14" x1="278.7" y1="0.3" x2="278.7" y2="444"/><line class="cls-14" x1="517.5" y1="0.3" x2="517.5" y2="444"/><line class="cls-14" x1="868.2" y1="0.3" x2="868.2" y2="444"/></g></g></svg>