<svg xmlns="http://www.w3.org/2000/svg" xmlns:xlink="http://www.w3.org/1999/xlink" viewBox="0 0 448.2 579.6"><defs><style>.cls-1,.cls-15,.cls-36,.cls-71,.cls-72{fill:none;}.cls-2{fill:#ddd9c4;}.cls-2,.cls-3{fill-rule:evenodd;}.cls-3{fill:#ebf1de;}.cls-4{clip-path:url(#clip-path);}.cls-5,.cls-7{font-size:16.2px;stroke-width:0.46px;}.cls-15,.cls-36,.cls-5,.cls-7,.cls-71,.cls-72{stroke:#000;}.cls-36,.cls-5,.cls-7,.cls-71,.cls-72{stroke-miterlimit:10;}.cls-5,.cls-64,.cls-68,.cls-7{font-family:SimSun;}.cls-6{letter-spacing:0.04em;}.cls-7{letter-spacing:0.06em;}.cls-8{letter-spacing:0em;}.cls-9{letter-spacing:0.04em;}.cls-10{letter-spacing:0.06em;}.cls-11,.cls-13{font-size:13.8px;font-family:Consolas;}.cls-12,.cls-13{letter-spacing:0.02em;}.cls-14{letter-spacing:0em;}.cls-15{stroke-linejoin:bevel;stroke-width:0.6px;}.cls-16{clip-path:url(#clip-path-31);}.cls-17{font-size:11.29px;}.cls-17,.cls-18,.cls-23,.cls-25,.cls-31,.cls-33,.cls-39,.cls-42,.cls-44,.cls-52,.cls-60,.cls-63,.cls-67,.cls-84,.cls-86{font-family:TimesNewRomanPS-ItalicMT, Times New Roman;font-style:italic;}.cls-18,.cls-77{font-size:19.35px;}.cls-19{clip-path:url(#clip-path-32);}.cls-20,.cls-23,.cls-56{font-size:19.2px;}.cls-20,.cls-21,.cls-26,.cls-28,.cls-30,.cls-34,.cls-37,.cls-45,.cls-48,.cls-51,.cls-58,.cls-77{font-family:TimesNewRomanPSMT, Times New Roman;}.cls-21,.cls-48,.cls-55{font-size:11.2px;}.cls-21{letter-spacing:0em;}.cls-22{letter-spacing:0em;}.cls-24{clip-path:url(#clip-path-33);}.cls-25{font-size:11.29px;}.cls-26,.cls-63,.cls-64{font-size:19.35px;}.cls-27{clip-path:url(#clip-path-34);}.cls-28,.cls-31{font-size:19.06px;}.cls-29{letter-spacing:0em;}.cls-30{font-size:11.12px;}.cls-32{clip-path:url(#clip-path-35);}.cls-33{font-size:11.2px;}.cls-34{font-size:19.2px;}.cls-35{clip-path:url(#clip-path-36);}.cls-36,.cls-71,.cls-72{stroke-linecap:square;}.cls-36{stroke-width:0.79px;}.cls-37,.cls-39,.cls-40{font-size:19.05px;}.cls-38{letter-spacing:0em;}.cls-40,.cls-53,.cls-55,.cls-56,.cls-59{font-family:SymbolMT, Symbol;}.cls-41{clip-path:url(#clip-path-37);}.cls-42{font-size:11.11px;}.cls-43{clip-path:url(#clip-path-38);}.cls-44,.cls-58,.cls-59{font-size:11.02px;}.cls-45,.cls-60{font-size:18.9px;}.cls-46{clip-path:url(#clip-path-39);}.cls-47{letter-spacing:0em;}.cls-49{letter-spacing:0em;}.cls-50{clip-path:url(#clip-path-40);}.cls-51,.cls-52,.cls-53{font-size:18.9px;}.cls-54{clip-path:url(#clip-path-41);}.cls-57{clip-path:url(#clip-path-42);}.cls-61{clip-path:url(#clip-path-43);}.cls-62{clip-path:url(#clip-path-44);}.cls-65{letter-spacing:0em;}.cls-66{clip-path:url(#clip-path-45);}.cls-67,.cls-68{font-size:19.06px;}.cls-69{letter-spacing:0em;}.cls-70{clip-path:url(#clip-path-46);}.cls-71{stroke-width:0.8px;}.cls-72{stroke-width:1.6px;}.cls-73{clip-path:url(#clip-path-47);}.cls-74{clip-path:url(#clip-path-48);}.cls-75{letter-spacing:0em;}.cls-76{clip-path:url(#clip-path-49);}.cls-78{letter-spacing:0em;}.cls-79{clip-path:url(#clip-path-50);}.cls-80{clip-path:url(#clip-path-51);}.cls-81{letter-spacing:0em;}.cls-82{letter-spacing:0em;}.cls-83{clip-path:url(#clip-path-52);}.cls-84{font-size:18.98px;}.cls-85{clip-path:url(#clip-path-53);}.cls-86{font-size:19.38px;}.cls-87{clip-path:url(#clip-path-54);}.cls-88{letter-spacing:0em;}</style><clipPath id="clip-path"><rect class="cls-1" x="0.6" y="0.6" width="447.6" height="579"/></clipPath><clipPath id="clip-path-31"><polygon class="cls-1" points="359.4 209.4 381.6 209.4 381.6 183.6 359.4 183.6 359.4 209.4 359.4 209.4"/></clipPath><clipPath id="clip-path-32"><polygon class="cls-1" points="163.8 256.2 231 256.2 231 227.4 163.8 227.4 163.8 256.2 163.8 256.2"/></clipPath><clipPath id="clip-path-33"><polygon class="cls-1" points="355.2 253.2 385.8 253.2 385.8 227.4 355.2 227.4 355.2 253.2 355.2 253.2"/></clipPath><clipPath id="clip-path-34"><polygon class="cls-1" points="166.2 300.6 228.6 300.6 228.6 273.6 166.2 273.6 166.2 300.6 166.2 300.6"/></clipPath><clipPath id="clip-path-35"><polygon class="cls-1" points="359.4 298.8 381.6 298.8 381.6 274.8 359.4 274.8 359.4 298.8 359.4 298.8"/></clipPath><clipPath id="clip-path-36"><polygon class="cls-1" points="156.6 356.4 236.4 356.4 236.4 307.2 156.6 307.2 156.6 356.4 156.6 356.4"/></clipPath><clipPath id="clip-path-37"><polygon class="cls-1" points="346.8 355.8 396 355.8 396 306.6 346.8 306.6 346.8 355.8 346.8 355.8"/></clipPath><clipPath id="clip-path-38"><polygon class="cls-1" points="184.8 389.4 214.8 389.4 214.8 364.2 184.8 364.2 184.8 389.4 184.8 389.4"/></clipPath><clipPath id="clip-path-39"><polygon class="cls-1" points="335.4 392.4 403.8 392.4 403.8 363.6 335.4 363.6 335.4 392.4 335.4 392.4"/></clipPath><clipPath id="clip-path-40"><polygon class="cls-1" points="179.4 436.8 223.8 436.8 223.8 411.6 179.4 411.6 179.4 436.8 179.4 436.8"/></clipPath><clipPath id="clip-path-41"><polygon class="cls-1" points="339 435.6 397.8 435.6 397.8 406.8 339 406.8 339 435.6 339 435.6"/></clipPath><clipPath id="clip-path-42"><polygon class="cls-1" points="187.2 480 214.2 480 214.2 454.8 187.2 454.8 187.2 480 187.2 480"/></clipPath><clipPath id="clip-path-43"><polygon class="cls-1" points="352.8 481.2 381.6 481.2 381.6 452.4 352.8 452.4 352.8 481.2 352.8 481.2"/></clipPath><clipPath id="clip-path-44"><polygon class="cls-1" points="172.8 525.6 225.6 525.6 225.6 499.8 172.8 499.8 172.8 525.6 172.8 525.6"/></clipPath><clipPath id="clip-path-45"><polygon class="cls-1" points="342 526.2 394.8 526.2 394.8 499.2 342 499.2 342 526.2 342 526.2"/></clipPath><clipPath id="clip-path-46"><polygon class="cls-1" points="183 572.4 213 572.4 213 543.6 183 543.6 183 572.4 183 572.4"/></clipPath><clipPath id="clip-path-47"><polygon class="cls-1" points="357 570.6 381 570.6 381 541.8 357 541.8 357 570.6 357 570.6"/></clipPath><clipPath id="clip-path-48"><polygon class="cls-1" points="158.4 77.4 235.2 77.4 235.2 48.6 158.4 48.6 158.4 77.4 158.4 77.4"/></clipPath><clipPath id="clip-path-49"><polygon class="cls-1" points="338.4 76.8 402 76.8 402 51 338.4 51 338.4 76.8 338.4 76.8"/></clipPath><clipPath id="clip-path-50"><polygon class="cls-1" points="185.4 121.2 206.4 121.2 206.4 95.4 185.4 95.4 185.4 121.2 185.4 121.2"/></clipPath><clipPath id="clip-path-51"><polygon class="cls-1" points="342 120 396 120 396 94.2 342 94.2 342 120 342 120"/></clipPath><clipPath id="clip-path-52"><polygon class="cls-1" points="187.2 160.8 203.4 160.8 203.4 143.4 187.2 143.4 187.2 160.8 187.2 160.8"/></clipPath><clipPath id="clip-path-53"><polygon class="cls-1" points="360 160.2 377.4 160.2 377.4 139.2 360 139.2 360 160.2 360 160.2"/></clipPath><clipPath id="clip-path-54"><polygon class="cls-1" points="171.6 209.4 224.4 209.4 224.4 184.2 171.6 184.2 171.6 209.4 171.6 209.4"/></clipPath></defs><title>Trans</title><g id="图层_2" data-name="图层 2"><g id="图层_1-2" data-name="图层 1"><polygon class="cls-2" points="0 0 115.8 0 115.8 39.6 0 39.6 0 0 0 0"/><polygon class="cls-2" points="115.2 0 282 0 282 39.6 115.2 39.6 115.2 0 115.2 0"/><polygon class="cls-2" points="281.4 0 448.2 0 448.2 39.6 281.4 39.6 281.4 0 281.4 0"/><polygon class="cls-3" points="0 39 115.8 39 115.8 84.6 0 84.6 0 39 0 39"/><polygon class="cls-3" points="115.2 39 282 39 282 84.6 115.2 84.6 115.2 39 115.2 39"/><polygon class="cls-3" points="281.4 39 448.2 39 448.2 84.6 281.4 84.6 281.4 39 281.4 39"/><polygon class="cls-3" points="0 84 115.8 84 115.8 129.6 0 129.6 0 84 0 84"/><polygon class="cls-3" points="115.2 84 282 84 282 129.6 115.2 129.6 115.2 84 115.2 84"/><polygon class="cls-3" points="281.4 84 448.2 84 448.2 129.6 281.4 129.6 281.4 84 281.4 84"/><polygon class="cls-3" points="0 129 115.8 129 115.8 174.6 0 174.6 0 129 0 129"/><polygon class="cls-3" points="115.2 129 282 129 282 174.6 115.2 174.6 115.2 129 115.2 129"/><polygon class="cls-3" points="281.4 129 448.2 129 448.2 174.6 281.4 174.6 281.4 129 281.4 129"/><polygon class="cls-3" points="0 174 115.8 174 115.8 219.6 0 219.6 0 174 0 174"/><polygon class="cls-3" points="115.2 174 282 174 282 219.6 115.2 219.6 115.2 174 115.2 174"/><polygon class="cls-3" points="281.4 174 448.2 174 448.2 219.6 281.4 219.6 281.4 174 281.4 174"/><polygon class="cls-3" points="0 219 115.8 219 115.8 264.6 0 264.6 0 219 0 219"/><polygon class="cls-3" points="115.2 219 282 219 282 264.6 115.2 264.6 115.2 219 115.2 219"/><polygon class="cls-3" points="281.4 219 448.2 219 448.2 264.6 281.4 264.6 281.4 219 281.4 219"/><polygon class="cls-3" points="0 264 115.8 264 115.8 309.6 0 309.6 0 264 0 264"/><polygon class="cls-3" points="115.2 264 282 264 282 309.6 115.2 309.6 115.2 264 115.2 264"/><polygon class="cls-3" points="281.4 264 448.2 264 448.2 309.6 281.4 309.6 281.4 264 281.4 264"/><polygon class="cls-3" points="0 309 115.8 309 115.8 354.6 0 354.6 0 309 0 309"/><polygon class="cls-3" points="115.2 309 282 309 282 354.6 115.2 354.6 115.2 309 115.2 309"/><polygon class="cls-3" points="281.4 309 448.2 309 448.2 354.6 281.4 354.6 281.4 309 281.4 309"/><polygon class="cls-3" points="0 354 115.8 354 115.8 399.6 0 399.6 0 354 0 354"/><polygon class="cls-3" points="115.2 354 282 354 282 399.6 115.2 399.6 115.2 354 115.2 354"/><polygon class="cls-3" points="281.4 354 448.2 354 448.2 399.6 281.4 399.6 281.4 354 281.4 354"/><polygon class="cls-3" points="0 399 115.8 399 115.8 444.6 0 444.6 0 399 0 399"/><polygon class="cls-3" points="115.2 399 282 399 282 444.6 115.2 444.6 115.2 399 115.2 399"/><polygon class="cls-3" points="281.4 399 448.2 399 448.2 444.6 281.4 444.6 281.4 399 281.4 399"/><polygon class="cls-3" points="0 444 115.8 444 115.8 489.6 0 489.6 0 444 0 444"/><polygon class="cls-3" points="115.2 444 282 444 282 489.6 115.2 489.6 115.2 444 115.2 444"/><polygon class="cls-3" points="281.4 444 448.2 444 448.2 489.6 281.4 489.6 281.4 444 281.4 444"/><polygon class="cls-3" points="0 489 115.8 489 115.8 534.6 0 534.6 0 489 0 489"/><polygon class="cls-3" points="115.2 489 282 489 282 534.6 115.2 534.6 115.2 489 115.2 489"/><polygon class="cls-3" points="281.4 489 448.2 489 448.2 534.6 281.4 534.6 281.4 489 281.4 489"/><polygon class="cls-3" points="0 534 115.8 534 115.8 579.6 0 579.6 0 534 0 534"/><polygon class="cls-3" points="115.2 534 282 534 282 579.6 115.2 579.6 115.2 534 115.2 534"/><polygon class="cls-3" points="281.4 534 448.2 534 448.2 579.6 281.4 579.6 281.4 534 281.4 534"/><g class="cls-4"><text class="cls-5" transform="translate(24.6 27.01)"><tspan class="cls-6">变换名</tspan><tspan x="50.4" y="0">称</tspan></text></g><g class="cls-4"><text class="cls-5" transform="translate(121.8 27.01)"><tspan class="cls-6">原始</tspan><tspan x="33.6" y="0">值</tspan></text></g><g class="cls-4"><text class="cls-5" transform="translate(172.2 27.01)">x</text></g><g class="cls-4"><text class="cls-5" transform="translate(181.2 27.01)"> </text></g><g class="cls-4"><text class="cls-7" transform="translate(190.2 27.01)">=<tspan class="cls-8" x="8.99" y="0">&gt;</tspan></text></g><g class="cls-4"><text class="cls-5" transform="translate(208.2 27.01)"> </text></g><g class="cls-4"><text class="cls-5" transform="translate(217.2 27.01)"><tspan class="cls-9">转换</tspan><tspan x="33.6" y="0">值</tspan></text></g><g class="cls-4"><text class="cls-5" transform="translate(267.6 27.01)">y</text></g><g class="cls-4"><text class="cls-5" transform="translate(288.01 27.01)"><tspan class="cls-9">转换</tspan><tspan x="33.6" y="0">值</tspan></text></g><g class="cls-4"><text class="cls-5" transform="translate(338.41 27.01)">y</text></g><g class="cls-4"><text class="cls-5" transform="translate(347.41 27.01)"> </text></g><g class="cls-4"><text class="cls-5" transform="translate(356.41 27.01)"><tspan class="cls-10">=</tspan><tspan x="8.99" y="0">&gt;</tspan></text></g><g class="cls-4"><text class="cls-5" transform="translate(374.4 27.01)"> </text></g><g class="cls-4"><text class="cls-5" transform="translate(383.41 27.01)"><tspan class="cls-9">原始</tspan><tspan x="33.6" y="0">值</tspan></text></g><g class="cls-4"><text class="cls-5" transform="translate(433.8 27.01)">x</text></g><g class="cls-4"><text class="cls-11" transform="translate(46.8 67.2)"><tspan class="cls-12">as</tspan><tspan x="15.59" y="0">n</tspan></text></g><g class="cls-4"><text class="cls-11" transform="translate(46.8 112.2)"><tspan class="cls-12">ex</tspan><tspan x="15.59" y="0">p</tspan></text></g><g class="cls-4"><text class="cls-11" transform="translate(27 157.2)"><tspan class="cls-12">identit</tspan><tspan x="54.56" y="0">y</tspan></text></g><g class="cls-4"><text class="cls-11" transform="translate(46.8 202.2)"><tspan class="cls-12">lo</tspan><tspan x="15.59" y="0">g</tspan></text></g><g class="cls-4"><text class="cls-11" transform="translate(39.01 247.2)"><tspan class="cls-12">lo</tspan><tspan x="15.59" y="0">g</tspan></text></g><g class="cls-4"><text class="cls-13" transform="translate(62.41 247.2)">1<tspan class="cls-14" x="7.79" y="0">0</tspan></text></g><g class="cls-4"><text class="cls-11" transform="translate(42.6 292.2)"><tspan class="cls-12">lo</tspan><tspan x="15.59" y="0">g</tspan></text></g><g class="cls-4"><text class="cls-11" transform="translate(66 292.2)">2</text></g><g class="cls-4"><text class="cls-11" transform="translate(39.01 337.2)"><tspan class="cls-12">logi</tspan><tspan x="31.18" y="0">t</tspan></text></g><g class="cls-4"><text class="cls-11" transform="translate(39.01 382.2)"><tspan class="cls-12">po</tspan><tspan x="15.59" y="0">w</tspan></text></g><g class="cls-4"><text class="cls-13" transform="translate(62.41 382.2)">1<tspan class="cls-14" x="7.79" y="0">0</tspan></text></g><g class="cls-4"><text class="cls-13" transform="translate(34.8 427.2)">probi<tspan class="cls-14" x="38.97" y="0">t</tspan></text></g><g class="cls-4"><text class="cls-11" transform="translate(19.2 472.2)"><tspan class="cls-12">reciproca</tspan><tspan x="70.15" y="0">l</tspan></text></g><g class="cls-4"><text class="cls-11" transform="translate(31.2 517.2)"><tspan class="cls-12">revers</tspan><tspan x="46.77" y="0">e</tspan></text></g><g class="cls-4"><text class="cls-11" transform="translate(42.6 562.2)"><tspan class="cls-12">sqr</tspan><tspan x="23.38" y="0">t</tspan></text></g><line class="cls-15" x1="0.3" y1="0.3" x2="448.2" y2="0.3"/><line class="cls-15" x1="0.3" y1="39.3" x2="448.2" y2="39.3"/><line class="cls-15" x1="0.3" y1="84.3" x2="448.2" y2="84.3"/><line class="cls-15" x1="0.3" y1="129.3" x2="448.2" y2="129.3"/><line class="cls-15" x1="0.3" y1="174.3" x2="448.2" y2="174.3"/><line class="cls-15" x1="0.3" y1="219.3" x2="448.2" y2="219.3"/><line class="cls-15" x1="0.3" y1="264.3" x2="448.2" y2="264.3"/><line class="cls-15" x1="0.3" y1="309.3" x2="448.2" y2="309.3"/><line class="cls-15" x1="0.3" y1="354.3" x2="448.2" y2="354.3"/><line class="cls-15" x1="0.3" y1="399.3" x2="448.2" y2="399.3"/><line class="cls-15" x1="0.3" y1="444.3" x2="448.2" y2="444.3"/><line class="cls-15" x1="0.3" y1="489.3" x2="448.2" y2="489.3"/><line class="cls-15" x1="0.3" y1="534.3" x2="448.2" y2="534.3"/><line class="cls-15" x1="0.3" y1="579" x2="448.2" y2="579"/><line class="cls-15" x1="0.3" y1="0.3" x2="0.3" y2="579.6"/><line class="cls-15" x1="115.5" y1="0.3" x2="115.5" y2="579.6"/><line class="cls-15" x1="281.7" y1="0.3" x2="281.7" y2="579.6"/><line class="cls-15" x1="447.6" y1="0.3" x2="447.6" y2="579.6"/><g class="cls-16"><text class="cls-17" transform="translate(372.33 195.9) scale(0.98 1)">y</text><text class="cls-18" transform="translate(361.98 204.56) scale(0.98 1)">e</text></g><g class="cls-19"><text class="cls-20" transform="translate(220.95 246.61)">)</text><text class="cls-20" transform="translate(204.15 246.61)">(</text><text class="cls-20" transform="translate(166.4 246.61)">log</text><text class="cls-21" transform="translate(190.8 251.4)">1<tspan class="cls-22" x="5.65" y="0">0</tspan></text><text class="cls-23" transform="translate(211.95 246.61)">x</text></g><g class="cls-24"><text class="cls-25" transform="translate(377.09 239.7)">y</text><text class="cls-26" transform="translate(356 248.36)">10</text></g><g class="cls-27"><text class="cls-28" transform="translate(218.99 292.66) scale(1.01 1)">)</text><text class="cls-28" transform="translate(202.2 292.66) scale(1.01 1)">(</text><text class="cls-28" transform="translate(168.79 292.66) scale(1.01 1)">l<tspan class="cls-29" x="5.3" y="0">o</tspan><tspan x="14.86" y="0">g</tspan></text><text class="cls-30" transform="translate(194.45 297.42) scale(1.01 1)">2</text><text class="cls-31" transform="translate(209.99 292.66) scale(1.01 1)">x</text></g><g class="cls-32"><text class="cls-33" transform="translate(373.52 287) scale(0.99 1)">y</text><text class="cls-34" transform="translate(362.27 295.61) scale(0.99 1)">2</text></g><g class="cls-35"><line class="cls-36" x1="190.61" y1="332.59" x2="225.23" y2="332.59"/><text class="cls-37" transform="translate(226.12 337.36) scale(1.01 1)">)</text><text class="cls-37" transform="translate(189.81 352.25) scale(1.01 1)">1</text><text class="cls-37" transform="translate(159.19 337.36) scale(1.01 1)">lo<tspan class="cls-38" x="14.81" y="0">g</tspan><tspan x="24.37" y="0">(</tspan></text><text class="cls-39" transform="translate(215.55 352.25) scale(1.01 1)">x</text><text class="cls-39" transform="translate(204.18 325.36) scale(1.01 1)">x</text><text class="cls-40" transform="translate(200.88 352.25) scale(1.01 1)">−</text></g><g class="cls-41"><line class="cls-36" x1="349.97" y1="331.99" x2="392.48" y2="331.99"/><text class="cls-42" transform="translate(384.24 343.11)">y</text><text class="cls-39" transform="translate(373.87 351.64)">e</text><text class="cls-40" transform="translate(360.2 351.64)">+</text><text class="cls-37" transform="translate(349.18 351.64)">1</text><text class="cls-37" transform="translate(366.45 324.76)">1</text></g><g class="cls-43"><text class="cls-44" transform="translate(205.77 376.21)">x</text><text class="cls-45" transform="translate(185.59 384.68)">10</text></g><g class="cls-46"><text class="cls-20" transform="translate(393.41 382.81) scale(0.99 1)">)</text><text class="cls-20" transform="translate(375.52 382.81) scale(0.99 1)">(</text><text class="cls-20" transform="translate(337.98 382.81) scale(0.99 1)">l<tspan class="cls-47" x="5.33" y="0">o</tspan><tspan x="14.97" y="0">g</tspan></text><text class="cls-48" transform="translate(362.25 387.61) scale(0.99 1)"><tspan class="cls-49">1</tspan><tspan x="5.65" y="0">0</tspan></text><text class="cls-23" transform="translate(384.16 382.81) scale(0.99 1)">y</text></g><g class="cls-50"><text class="cls-51" transform="translate(213.8 428.92) scale(1.01 1)">)</text><text class="cls-51" transform="translate(197.15 428.92) scale(1.01 1)">(</text><text class="cls-52" transform="translate(204.87 428.92) scale(1.01 1)">x</text><text class="cls-53" transform="translate(181.98 428.92) scale(1.01 1)">Φ</text></g><g class="cls-54"><text class="cls-20" transform="translate(388.32 427.61) scale(0.99 1)">)</text><text class="cls-20" transform="translate(370.44 427.61) scale(0.99 1)">(</text><text class="cls-48" transform="translate(363.59 419) scale(0.99 1)">1</text><text class="cls-23" transform="translate(379.08 427.61) scale(0.99 1)">y</text><text class="cls-55" transform="translate(357.52 419) scale(0.99 1)">−</text><text class="cls-56" transform="translate(341.59 427.61) scale(0.99 1)">Φ</text></g><g class="cls-57"><text class="cls-58" transform="translate(206.7 466.8) scale(1.01 1)">1</text><text class="cls-59" transform="translate(200.65 466.8) scale(1.01 1)">−</text><text class="cls-60" transform="translate(190.97 475.29) scale(1.01 1)">x</text></g><g class="cls-61"><text class="cls-48" transform="translate(373.66 464.61)">1</text><text class="cls-55" transform="translate(367.55 464.61)">−</text><text class="cls-23" transform="translate(357.5 473.21)">y</text></g><g class="cls-62"><text class="cls-63" transform="translate(213.49 519.15) scale(0.99 1)">x</text><text class="cls-64" transform="translate(175.09 519.15) scale(0.99 1)"><tspan class="cls-65">反</tspan><tspan x="19.31" y="0">向</tspan></text></g><g class="cls-66"><text class="cls-67" transform="translate(382.7 518.25) scale(1.01 1)">y</text><text class="cls-68" transform="translate(344.3 518.25) scale(1.01 1)"><tspan class="cls-69">反</tspan><tspan x="19.02" y="0">向</tspan></text></g><g class="cls-70"><line class="cls-71" x1="186.55" y1="561.6" x2="188.97" y2="560.2"/><line class="cls-72" x1="188.97" y1="560.6" x2="192.47" y2="567.1"/><line class="cls-71" x1="192.87" y1="567.1" x2="197.51" y2="547.7"/><line class="cls-71" x1="197.51" y1="547.7" x2="209.15" y2="547.7"/><text class="cls-23" transform="translate(199.58 566.01) scale(0.99 1)">x</text></g><g class="cls-73"><text class="cls-48" transform="translate(371.76 554)">2</text><text class="cls-23" transform="translate(361.7 562.61)">y</text></g><g class="cls-74"><text class="cls-20" transform="translate(226.05 69.41)">)</text><text class="cls-20" transform="translate(209.25 69.41)">(</text><text class="cls-20" transform="translate(161.6 69.41)">t<tspan class="cls-75" x="5.33" y="0">a</tspan><tspan x="13.88" y="0">nh</tspan></text><text class="cls-48" transform="translate(202.35 60.79)">1</text><text class="cls-23" transform="translate(217.05 69.41)">x</text><text class="cls-55" transform="translate(196.25 60.79)">−</text></g><g class="cls-76"><text class="cls-77" transform="translate(392.27 68.74) scale(0.99 1)">)</text><text class="cls-77" transform="translate(341.58 68.74) scale(0.99 1)">t<tspan class="cls-78" x="5.38" y="0">a</tspan><tspan x="13.98" y="0">nh(</tspan></text><text class="cls-18" transform="translate(383.02 68.74) scale(0.99 1)">y</text></g><g class="cls-79"><text class="cls-17" transform="translate(198.07 107.7)">x</text><text class="cls-18" transform="translate(188.03 116.36)">e</text></g><g class="cls-80"><text class="cls-26" transform="translate(386.58 111.93) scale(0.98 1)">)</text><text class="cls-26" transform="translate(344.58 111.93) scale(0.98 1)">lo<tspan class="cls-81" x="15.05" y="0">g</tspan><tspan class="cls-82" x="24.76" y="0">(</tspan></text><text class="cls-63" transform="translate(377.34 111.93) scale(0.98 1)">y</text></g><g class="cls-83"><text class="cls-84" transform="translate(191.04 156.05) scale(1.02 1)">x</text></g><g class="cls-85"><text class="cls-86" transform="translate(364.65 152.12) scale(0.98 1)">y</text></g><g class="cls-87"><text class="cls-51" transform="translate(215.3 201.52) scale(1.02 1)">)</text><text class="cls-51" transform="translate(174.19 201.52) scale(1.02 1)">lo<tspan class="cls-88" x="14.7" y="0">g</tspan><tspan x="24.19" y="0">(</tspan></text><text class="cls-52" transform="translate(206.29 201.52) scale(1.02 1)">x</text></g></g></g></svg>