<svg xmlns="http://www.w3.org/2000/svg" xmlns:xlink="http://www.w3.org/1999/xlink" viewBox="0 0 898.2 249.6"><defs><style>.cls-1,.cls-10{fill:none;}.cls-2{fill:#ddd9c4;}.cls-2,.cls-3{fill-rule:evenodd;}.cls-3{fill:#ebf1de;}.cls-4{clip-path:url(#clip-path);}.cls-5,.cls-8,.cls-9{font-size:12px;}.cls-10,.cls-5{stroke:#000;}.cls-5{stroke-miterlimit:10;stroke-width:0.34px;}.cls-5,.cls-9{font-family:KaiTi;}.cls-6{letter-spacing:0.05em;}.cls-7{letter-spacing:0.05em;}.cls-8{font-family:Consolas;}.cls-10{stroke-linejoin:bevel;stroke-width:0.6px;}</style><clipPath id="clip-path"><rect class="cls-1" x="0.6" y="0.6" width="897.6" height="249"/></clipPath></defs><title>Stat</title><g id="图层_2" data-name="图层 2"><g id="图层_1-2" data-name="图层 1"><polygon class="cls-2" points="0 0 117 0 117 26.4 0 26.4 0 0 0 0"/><polygon class="cls-2" points="116.4 0 449.4 0 449.4 26.4 116.4 26.4 116.4 0 116.4 0"/><polygon class="cls-2" points="448.8 0 565.8 0 565.8 26.4 448.8 26.4 448.8 0 448.8 0"/><polygon class="cls-2" points="565.2 0 898.2 0 898.2 26.4 565.2 26.4 565.2 0 565.2 0"/><polygon class="cls-3" points="0 25.8 117 25.8 117 45 0 45 0 25.8 0 25.8"/><polygon class="cls-3" points="116.4 25.8 449.4 25.8 449.4 45 116.4 45 116.4 25.8 116.4 25.8"/><polygon class="cls-3" points="448.8 25.8 565.8 25.8 565.8 45 448.8 45 448.8 25.8 448.8 25.8"/><polygon class="cls-3" points="565.2 25.8 898.2 25.8 898.2 45 565.2 45 565.2 25.8 565.2 25.8"/><polygon class="cls-3" points="0 44.4 117 44.4 117 63.6 0 63.6 0 44.4 0 44.4"/><polygon class="cls-3" points="116.4 44.4 449.4 44.4 449.4 63.6 116.4 63.6 116.4 44.4 116.4 44.4"/><polygon class="cls-3" points="448.8 44.4 565.8 44.4 565.8 63.6 448.8 63.6 448.8 44.4 448.8 44.4"/><polygon class="cls-3" points="565.2 44.4 898.2 44.4 898.2 63.6 565.2 63.6 565.2 44.4 565.2 44.4"/><polygon class="cls-3" points="0 63 117 63 117 82.2 0 82.2 0 63 0 63"/><polygon class="cls-3" points="116.4 63 449.4 63 449.4 82.2 116.4 82.2 116.4 63 116.4 63"/><polygon class="cls-3" points="448.8 63 565.8 63 565.8 82.2 448.8 82.2 448.8 63 448.8 63"/><polygon class="cls-3" points="565.2 63 898.2 63 898.2 82.2 565.2 82.2 565.2 63 565.2 63"/><polygon class="cls-3" points="0 81.6 117 81.6 117 100.8 0 100.8 0 81.6 0 81.6"/><polygon class="cls-3" points="116.4 81.6 449.4 81.6 449.4 100.8 116.4 100.8 116.4 81.6 116.4 81.6"/><polygon class="cls-3" points="448.8 81.6 565.8 81.6 565.8 100.8 448.8 100.8 448.8 81.6 448.8 81.6"/><polygon class="cls-3" points="565.2 81.6 898.2 81.6 898.2 100.8 565.2 100.8 565.2 81.6 565.2 81.6"/><polygon class="cls-3" points="0 100.2 117 100.2 117 119.4 0 119.4 0 100.2 0 100.2"/><polygon class="cls-3" points="116.4 100.2 449.4 100.2 449.4 119.4 116.4 119.4 116.4 100.2 116.4 100.2"/><polygon class="cls-3" points="448.8 100.2 565.8 100.2 565.8 119.4 448.8 119.4 448.8 100.2 448.8 100.2"/><polygon class="cls-3" points="565.2 100.2 898.2 100.2 898.2 119.4 565.2 119.4 565.2 100.2 565.2 100.2"/><polygon class="cls-3" points="0 118.8 117 118.8 117 138 0 138 0 118.8 0 118.8"/><polygon class="cls-3" points="116.4 118.8 449.4 118.8 449.4 138 116.4 138 116.4 118.8 116.4 118.8"/><polygon class="cls-3" points="448.8 118.8 565.8 118.8 565.8 138 448.8 138 448.8 118.8 448.8 118.8"/><polygon class="cls-3" points="565.2 118.8 898.2 118.8 898.2 138 565.2 138 565.2 118.8 565.2 118.8"/><polygon class="cls-3" points="0 137.4 117 137.4 117 156.6 0 156.6 0 137.4 0 137.4"/><polygon class="cls-3" points="116.4 137.4 449.4 137.4 449.4 156.6 116.4 156.6 116.4 137.4 116.4 137.4"/><polygon class="cls-3" points="448.8 137.4 565.8 137.4 565.8 156.6 448.8 156.6 448.8 137.4 448.8 137.4"/><polygon class="cls-3" points="565.2 137.4 898.2 137.4 898.2 156.6 565.2 156.6 565.2 137.4 565.2 137.4"/><polygon class="cls-3" points="0 156 117 156 117 175.2 0 175.2 0 156 0 156"/><polygon class="cls-3" points="116.4 156 449.4 156 449.4 175.2 116.4 175.2 116.4 156 116.4 156"/><polygon class="cls-3" points="448.8 156 565.8 156 565.8 175.2 448.8 175.2 448.8 156 448.8 156"/><polygon class="cls-3" points="565.2 156 898.2 156 898.2 175.2 565.2 175.2 565.2 156 565.2 156"/><polygon class="cls-3" points="0 174.6 117 174.6 117 193.8 0 193.8 0 174.6 0 174.6"/><polygon class="cls-3" points="116.4 174.6 449.4 174.6 449.4 193.8 116.4 193.8 116.4 174.6 116.4 174.6"/><polygon class="cls-3" points="448.8 174.6 565.8 174.6 565.8 193.8 448.8 193.8 448.8 174.6 448.8 174.6"/><polygon class="cls-3" points="565.2 174.6 898.2 174.6 898.2 193.8 565.2 193.8 565.2 174.6 565.2 174.6"/><polygon class="cls-3" points="0 193.2 117 193.2 117 212.4 0 212.4 0 193.2 0 193.2"/><polygon class="cls-3" points="116.4 193.2 449.4 193.2 449.4 212.4 116.4 212.4 116.4 193.2 116.4 193.2"/><polygon class="cls-3" points="448.8 193.2 565.8 193.2 565.8 212.4 448.8 212.4 448.8 193.2 448.8 193.2"/><polygon class="cls-3" points="565.2 193.2 898.2 193.2 898.2 212.4 565.2 212.4 565.2 193.2 565.2 193.2"/><polygon class="cls-3" points="0 211.8 117 211.8 117 231 0 231 0 211.8 0 211.8"/><polygon class="cls-3" points="116.4 211.8 449.4 211.8 449.4 231 116.4 231 116.4 211.8 116.4 211.8"/><polygon class="cls-3" points="448.8 211.8 565.8 211.8 565.8 231 448.8 231 448.8 211.8 448.8 211.8"/><polygon class="cls-3" points="565.2 211.8 898.2 211.8 898.2 231 565.2 231 565.2 211.8 565.2 211.8"/><polygon class="cls-3" points="0 230.4 117 230.4 117 249.6 0 249.6 0 230.4 0 230.4"/><polygon class="cls-3" points="116.4 230.4 449.4 230.4 449.4 249.6 116.4 249.6 116.4 230.4 116.4 230.4"/><polygon class="cls-3" points="448.8 230.4 565.8 230.4 565.8 249.6 448.8 249.6 448.8 230.4 448.8 230.4"/><polygon class="cls-3" points="565.2 230.4 898.2 230.4 898.2 249.6 565.2 249.6 565.2 230.4 565.2 230.4"/><g class="cls-4"><text class="cls-5" transform="translate(14.4 18.6)"><tspan class="cls-6">名</tspan><tspan x="12.6" y="0">称</tspan></text></g><g class="cls-4"><text class="cls-5" transform="translate(130.8 18.6)"><tspan class="cls-6">描</tspan><tspan x="12.6" y="0">述</tspan></text></g><g class="cls-4"><text class="cls-5" transform="translate(463.2 18.6)"><tspan class="cls-7">名</tspan><tspan x="12.6" y="0">称</tspan></text></g><g class="cls-4"><text class="cls-5" transform="translate(579.6 18.6)"><tspan class="cls-7">描</tspan><tspan x="12.6" y="0">述</tspan></text></g><g class="cls-4"><text class="cls-8" transform="translate(14.4 40.19)">bin</text></g><g class="cls-4"><text class="cls-8" transform="translate(178.8 40.19)">(</text></g><g class="cls-4"><text class="cls-8" transform="translate(185.4 40.19)">bin</text></g><g class="cls-4"><text class="cls-8" transform="translate(205.19 40.19)">)</text></g><g class="cls-4"><text class="cls-8" transform="translate(463.2 40.19)">identity</text></g><g class="cls-4"><text class="cls-8" transform="translate(14.4 58.8)">bin</text></g><g class="cls-4"><text class="cls-8" transform="translate(34.2 58.8)">_</text></g><g class="cls-4"><text class="cls-8" transform="translate(40.8 58.8)">2</text></g><g class="cls-4"><text class="cls-8" transform="translate(47.39 58.8)">d</text></g><g class="cls-4"><text class="cls-8" transform="translate(463.2 58.8)">qq</text></g><g class="cls-4"><text class="cls-8" transform="translate(639.6 58.8)">—</text></g><g class="cls-4"><text class="cls-8" transform="translate(694.2 58.8)">(</text></g><g class="cls-4"><text class="cls-8" transform="translate(700.8 58.8)">qq</text></g><g class="cls-4"><text class="cls-8" transform="translate(725.99 58.8)">)</text></g><g class="cls-4"><text class="cls-8" transform="translate(14.4 77.4)">bindot</text></g><g class="cls-4"><text class="cls-8" transform="translate(154.8 77.4)">“</text></g><g class="cls-4"><text class="cls-8" transform="translate(209.4 77.4)">”</text></g><g class="cls-4"><text class="cls-8" transform="translate(463.2 77.4)">qq</text></g><g class="cls-4"><text class="cls-8" transform="translate(476.39 77.4)">_</text></g><g class="cls-4"><text class="cls-8" transform="translate(482.99 77.4)">line</text></g><g class="cls-4"><text class="cls-8" transform="translate(627.6 77.4)">—</text></g><g class="cls-4"><text class="cls-8" transform="translate(682.2 77.4)">(</text></g><g class="cls-4"><text class="cls-8" transform="translate(688.8 77.4)">qq</text></g><g class="cls-4"><text class="cls-8" transform="translate(713.99 77.4)">)</text></g><g class="cls-4"><text class="cls-8" transform="translate(14.4 95.99)">bin</text></g><g class="cls-4"><text class="cls-8" transform="translate(34.2 95.99)">_</text></g><g class="cls-4"><text class="cls-8" transform="translate(40.8 95.99)">hex</text></g><g class="cls-4"><text class="cls-8" transform="translate(463.2 95.99)">quantile</text></g><g class="cls-4"><text class="cls-8" transform="translate(14.4 114.59)">boxplot</text></g><g class="cls-4"><text class="cls-8" transform="translate(463.2 114.59)">smooth</text></g><g class="cls-4"><text class="cls-8" transform="translate(14.4 133.19)">contour</text></g><g class="cls-4"><text class="cls-8" transform="translate(463.2 133.19)">sum</text></g><g class="cls-4"><text class="cls-8" transform="translate(14.4 151.8)">count</text></g><g class="cls-4"><text class="cls-8" transform="translate(178.8 151.8)">x</text></g><g class="cls-4"><text class="cls-8" transform="translate(463.2 151.8)">summary</text></g><g class="cls-4"><text class="cls-8" transform="translate(615.6 151.8)">x</text></g><g class="cls-4"><text class="cls-8" transform="translate(670.19 151.8)">y</text></g><g class="cls-4"><text class="cls-8" transform="translate(14.4 170.4)">density</text></g><g class="cls-4"><text class="cls-8" transform="translate(463.2 170.4)">summary</text></g><g class="cls-4"><text class="cls-8" transform="translate(509.4 170.4)">_</text></g><g class="cls-4"><text class="cls-8" transform="translate(515.99 170.4)">2</text></g><g class="cls-4"><text class="cls-8" transform="translate(522.6 170.4)">d</text></g><g class="cls-4"><text class="cls-8" transform="translate(14.4 188.99)">density</text></g><g class="cls-4"><text class="cls-8" transform="translate(60.6 188.99)">_</text></g><g class="cls-4"><text class="cls-8" transform="translate(67.2 188.99)">2</text></g><g class="cls-4"><text class="cls-8" transform="translate(73.8 188.99)">d</text></g><g class="cls-4"><text class="cls-8" transform="translate(463.2 188.99)">summary</text></g><g class="cls-4"><text class="cls-8" transform="translate(509.4 188.99)">_</text></g><g class="cls-4"><text class="cls-8" transform="translate(515.99 188.99)">bin</text></g><g class="cls-4"><text class="cls-8" transform="translate(663.6 188.99)">x</text></g><g class="cls-4"><text class="cls-8" transform="translate(718.2 188.99)">y</text></g><g class="cls-4"><text class="cls-8" transform="translate(14.4 207.59)">ecdf</text></g><g class="cls-4"><text class="cls-8" transform="translate(463.2 207.59)">summary</text></g><g class="cls-4"><text class="cls-8" transform="translate(509.4 207.59)">_</text></g><g class="cls-4"><text class="cls-8" transform="translate(515.99 207.59)">hex</text></g><g class="cls-4"><text class="cls-8" transform="translate(14.4 226.2)">ellipse</text></g><g class="cls-4"><text class="cls-8" transform="translate(463.2 226.2)">unique</text></g><g class="cls-4"><text class="cls-8" transform="translate(14.4 244.8)">function</text></g><g class="cls-4"><text class="cls-8" transform="translate(463.2 244.8)">ydensity</text></g><g class="cls-4"><text class="cls-8" transform="translate(663.6 244.8)">y</text></g><g class="cls-4"><text class="cls-9" transform="translate(130.8 40.8)">计算封箱</text></g><g class="cls-4"><text class="cls-9" transform="translate(211.8 40.8)">数据</text></g><g class="cls-4"><text class="cls-9" transform="translate(579.6 40.8)">不对数据进行统计变换</text></g><g class="cls-4"><text class="cls-9" transform="translate(130.8 59.39)">计算矩形封箱内的观测值个数</text></g><g class="cls-4"><text class="cls-9" transform="translate(579.6 59.39)">计算分位数</text></g><g class="cls-4"><text class="cls-9" transform="translate(646.2 59.39)">分位数图</text></g><g class="cls-4"><text class="cls-9" transform="translate(713.99 59.39)">图</text></g><g class="cls-4"><text class="cls-9" transform="translate(732.6 59.39)">的相关值</text></g><g class="cls-4"><text class="cls-9" transform="translate(130.8 78)">计算</text></g><g class="cls-4"><text class="cls-9" transform="translate(161.39 78)">点直方图</text></g><g class="cls-4"><text class="cls-9" transform="translate(215.99 78)">的封箱数据</text></g><g class="cls-4"><text class="cls-9" transform="translate(579.6 78)">为分位数</text></g><g class="cls-4"><text class="cls-9" transform="translate(634.2 78)">分位数图</text></g><g class="cls-4"><text class="cls-9" transform="translate(701.99 78)">图</text></g><g class="cls-4"><text class="cls-9" transform="translate(720.6 78)">计算并绘制指定两点的直线</text></g><g class="cls-4"><text class="cls-9" transform="translate(130.8 96.6)">计算六边形封箱内的观测值个数</text></g><g class="cls-4"><text class="cls-9" transform="translate(579.6 96.6)">计算连续的分位数</text></g><g class="cls-4"><text class="cls-9" transform="translate(130.8 115.19)">计算组成箱线图的各元素值</text></g><g class="cls-4"><text class="cls-9" transform="translate(579.6 115.19)">添加光滑曲线</text></g><g class="cls-4"><text class="cls-9" transform="translate(130.8 133.8)">三维数据的轮廓</text></g><g class="cls-4"><text class="cls-9" transform="translate(579.6 133.8)">计算每个单一值的频数</text></g><g class="cls-4"><text class="cls-9" transform="translate(699.6 133.8)">，</text></g><g class="cls-4"><text class="cls-9" transform="translate(711.6 133.8)">有助于解决散点图的图形重叠问题</text></g><g class="cls-4"><text class="cls-9" transform="translate(130.8 152.4)">统计每个</text></g><g class="cls-4"><text class="cls-9" transform="translate(185.4 152.4)">位置的数量</text></g><g class="cls-4"><text class="cls-9" transform="translate(579.6 152.4)">对每个</text></g><g class="cls-4"><text class="cls-9" transform="translate(622.2 152.4)">所对应的</text></g><g class="cls-4"><text class="cls-9" transform="translate(676.8 152.4)">值做统计描述</text></g><g class="cls-4"><text class="cls-9" transform="translate(130.8 170.99)">一维密度估计</text></g><g class="cls-4"><text class="cls-9" transform="translate(579.6 170.99)">对二维矩形封箱内的数据设定函数</text></g><g class="cls-4"><text class="cls-9" transform="translate(130.8 189.59)">二维密度估计</text></g><g class="cls-4"><text class="cls-9" transform="translate(579.6 189.59)">对每个封箱后的</text></g><g class="cls-4"><text class="cls-9" transform="translate(670.19 189.59)">所对应的</text></g><g class="cls-4"><text class="cls-9" transform="translate(724.8 189.59)">值做统计描述</text></g><g class="cls-4"><text class="cls-9" transform="translate(130.8 208.19)">概率累积分布</text></g><g class="cls-4"><text class="cls-9" transform="translate(579.6 208.19)">对二维六边形封箱内的数据设定函数</text></g><g class="cls-4"><text class="cls-9" transform="translate(130.8 226.8)">绘制椭圆的方法</text></g><g class="cls-4"><text class="cls-9" transform="translate(579.6 226.8)">删除重复值</text></g><g class="cls-4"><text class="cls-9" transform="translate(130.8 245.4)">添加新函数</text></g><g class="cls-4"><text class="cls-9" transform="translate(579.6 245.4)">小提琴图</text></g><g class="cls-4"><text class="cls-9" transform="translate(627.6 245.4)">，</text></g><g class="cls-4"><text class="cls-9" transform="translate(639.6 245.4)">计算</text></g><g class="cls-4"><text class="cls-9" transform="translate(670.19 245.4)">轴方向的核密度函数估计值</text></g><line class="cls-10" x1="0.3" y1="0.3" x2="898.2" y2="0.3"/><line class="cls-10" x1="0.3" y1="26.1" x2="898.2" y2="26.1"/><line class="cls-10" x1="0.3" y1="44.7" x2="898.2" y2="44.7"/><line class="cls-10" x1="0.3" y1="63.3" x2="898.2" y2="63.3"/><line class="cls-10" x1="0.3" y1="81.9" x2="898.2" y2="81.9"/><line class="cls-10" x1="0.3" y1="100.5" x2="898.2" y2="100.5"/><line class="cls-10" x1="0.3" y1="119.1" x2="898.2" y2="119.1"/><line class="cls-10" x1="0.3" y1="137.7" x2="898.2" y2="137.7"/><line class="cls-10" x1="0.3" y1="156.3" x2="898.2" y2="156.3"/><line class="cls-10" x1="0.3" y1="174.9" x2="898.2" y2="174.9"/><line class="cls-10" x1="0.3" y1="193.5" x2="898.2" y2="193.5"/><line class="cls-10" x1="0.3" y1="212.1" x2="898.2" y2="212.1"/><line class="cls-10" x1="0.3" y1="230.7" x2="898.2" y2="230.7"/><line class="cls-10" x1="0.3" y1="249" x2="898.2" y2="249"/><line class="cls-10" x1="0.3" y1="0.3" x2="0.3" y2="249.6"/><line class="cls-10" x1="116.7" y1="0.3" x2="116.7" y2="249.6"/><line class="cls-10" x1="449.1" y1="0.3" x2="449.1" y2="249.6"/><line class="cls-10" x1="565.5" y1="0.3" x2="565.5" y2="249.6"/><line class="cls-10" x1="897.6" y1="0.3" x2="897.6" y2="249.6"/></g></g></svg>